  0
SECTION
  2
BLOCKS
  0
ENDSEC
  0
SECTION
  2
ENTITIES
  0
LINE
  8
0
 10
-2.32799
 20
-18.7947
 11
-1.92545
 21
-17.8906
  0
LINE
  8
0
 10
-1.92545
 20
-17.8906
 11
-1.18999
 21
-17.2284
  0
LINE
  8
0
 10
-1.18999
 20
-17.2284
 11
-0.248764
 21
-16.9226
  0
LINE
  8
0
 10
-0.248764
 20
-16.9226
 11
0.735458
 21
-17.0261
  0
LINE
  8
0
 10
0.735458
 20
-17.0261
 11
1.59253
 21
-17.5209
  0
LINE
  8
0
 10
1.59253
 20
-17.5209
 11
2.17422
 21
-18.3215
  0
LINE
  8
0
 10
2.17422
 20
-18.3215
 11
2.34886
 21
-19.1431
  0
LINE
  8
0
 10
2.34886
 20
-19.1431
 11
2.47675
 21
-19.1299
  0
LINE
  8
0
 10
2.47675
 20
-19.1299
 11
3.45824
 21
-18.977
  0
LINE
  8
0
 10
3.45824
 20
-18.977
 11
3.67365
 21
-18.932
  0
LINE
  8
0
 10
3.67365
 20
-18.932
 11
3.63281
 21
-18.8403
  0
LINE
  8
0
 10
3.63281
 20
-18.8403
 11
3.63281
 21
-17.8506
  0
LINE
  8
0
 10
3.63281
 20
-17.8506
 11
4.03534
 21
-16.9465
  0
LINE
  8
0
 10
4.03534
 20
-16.9465
 11
4.7708
 21
-16.2843
  0
LINE
  8
0
 10
4.7708
 20
-16.2843
 11
5.71202
 21
-15.9785
  0
LINE
  8
0
 10
5.71202
 20
-15.9785
 11
6.69626
 21
-16.082
  0
LINE
  8
0
 10
6.69626
 20
-16.082
 11
7.55333
 21
-16.5768
  0
LINE
  8
0
 10
7.55333
 20
-16.5768
 11
8.13504
 21
-17.3774
  0
LINE
  8
0
 10
8.13504
 20
-17.3774
 11
8.15674
 21
-17.4795
  0
LINE
  8
0
 10
8.15674
 20
-17.4795
 11
8.17712
 21
-17.4706
  0
LINE
  8
0
 10
8.17712
 20
-17.4706
 11
9.06564
 21
-17.0265
  0
LINE
  8
0
 10
9.06564
 20
-17.0265
 11
9.35063
 21
-16.8652
  0
LINE
  8
0
 10
9.35063
 20
-16.8652
 11
9.01013
 21
-16.1004
  0
LINE
  8
0
 10
9.01013
 20
-16.1004
 11
9.01013
 21
-15.1108
  0
LINE
  8
0
 10
9.01013
 20
-15.1108
 11
9.41266
 21
-14.2067
  0
LINE
  8
0
 10
9.41266
 20
-14.2067
 11
10.1481
 21
-13.5444
  0
LINE
  8
0
 10
10.1481
 20
-13.5444
 11
11.0893
 21
-13.2386
  0
LINE
  8
0
 10
11.0893
 20
-13.2386
 11
12.0736
 21
-13.3421
  0
LINE
  8
0
 10
12.0736
 20
-13.3421
 11
12.9306
 21
-13.8369
  0
LINE
  8
0
 10
12.9306
 20
-13.8369
 11
13.1379
 21
-14.1222
  0
LINE
  8
0
 10
13.1379
 20
-14.1222
 11
13.8143
 21
-13.463
  0
LINE
  8
0
 10
13.8143
 20
-13.463
 11
14.1198
 21
-13.1329
  0
LINE
  8
0
 10
14.1198
 20
-13.1329
 11
13.6801
 21
-12.737
  0
LINE
  8
0
 10
13.6801
 20
-12.737
 11
13.2776
 21
-11.8329
  0
LINE
  8
0
 10
13.2776
 20
-11.8329
 11
13.2776
 21
-10.8433
  0
LINE
  8
0
 10
13.2776
 20
-10.8433
 11
13.6801
 21
-9.93919
  0
LINE
  8
0
 10
13.6801
 20
-9.93919
 11
14.4156
 21
-9.27698
  0
LINE
  8
0
 10
14.4156
 20
-9.27698
 11
15.3568
 21
-8.97116
  0
LINE
  8
0
 10
15.3568
 20
-8.97116
 11
16.341
 21
-9.07462
  0
LINE
  8
0
 10
16.341
 20
-9.07462
 11
16.8561
 21
-9.37199
  0
LINE
  8
0
 10
16.8561
 20
-9.37199
 11
17.2543
 21
-8.62424
  0
LINE
  8
0
 10
17.2543
 20
-8.62424
 11
17.4859
 21
-8.1293
  0
LINE
  8
0
 10
17.4859
 20
-8.1293
 11
17.1555
 21
-8.02194
  0
LINE
  8
0
 10
17.1555
 20
-8.02194
 11
16.42
 21
-7.35973
  0
LINE
  8
0
 10
16.42
 20
-7.35973
 11
16.0175
 21
-6.45563
  0
LINE
  8
0
 10
16.0175
 20
-6.45563
 11
16.0175
 21
-5.46597
  0
LINE
  8
0
 10
16.0175
 20
-5.46597
 11
16.42
 21
-4.56187
  0
LINE
  8
0
 10
16.42
 20
-4.56187
 11
17.1555
 21
-3.89966
  0
LINE
  8
0
 10
17.1555
 20
-3.89966
 11
18.0967
 21
-3.59384
  0
LINE
  8
0
 10
18.0967
 20
-3.59384
 11
18.9299
 21
-3.68141
  0
LINE
  8
0
 10
18.9299
 20
-3.68141
 11
19.0598
 21
-2.96848
  0
LINE
  8
0
 10
19.0598
 20
-2.96848
 11
19.139
 21
-2.35663
  0
LINE
  8
0
 10
19.139
 20
-2.35663
 11
19.0408
 21
-2.36696
  0
LINE
  8
0
 10
19.0408
 20
-2.36696
 11
18.0996
 21
-2.06113
  0
LINE
  8
0
 10
18.0996
 20
-2.06113
 11
17.3641
 21
-1.39893
  0
LINE
  8
0
 10
17.3641
 20
-1.39893
 11
16.9616
 21
-0.494827
  0
LINE
  8
0
 10
16.9616
 20
-0.494827
 11
16.9616
 21
0.494827
  0
LINE
  8
0
 10
16.9616
 20
0.494827
 11
17.3641
 21
1.39893
  0
LINE
  8
0
 10
17.3641
 20
1.39893
 11
18.0996
 21
2.06113
  0
LINE
  8
0
 10
18.0996
 20
2.06113
 11
19.0408
 21
2.36696
  0
LINE
  8
0
 10
19.0408
 20
2.36696
 11
19.139
 21
2.35663
  0
LINE
  8
0
 10
19.139
 20
2.35663
 11
19.0598
 21
2.96848
  0
LINE
  8
0
 10
19.0598
 20
2.96848
 11
18.9299
 21
3.68141
  0
LINE
  8
0
 10
18.9299
 20
3.68141
 11
18.0967
 21
3.59384
  0
LINE
  8
0
 10
18.0967
 20
3.59384
 11
17.1555
 21
3.89966
  0
LINE
  8
0
 10
17.1555
 20
3.89966
 11
16.42
 21
4.56187
  0
LINE
  8
0
 10
16.42
 20
4.56187
 11
16.0175
 21
5.46597
  0
LINE
  8
0
 10
16.0175
 20
5.46597
 11
16.0175
 21
6.45563
  0
LINE
  8
0
 10
16.0175
 20
6.45563
 11
16.42
 21
7.35973
  0
LINE
  8
0
 10
16.42
 20
7.35973
 11
17.1555
 21
8.02194
  0
LINE
  8
0
 10
17.1555
 20
8.02194
 11
17.4859
 21
8.1293
  0
LINE
  8
0
 10
17.4859
 20
8.1293
 11
17.2543
 21
8.62424
  0
LINE
  8
0
 10
17.2543
 20
8.62424
 11
16.8561
 21
9.37199
  0
LINE
  8
0
 10
16.8561
 20
9.37199
 11
16.341
 21
9.07462
  0
LINE
  8
0
 10
16.341
 20
9.07462
 11
15.3568
 21
8.97116
  0
LINE
  8
0
 10
15.3568
 20
8.97116
 11
14.4156
 21
9.27698
  0
LINE
  8
0
 10
14.4156
 20
9.27698
 11
13.6801
 21
9.93919
  0
LINE
  8
0
 10
13.6801
 20
9.93919
 11
13.2776
 21
10.8433
  0
LINE
  8
0
 10
13.2776
 20
10.8433
 11
13.2776
 21
11.8329
  0
LINE
  8
0
 10
13.2776
 20
11.8329
 11
13.6801
 21
12.737
  0
LINE
  8
0
 10
13.6801
 20
12.737
 11
14.1198
 21
13.1329
  0
LINE
  8
0
 10
14.1198
 20
13.1329
 11
13.8143
 21
13.463
  0
LINE
  8
0
 10
13.8143
 20
13.463
 11
13.1379
 21
14.1222
  0
LINE
  8
0
 10
13.1379
 20
14.1222
 11
12.9306
 21
13.8369
  0
LINE
  8
0
 10
12.9306
 20
13.8369
 11
12.0736
 21
13.3421
  0
LINE
  8
0
 10
12.0736
 20
13.3421
 11
11.0893
 21
13.2386
  0
LINE
  8
0
 10
11.0893
 20
13.2386
 11
10.1481
 21
13.5444
  0
LINE
  8
0
 10
10.1481
 20
13.5444
 11
9.41266
 21
14.2067
  0
LINE
  8
0
 10
9.41266
 20
14.2067
 11
9.01013
 21
15.1108
  0
LINE
  8
0
 10
9.01013
 20
15.1108
 11
9.01013
 21
16.1004
  0
LINE
  8
0
 10
9.01013
 20
16.1004
 11
9.35063
 21
16.8652
  0
LINE
  8
0
 10
9.35063
 20
16.8652
 11
9.06564
 21
17.0265
  0
LINE
  8
0
 10
9.06564
 20
17.0265
 11
8.17712
 21
17.4706
  0
LINE
  8
0
 10
8.17712
 20
17.4706
 11
8.15674
 21
17.4795
  0
LINE
  8
0
 10
8.15674
 20
17.4795
 11
8.13504
 21
17.3774
  0
LINE
  8
0
 10
8.13504
 20
17.3774
 11
7.55333
 21
16.5768
  0
LINE
  8
0
 10
7.55333
 20
16.5768
 11
6.69626
 21
16.082
  0
LINE
  8
0
 10
6.69626
 20
16.082
 11
5.71202
 21
15.9785
  0
LINE
  8
0
 10
5.71202
 20
15.9785
 11
4.7708
 21
16.2843
  0
LINE
  8
0
 10
4.7708
 20
16.2843
 11
4.03534
 21
16.9465
  0
LINE
  8
0
 10
4.03534
 20
16.9465
 11
3.63281
 21
17.8506
  0
LINE
  8
0
 10
3.63281
 20
17.8506
 11
3.63281
 21
18.8403
  0
LINE
  8
0
 10
3.63281
 20
18.8403
 11
3.67365
 21
18.932
  0
LINE
  8
0
 10
3.67365
 20
18.932
 11
3.45824
 21
18.977
  0
LINE
  8
0
 10
3.45824
 20
18.977
 11
2.47675
 21
19.1299
  0
LINE
  8
0
 10
2.47675
 20
19.1299
 11
2.34886
 21
19.1431
  0
LINE
  8
0
 10
2.34886
 20
19.1431
 11
2.17422
 21
18.3215
  0
LINE
  8
0
 10
2.17422
 20
18.3215
 11
1.59253
 21
17.5209
  0
LINE
  8
0
 10
1.59253
 20
17.5209
 11
0.735458
 21
17.0261
  0
LINE
  8
0
 10
0.735458
 20
17.0261
 11
-0.248764
 21
16.9226
  0
LINE
  8
0
 10
-0.248764
 20
16.9226
 11
-1.18999
 21
17.2284
  0
LINE
  8
0
 10
-1.18999
 20
17.2284
 11
-1.92545
 21
17.8906
  0
LINE
  8
0
 10
-1.92545
 20
17.8906
 11
-2.32799
 21
18.7947
  0
LINE
  8
0
 10
-2.32799
 20
18.7947
 11
-2.32799
 21
19.1453
  0
LINE
  8
0
 10
-2.32799
 20
19.1453
 11
-2.47675
 21
19.1299
  0
LINE
  8
0
 10
-2.47675
 20
19.1299
 11
-3.45824
 21
18.977
  0
LINE
  8
0
 10
-3.45824
 20
18.977
 11
-3.70412
 21
18.9257
  0
LINE
  8
0
 10
-3.70412
 20
18.9257
 11
-3.5808
 21
18.3455
  0
LINE
  8
0
 10
-3.5808
 20
18.3455
 11
-3.78656
 21
17.3774
  0
LINE
  8
0
 10
-3.78656
 20
17.3774
 11
-4.36827
 21
16.5768
  0
LINE
  8
0
 10
-4.36827
 20
16.5768
 11
-5.22534
 21
16.082
  0
LINE
  8
0
 10
-5.22534
 20
16.082
 11
-6.20958
 21
15.9785
  0
LINE
  8
0
 10
-6.20958
 20
15.9785
 11
-7.1508
 21
16.2843
  0
LINE
  8
0
 10
-7.1508
 20
16.2843
 11
-7.88626
 21
16.9465
  0
LINE
  8
0
 10
-7.88626
 20
16.9465
 11
-8.12895
 21
17.4917
  0
LINE
  8
0
 10
-8.12895
 20
17.4917
 11
-8.17712
 21
17.4706
  0
LINE
  8
0
 10
-8.17712
 20
17.4706
 11
-9.06564
 21
17.0265
  0
LINE
  8
0
 10
-9.06564
 20
17.0265
 11
-9.36841
 21
16.8551
  0
LINE
  8
0
 10
-9.36841
 20
16.8551
 11
-9.16388
 21
16.5736
  0
LINE
  8
0
 10
-9.16388
 20
16.5736
 11
-8.95813
 21
15.6056
  0
LINE
  8
0
 10
-8.95813
 20
15.6056
 11
-9.16388
 21
14.6376
  0
LINE
  8
0
 10
-9.16388
 20
14.6376
 11
-9.74559
 21
13.8369
  0
LINE
  8
0
 10
-9.74559
 20
13.8369
 11
-10.6027
 21
13.3421
  0
LINE
  8
0
 10
-10.6027
 20
13.3421
 11
-11.5869
 21
13.2386
  0
LINE
  8
0
 10
-11.5869
 20
13.2386
 11
-12.5281
 21
13.5444
  0
LINE
  8
0
 10
-12.5281
 20
13.5444
 11
-13.1532
 21
14.1073
  0
LINE
  8
0
 10
-13.1532
 20
14.1073
 11
-13.8143
 21
13.463
  0
LINE
  8
0
 10
-13.8143
 20
13.463
 11
-14.0984
 21
13.1561
  0
LINE
  8
0
 10
-14.0984
 20
13.1561
 11
-14.0131
 21
13.1068
  0
LINE
  8
0
 10
-14.0131
 20
13.1068
 11
-13.4314
 21
12.3062
  0
LINE
  8
0
 10
-13.4314
 20
12.3062
 11
-13.2256
 21
11.3381
  0
LINE
  8
0
 10
-13.2256
 20
11.3381
 11
-13.4314
 21
10.3701
  0
LINE
  8
0
 10
-13.4314
 20
10.3701
 11
-14.0131
 21
9.56944
  0
LINE
  8
0
 10
-14.0131
 20
9.56944
 11
-14.8701
 21
9.07462
  0
LINE
  8
0
 10
-14.8701
 20
9.07462
 11
-15.8544
 21
8.97116
  0
LINE
  8
0
 10
-15.8544
 20
8.97116
 11
-16.7956
 21
9.27698
  0
LINE
  8
0
 10
-16.7956
 20
9.27698
 11
-16.8707
 21
9.34462
  0
LINE
  8
0
 10
-16.8707
 20
9.34462
 11
-17.2543
 21
8.62424
  0
LINE
  8
0
 10
-17.2543
 20
8.62424
 11
-17.4773
 21
8.14771
  0
LINE
  8
0
 10
-17.4773
 20
8.14771
 11
-16.7529
 21
7.72949
  0
LINE
  8
0
 10
-16.7529
 20
7.72949
 11
-16.1712
 21
6.92883
  0
LINE
  8
0
 10
-16.1712
 20
6.92883
 11
-15.9655
 21
5.9608
  0
LINE
  8
0
 10
-15.9655
 20
5.9608
 11
-16.1712
 21
4.99277
  0
LINE
  8
0
 10
-16.1712
 20
4.99277
 11
-16.7529
 21
4.19211
  0
LINE
  8
0
 10
-16.7529
 20
4.19211
 11
-17.61
 21
3.69728
  0
LINE
  8
0
 10
-17.61
 20
3.69728
 11
-18.5943
 21
3.59384
  0
LINE
  8
0
 10
-18.5943
 20
3.59384
 11
-18.9262
 21
3.70169
  0
LINE
  8
0
 10
-18.9262
 20
3.70169
 11
-19.0598
 21
2.96848
  0
LINE
  8
0
 10
-19.0598
 20
2.96848
 11
-19.1431
 21
2.32541
  0
LINE
  8
0
 10
-19.1431
 20
2.32541
 11
-18.5541
 21
2.2635
  0
LINE
  8
0
 10
-18.5541
 20
2.2635
 11
-17.697
 21
1.76868
  0
LINE
  8
0
 10
-17.697
 20
1.76868
 11
-17.1153
 21
0.968033
  0
LINE
  8
0
 10
-17.1153
 20
0.968033
 11
-16.9096
 21
0
  0
LINE
  8
0
 10
-16.9096
 20
0
 11
-17.1153
 21
-0.968033
  0
LINE
  8
0
 10
-17.1153
 20
-0.968033
 11
-17.697
 21
-1.76868
  0
LINE
  8
0
 10
-17.697
 20
-1.76868
 11
-18.5541
 21
-2.2635
  0
LINE
  8
0
 10
-18.5541
 20
-2.2635
 11
-19.1431
 21
-2.32541
  0
LINE
  8
0
 10
-19.1431
 20
-2.32541
 11
-19.0598
 21
-2.96848
  0
LINE
  8
0
 10
-19.0598
 20
-2.96848
 11
-18.9262
 21
-3.70169
  0
LINE
  8
0
 10
-18.9262
 20
-3.70169
 11
-18.5943
 21
-3.59384
  0
LINE
  8
0
 10
-18.5943
 20
-3.59384
 11
-17.61
 21
-3.69728
  0
LINE
  8
0
 10
-17.61
 20
-3.69728
 11
-16.7529
 21
-4.19211
  0
LINE
  8
0
 10
-16.7529
 20
-4.19211
 11
-16.1712
 21
-4.99277
  0
LINE
  8
0
 10
-16.1712
 20
-4.99277
 11
-15.9655
 21
-5.9608
  0
LINE
  8
0
 10
-15.9655
 20
-5.9608
 11
-16.1712
 21
-6.92883
  0
LINE
  8
0
 10
-16.1712
 20
-6.92883
 11
-16.7529
 21
-7.72949
  0
LINE
  8
0
 10
-16.7529
 20
-7.72949
 11
-17.4773
 21
-8.14771
  0
LINE
  8
0
 10
-17.4773
 20
-8.14771
 11
-17.2543
 21
-8.62424
  0
LINE
  8
0
 10
-17.2543
 20
-8.62424
 11
-16.8707
 21
-9.34462
  0
LINE
  8
0
 10
-16.8707
 20
-9.34462
 11
-16.7956
 21
-9.27698
  0
LINE
  8
0
 10
-16.7956
 20
-9.27698
 11
-15.8544
 21
-8.97116
  0
LINE
  8
0
 10
-15.8544
 20
-8.97116
 11
-14.8701
 21
-9.07462
  0
LINE
  8
0
 10
-14.8701
 20
-9.07462
 11
-14.0131
 21
-9.56944
  0
LINE
  8
0
 10
-14.0131
 20
-9.56944
 11
-13.4314
 21
-10.3701
  0
LINE
  8
0
 10
-13.4314
 20
-10.3701
 11
-13.2256
 21
-11.3381
  0
LINE
  8
0
 10
-13.2256
 20
-11.3381
 11
-13.4314
 21
-12.3062
  0
LINE
  8
0
 10
-13.4314
 20
-12.3062
 11
-14.0131
 21
-13.1068
  0
LINE
  8
0
 10
-14.0131
 20
-13.1068
 11
-14.0984
 21
-13.1561
  0
LINE
  8
0
 10
-14.0984
 20
-13.1561
 11
-13.8143
 21
-13.463
  0
LINE
  8
0
 10
-13.8143
 20
-13.463
 11
-13.1532
 21
-14.1073
  0
LINE
  8
0
 10
-13.1532
 20
-14.1073
 11
-12.5281
 21
-13.5444
  0
LINE
  8
0
 10
-12.5281
 20
-13.5444
 11
-11.5869
 21
-13.2386
  0
LINE
  8
0
 10
-11.5869
 20
-13.2386
 11
-10.6027
 21
-13.3421
  0
LINE
  8
0
 10
-10.6027
 20
-13.3421
 11
-9.74559
 21
-13.8369
  0
LINE
  8
0
 10
-9.74559
 20
-13.8369
 11
-9.16388
 21
-14.6376
  0
LINE
  8
0
 10
-9.16388
 20
-14.6376
 11
-8.95813
 21
-15.6056
  0
LINE
  8
0
 10
-8.95813
 20
-15.6056
 11
-9.16388
 21
-16.5736
  0
LINE
  8
0
 10
-9.16388
 20
-16.5736
 11
-9.36841
 21
-16.8551
  0
LINE
  8
0
 10
-9.36841
 20
-16.8551
 11
-9.06564
 21
-17.0265
  0
LINE
  8
0
 10
-9.06564
 20
-17.0265
 11
-8.17712
 21
-17.4706
  0
LINE
  8
0
 10
-8.17712
 20
-17.4706
 11
-8.12895
 21
-17.4917
  0
LINE
  8
0
 10
-8.12895
 20
-17.4917
 11
-7.88626
 21
-16.9465
  0
LINE
  8
0
 10
-7.88626
 20
-16.9465
 11
-7.1508
 21
-16.2843
  0
LINE
  8
0
 10
-7.1508
 20
-16.2843
 11
-6.20958
 21
-15.9785
  0
LINE
  8
0
 10
-6.20958
 20
-15.9785
 11
-5.22534
 21
-16.082
  0
LINE
  8
0
 10
-5.22534
 20
-16.082
 11
-4.36827
 21
-16.5768
  0
LINE
  8
0
 10
-4.36827
 20
-16.5768
 11
-3.78656
 21
-17.3774
  0
LINE
  8
0
 10
-3.78656
 20
-17.3774
 11
-3.5808
 21
-18.3455
  0
LINE
  8
0
 10
-3.5808
 20
-18.3455
 11
-3.70412
 21
-18.9257
  0
LINE
  8
0
 10
-3.70412
 20
-18.9257
 11
-3.45824
 21
-18.977
  0
LINE
  8
0
 10
-3.45824
 20
-18.977
 11
-2.47675
 21
-19.1299
  0
LINE
  8
0
 10
-2.47675
 20
-19.1299
 11
-2.32799
 21
-19.1453
  0
LINE
  8
0
 10
-2.32799
 20
-19.1453
 11
-2.32799
 21
-18.7947
  0
LINE
  8
0
 10
-0.981125
 20
-3.01959
 11
-1.86621
 21
-2.56862
  0
LINE
  8
0
 10
-1.86621
 20
-2.56862
 11
-2.56862
 21
-1.86621
  0
LINE
  8
0
 10
-2.56862
 20
-1.86621
 11
-3.01959
 21
-0.981125
  0
LINE
  8
0
 10
-3.01959
 20
-0.981125
 11
-3.17499
 21
0
  0
LINE
  8
0
 10
-3.17499
 20
0
 11
-3.01959
 21
0.981125
  0
LINE
  8
0
 10
-3.01959
 20
0.981125
 11
-2.56862
 21
1.86621
  0
LINE
  8
0
 10
-2.56862
 20
1.86621
 11
-1.86621
 21
2.56862
  0
LINE
  8
0
 10
-1.86621
 20
2.56862
 11
-0.981125
 21
3.01959
  0
LINE
  8
0
 10
-0.981125
 20
3.01959
 11
0
 21
3.17499
  0
LINE
  8
0
 10
0
 20
3.17499
 11
0.981125
 21
3.01959
  0
LINE
  8
0
 10
0.981125
 20
3.01959
 11
1.86621
 21
2.56862
  0
LINE
  8
0
 10
1.86621
 20
2.56862
 11
2.56862
 21
1.86621
  0
LINE
  8
0
 10
2.56862
 20
1.86621
 11
3.01959
 21
0.981125
  0
LINE
  8
0
 10
3.01959
 20
0.981125
 11
3.17499
 21
0
  0
LINE
  8
0
 10
3.17499
 20
0
 11
3.01959
 21
-0.981125
  0
LINE
  8
0
 10
3.01959
 20
-0.981125
 11
2.56862
 21
-1.86621
  0
LINE
  8
0
 10
2.56862
 20
-1.86621
 11
1.86621
 21
-2.56862
  0
LINE
  8
0
 10
1.86621
 20
-2.56862
 11
0.981125
 21
-3.01959
  0
LINE
  8
0
 10
0.981125
 20
-3.01959
 11
0
 21
-3.17499
  0
LINE
  8
0
 10
0
 20
-3.17499
 11
-0.981125
 21
-3.01959
  0
ENDSEC
  0
SECTION
  2
OBJECTS
  0
DICTIONARY
  0
ENDSEC
  0
EOF
