  0
SECTION
  2
BLOCKS
  0
ENDSEC
  0
SECTION
  2
ENTITIES
  0
LINE
  8
0
 10
99.8798
 20
-25.9522
 11
100.873
 21
-25.8951
  0
LINE
  8
0
 10
100.873
 20
-25.8951
 11
101.864
 21
-25.7999
  0
LINE
  8
0
 10
101.864
 20
-25.7999
 11
102.85
 21
-25.6669
  0
LINE
  8
0
 10
102.85
 20
-25.6669
 11
103.83
 21
-25.4962
  0
LINE
  8
0
 10
103.83
 20
-25.4962
 11
104.803
 21
-25.2881
  0
LINE
  8
0
 10
104.803
 20
-25.2881
 11
105.767
 21
-25.0429
  0
LINE
  8
0
 10
105.767
 20
-25.0429
 11
106.721
 21
-24.7609
  0
LINE
  8
0
 10
106.721
 20
-24.7609
 11
107.664
 21
-24.4426
  0
LINE
  8
0
 10
107.664
 20
-24.4426
 11
108.594
 21
-24.0884
  0
LINE
  8
0
 10
108.594
 20
-24.0884
 11
109.509
 21
-23.6989
  0
LINE
  8
0
 10
109.509
 20
-23.6989
 11
110.409
 21
-23.2746
  0
LINE
  8
0
 10
110.409
 20
-23.2746
 11
111.292
 21
-22.8161
  0
LINE
  8
0
 10
111.292
 20
-22.8161
 11
112.157
 21
-22.3241
  0
LINE
  8
0
 10
112.157
 20
-22.3241
 11
113.002
 21
-21.7994
  0
LINE
  8
0
 10
113.002
 20
-21.7994
 11
113.827
 21
-21.2427
  0
LINE
  8
0
 10
113.827
 20
-21.2427
 11
114.63
 21
-20.6548
  0
LINE
  8
0
 10
114.63
 20
-20.6548
 11
115.409
 21
-20.0365
  0
LINE
  8
0
 10
115.409
 20
-20.0365
 11
116.164
 21
-19.3889
  0
LINE
  8
0
 10
116.164
 20
-19.3889
 11
116.894
 21
-18.7129
  0
LINE
  8
0
 10
116.894
 20
-18.7129
 11
117.598
 21
-18.0093
  0
LINE
  8
0
 10
117.598
 20
-18.0093
 11
118.274
 21
-17.2793
  0
LINE
  8
0
 10
118.274
 20
-17.2793
 11
118.922
 21
-16.524
  0
LINE
  8
0
 10
118.922
 20
-16.524
 11
119.54
 21
-15.7444
  0
LINE
  8
0
 10
119.54
 20
-15.7444
 11
120.128
 21
-14.9417
  0
LINE
  8
0
 10
120.128
 20
-14.9417
 11
120.684
 21
-14.1171
  0
LINE
  8
0
 10
120.684
 20
-14.1171
 11
121.209
 21
-13.2718
  0
LINE
  8
0
 10
121.209
 20
-13.2718
 11
121.701
 21
-12.407
  0
LINE
  8
0
 10
121.701
 20
-12.407
 11
122.16
 21
-11.524
  0
LINE
  8
0
 10
122.16
 20
-11.524
 11
122.584
 21
-10.624
  0
LINE
  8
0
 10
122.584
 20
-10.624
 11
122.973
 21
-9.7085
  0
LINE
  8
0
 10
122.973
 20
-9.7085
 11
123.328
 21
-8.77872
  0
LINE
  8
0
 10
123.328
 20
-8.77872
 11
123.646
 21
-7.83606
  0
LINE
  8
0
 10
123.646
 20
-7.83606
 11
123.928
 21
-6.8819
  0
LINE
  8
0
 10
123.928
 20
-6.8819
 11
124.173
 21
-5.91763
  0
LINE
  8
0
 10
124.173
 20
-5.91763
 11
124.381
 21
-4.94469
  0
LINE
  8
0
 10
124.381
 20
-4.94469
 11
124.552
 21
-3.96449
  0
LINE
  8
0
 10
124.552
 20
-3.96449
 11
124.685
 21
-2.97847
  0
LINE
  8
0
 10
124.685
 20
-2.97847
 11
124.78
 21
-1.98807
  0
LINE
  8
0
 10
124.78
 20
-1.98807
 11
124.837
 21
-0.994766
  0
LINE
  8
0
 10
124.837
 20
-0.994766
 11
124.856
 21
0
  0
LINE
  8
0
 10
124.856
 20
0
 11
124.837
 21
0.994766
  0
LINE
  8
0
 10
124.837
 20
0.994766
 11
124.78
 21
1.98807
  0
LINE
  8
0
 10
124.78
 20
1.98807
 11
124.685
 21
2.97847
  0
LINE
  8
0
 10
124.685
 20
2.97847
 11
124.552
 21
3.96449
  0
LINE
  8
0
 10
124.552
 20
3.96449
 11
124.381
 21
4.94469
  0
LINE
  8
0
 10
124.381
 20
4.94469
 11
124.173
 21
5.91763
  0
LINE
  8
0
 10
124.173
 20
5.91763
 11
123.928
 21
6.8819
  0
LINE
  8
0
 10
123.928
 20
6.8819
 11
123.646
 21
7.83606
  0
LINE
  8
0
 10
123.646
 20
7.83606
 11
123.328
 21
8.77872
  0
LINE
  8
0
 10
123.328
 20
8.77872
 11
122.973
 21
9.7085
  0
LINE
  8
0
 10
122.973
 20
9.7085
 11
122.584
 21
10.624
  0
LINE
  8
0
 10
122.584
 20
10.624
 11
122.16
 21
11.524
  0
LINE
  8
0
 10
122.16
 20
11.524
 11
121.701
 21
12.407
  0
LINE
  8
0
 10
121.701
 20
12.407
 11
121.209
 21
13.2718
  0
LINE
  8
0
 10
121.209
 20
13.2718
 11
120.684
 21
14.1171
  0
LINE
  8
0
 10
120.684
 20
14.1171
 11
120.128
 21
14.9417
  0
LINE
  8
0
 10
120.128
 20
14.9417
 11
119.54
 21
15.7444
  0
LINE
  8
0
 10
119.54
 20
15.7444
 11
118.922
 21
16.524
  0
LINE
  8
0
 10
118.922
 20
16.524
 11
118.274
 21
17.2793
  0
LINE
  8
0
 10
118.274
 20
17.2793
 11
117.598
 21
18.0093
  0
LINE
  8
0
 10
117.598
 20
18.0093
 11
116.894
 21
18.7129
  0
LINE
  8
0
 10
116.894
 20
18.7129
 11
116.164
 21
19.3889
  0
LINE
  8
0
 10
116.164
 20
19.3889
 11
115.409
 21
20.0365
  0
LINE
  8
0
 10
115.409
 20
20.0365
 11
114.63
 21
20.6548
  0
LINE
  8
0
 10
114.63
 20
20.6548
 11
113.827
 21
21.2427
  0
LINE
  8
0
 10
113.827
 20
21.2427
 11
113.002
 21
21.7994
  0
LINE
  8
0
 10
113.002
 20
21.7994
 11
112.157
 21
22.3241
  0
LINE
  8
0
 10
112.157
 20
22.3241
 11
111.292
 21
22.8161
  0
LINE
  8
0
 10
111.292
 20
22.8161
 11
110.409
 21
23.2746
  0
LINE
  8
0
 10
110.409
 20
23.2746
 11
109.509
 21
23.6989
  0
LINE
  8
0
 10
109.509
 20
23.6989
 11
108.594
 21
24.0884
  0
LINE
  8
0
 10
108.594
 20
24.0884
 11
107.664
 21
24.4426
  0
LINE
  8
0
 10
107.664
 20
24.4426
 11
106.721
 21
24.7609
  0
LINE
  8
0
 10
106.721
 20
24.7609
 11
105.767
 21
25.0429
  0
LINE
  8
0
 10
105.767
 20
25.0429
 11
104.803
 21
25.2881
  0
LINE
  8
0
 10
104.803
 20
25.2881
 11
103.83
 21
25.4962
  0
LINE
  8
0
 10
103.83
 20
25.4962
 11
102.85
 21
25.6669
  0
LINE
  8
0
 10
102.85
 20
25.6669
 11
101.864
 21
25.7999
  0
LINE
  8
0
 10
101.864
 20
25.7999
 11
100.873
 21
25.8951
  0
LINE
  8
0
 10
100.873
 20
25.8951
 11
99.8798
 21
25.9522
  0
LINE
  8
0
 10
99.8798
 20
25.9522
 11
98.8851
 21
25.9713
  0
LINE
  8
0
 10
98.8851
 20
25.9713
 11
97.8903
 21
25.9522
  0
LINE
  8
0
 10
97.8903
 20
25.9522
 11
96.897
 21
25.8951
  0
LINE
  8
0
 10
96.897
 20
25.8951
 11
95.9066
 21
25.7999
  0
LINE
  8
0
 10
95.9066
 20
25.7999
 11
94.9206
 21
25.6669
  0
LINE
  8
0
 10
94.9206
 20
25.6669
 11
93.9404
 21
25.4962
  0
LINE
  8
0
 10
93.9404
 20
25.4962
 11
92.9674
 21
25.2881
  0
LINE
  8
0
 10
92.9674
 20
25.2881
 11
92.0032
 21
25.0429
  0
LINE
  8
0
 10
92.0032
 20
25.0429
 11
91.049
 21
24.7609
  0
LINE
  8
0
 10
91.049
 20
24.7609
 11
90.1064
 21
24.4426
  0
LINE
  8
0
 10
90.1064
 20
24.4426
 11
89.1766
 21
24.0884
  0
LINE
  8
0
 10
89.1766
 20
24.0884
 11
88.261
 21
23.6989
  0
LINE
  8
0
 10
88.261
 20
23.6989
 11
87.3611
 21
23.2746
  0
LINE
  8
0
 10
87.3611
 20
23.2746
 11
86.4781
 21
22.8161
  0
LINE
  8
0
 10
86.4781
 20
22.8161
 11
85.6133
 21
22.3241
  0
LINE
  8
0
 10
85.6133
 20
22.3241
 11
84.7679
 21
21.7994
  0
LINE
  8
0
 10
84.7679
 20
21.7994
 11
83.9433
 21
21.2427
  0
LINE
  8
0
 10
83.9433
 20
21.2427
 11
83.1406
 21
20.6548
  0
LINE
  8
0
 10
83.1406
 20
20.6548
 11
82.3611
 21
20.0365
  0
LINE
  8
0
 10
82.3611
 20
20.0365
 11
81.6057
 21
19.3889
  0
LINE
  8
0
 10
81.6057
 20
19.3889
 11
80.8758
 21
18.7129
  0
LINE
  8
0
 10
80.8758
 20
18.7129
 11
80.1722
 21
18.0093
  0
LINE
  8
0
 10
80.1722
 20
18.0093
 11
79.4961
 21
17.2793
  0
LINE
  8
0
 10
79.4961
 20
17.2793
 11
78.8485
 21
16.524
  0
LINE
  8
0
 10
78.8485
 20
16.524
 11
78.2303
 21
15.7444
  0
LINE
  8
0
 10
78.2303
 20
15.7444
 11
77.6424
 21
14.9417
  0
LINE
  8
0
 10
77.6424
 20
14.9417
 11
77.0857
 21
14.1171
  0
LINE
  8
0
 10
77.0857
 20
14.1171
 11
76.561
 21
13.2718
  0
LINE
  8
0
 10
76.561
 20
13.2718
 11
76.069
 21
12.407
  0
LINE
  8
0
 10
76.069
 20
12.407
 11
75.6105
 21
11.524
  0
LINE
  8
0
 10
75.6105
 20
11.524
 11
75.1862
 21
10.624
  0
LINE
  8
0
 10
75.1862
 20
10.624
 11
74.7967
 21
9.7085
  0
LINE
  8
0
 10
74.7967
 20
9.7085
 11
74.4425
 21
8.77872
  0
LINE
  8
0
 10
74.4425
 20
8.77872
 11
74.1242
 21
7.83606
  0
LINE
  8
0
 10
74.1242
 20
7.83606
 11
73.8422
 21
6.8819
  0
LINE
  8
0
 10
73.8422
 20
6.8819
 11
73.597
 21
5.91763
  0
LINE
  8
0
 10
73.597
 20
5.91763
 11
73.3889
 21
4.94469
  0
LINE
  8
0
 10
73.3889
 20
4.94469
 11
73.2182
 21
3.96449
  0
LINE
  8
0
 10
73.2182
 20
3.96449
 11
73.0852
 21
2.97847
  0
LINE
  8
0
 10
73.0852
 20
2.97847
 11
72.99
 21
1.98807
  0
LINE
  8
0
 10
72.99
 20
1.98807
 11
72.9329
 21
0.994766
  0
LINE
  8
0
 10
72.9329
 20
0.994766
 11
72.9138
 21
0
  0
LINE
  8
0
 10
72.9138
 20
0
 11
72.9329
 21
-0.994766
  0
LINE
  8
0
 10
72.9329
 20
-0.994766
 11
72.99
 21
-1.98807
  0
LINE
  8
0
 10
72.99
 20
-1.98807
 11
73.0852
 21
-2.97847
  0
LINE
  8
0
 10
73.0852
 20
-2.97847
 11
73.2182
 21
-3.96449
  0
LINE
  8
0
 10
73.2182
 20
-3.96449
 11
73.3889
 21
-4.94469
  0
LINE
  8
0
 10
73.3889
 20
-4.94469
 11
73.597
 21
-5.91763
  0
LINE
  8
0
 10
73.597
 20
-5.91763
 11
73.8422
 21
-6.8819
  0
LINE
  8
0
 10
73.8422
 20
-6.8819
 11
74.1242
 21
-7.83606
  0
LINE
  8
0
 10
74.1242
 20
-7.83606
 11
74.4425
 21
-8.77872
  0
LINE
  8
0
 10
74.4425
 20
-8.77872
 11
74.7967
 21
-9.7085
  0
LINE
  8
0
 10
74.7967
 20
-9.7085
 11
75.1862
 21
-10.624
  0
LINE
  8
0
 10
75.1862
 20
-10.624
 11
75.6105
 21
-11.524
  0
LINE
  8
0
 10
75.6105
 20
-11.524
 11
76.069
 21
-12.407
  0
LINE
  8
0
 10
76.069
 20
-12.407
 11
76.561
 21
-13.2718
  0
LINE
  8
0
 10
76.561
 20
-13.2718
 11
77.0857
 21
-14.1171
  0
LINE
  8
0
 10
77.0857
 20
-14.1171
 11
77.6424
 21
-14.9417
  0
LINE
  8
0
 10
77.6424
 20
-14.9417
 11
78.2303
 21
-15.7444
  0
LINE
  8
0
 10
78.2303
 20
-15.7444
 11
78.8485
 21
-16.524
  0
LINE
  8
0
 10
78.8485
 20
-16.524
 11
79.4961
 21
-17.2793
  0
LINE
  8
0
 10
79.4961
 20
-17.2793
 11
80.1722
 21
-18.0093
  0
LINE
  8
0
 10
80.1722
 20
-18.0093
 11
80.8758
 21
-18.7129
  0
LINE
  8
0
 10
80.8758
 20
-18.7129
 11
81.6057
 21
-19.3889
  0
LINE
  8
0
 10
81.6057
 20
-19.3889
 11
82.3611
 21
-20.0365
  0
LINE
  8
0
 10
82.3611
 20
-20.0365
 11
83.1406
 21
-20.6548
  0
LINE
  8
0
 10
83.1406
 20
-20.6548
 11
83.9433
 21
-21.2427
  0
LINE
  8
0
 10
83.9433
 20
-21.2427
 11
84.7679
 21
-21.7994
  0
LINE
  8
0
 10
84.7679
 20
-21.7994
 11
85.6133
 21
-22.3241
  0
LINE
  8
0
 10
85.6133
 20
-22.3241
 11
86.4781
 21
-22.8161
  0
LINE
  8
0
 10
86.4781
 20
-22.8161
 11
87.3611
 21
-23.2746
  0
LINE
  8
0
 10
87.3611
 20
-23.2746
 11
88.261
 21
-23.6989
  0
LINE
  8
0
 10
88.261
 20
-23.6989
 11
89.1766
 21
-24.0884
  0
LINE
  8
0
 10
89.1766
 20
-24.0884
 11
90.1064
 21
-24.4426
  0
LINE
  8
0
 10
90.1064
 20
-24.4426
 11
91.049
 21
-24.7609
  0
LINE
  8
0
 10
91.049
 20
-24.7609
 11
92.0032
 21
-25.0429
  0
LINE
  8
0
 10
92.0032
 20
-25.0429
 11
92.9674
 21
-25.2881
  0
LINE
  8
0
 10
92.9674
 20
-25.2881
 11
93.9404
 21
-25.4962
  0
LINE
  8
0
 10
93.9404
 20
-25.4962
 11
94.9206
 21
-25.6669
  0
LINE
  8
0
 10
94.9206
 20
-25.6669
 11
95.9066
 21
-25.7999
  0
LINE
  8
0
 10
95.9066
 20
-25.7999
 11
96.897
 21
-25.8951
  0
LINE
  8
0
 10
96.897
 20
-25.8951
 11
97.8903
 21
-25.9522
  0
LINE
  8
0
 10
97.8903
 20
-25.9522
 11
98.8851
 21
-25.9713
  0
LINE
  8
0
 10
98.8851
 20
-25.9713
 11
99.8798
 21
-25.9522
  0
LINE
  8
0
 10
98.3873
 20
-4.7364
 11
97.4134
 21
-4.5294
  0
LINE
  8
0
 10
97.4134
 20
-4.5294
 11
96.5038
 21
-4.12444
  0
LINE
  8
0
 10
96.5038
 20
-4.12444
 11
95.6983
 21
-3.53922
  0
LINE
  8
0
 10
95.6983
 20
-3.53922
 11
95.0321
 21
-2.79932
  0
LINE
  8
0
 10
95.0321
 20
-2.79932
 11
94.5343
 21
-1.93707
  0
LINE
  8
0
 10
94.5343
 20
-1.93707
 11
94.2267
 21
-0.990173
  0
LINE
  8
0
 10
94.2267
 20
-0.990173
 11
94.1226
 21
0
  0
LINE
  8
0
 10
94.1226
 20
0
 11
94.2267
 21
0.990173
  0
LINE
  8
0
 10
94.2267
 20
0.990173
 11
94.5343
 21
1.93707
  0
LINE
  8
0
 10
94.5343
 20
1.93707
 11
95.0321
 21
2.79932
  0
LINE
  8
0
 10
95.0321
 20
2.79932
 11
95.6983
 21
3.53922
  0
LINE
  8
0
 10
95.6983
 20
3.53922
 11
96.5038
 21
4.12444
  0
LINE
  8
0
 10
96.5038
 20
4.12444
 11
97.4134
 21
4.5294
  0
LINE
  8
0
 10
97.4134
 20
4.5294
 11
98.3873
 21
4.7364
  0
LINE
  8
0
 10
98.3873
 20
4.7364
 11
99.3829
 21
4.7364
  0
LINE
  8
0
 10
99.3829
 20
4.7364
 11
100.357
 21
4.5294
  0
LINE
  8
0
 10
100.357
 20
4.5294
 11
101.266
 21
4.12444
  0
LINE
  8
0
 10
101.266
 20
4.12444
 11
102.072
 21
3.53922
  0
LINE
  8
0
 10
102.072
 20
3.53922
 11
102.738
 21
2.79932
  0
LINE
  8
0
 10
102.738
 20
2.79932
 11
103.236
 21
1.93707
  0
LINE
  8
0
 10
103.236
 20
1.93707
 11
103.543
 21
0.990173
  0
LINE
  8
0
 10
103.543
 20
0.990173
 11
103.648
 21
0
  0
LINE
  8
0
 10
103.648
 20
0
 11
103.543
 21
-0.990173
  0
LINE
  8
0
 10
103.543
 20
-0.990173
 11
103.236
 21
-1.93707
  0
LINE
  8
0
 10
103.236
 20
-1.93707
 11
102.738
 21
-2.79932
  0
LINE
  8
0
 10
102.738
 20
-2.79932
 11
102.072
 21
-3.53922
  0
LINE
  8
0
 10
102.072
 20
-3.53922
 11
101.266
 21
-4.12444
  0
LINE
  8
0
 10
101.266
 20
-4.12444
 11
100.357
 21
-4.5294
  0
LINE
  8
0
 10
100.357
 20
-4.5294
 11
99.3829
 21
-4.7364
  0
LINE
  8
0
 10
99.3829
 20
-4.7364
 11
98.3873
 21
-4.7364
  0
LINE
  8
0
 10
46.9373
 20
-25.9522
 11
47.9306
 21
-25.8951
  0
LINE
  8
0
 10
47.9306
 20
-25.8951
 11
48.921
 21
-25.7999
  0
LINE
  8
0
 10
48.921
 20
-25.7999
 11
49.907
 21
-25.6669
  0
LINE
  8
0
 10
49.907
 20
-25.6669
 11
50.8872
 21
-25.4962
  0
LINE
  8
0
 10
50.8872
 20
-25.4962
 11
51.8602
 21
-25.2881
  0
LINE
  8
0
 10
51.8602
 20
-25.2881
 11
52.8244
 21
-25.0429
  0
LINE
  8
0
 10
52.8244
 20
-25.0429
 11
53.7786
 21
-24.7609
  0
LINE
  8
0
 10
53.7786
 20
-24.7609
 11
54.7213
 21
-24.4426
  0
LINE
  8
0
 10
54.7213
 20
-24.4426
 11
55.651
 21
-24.0884
  0
LINE
  8
0
 10
55.651
 20
-24.0884
 11
56.5666
 21
-23.6989
  0
LINE
  8
0
 10
56.5666
 20
-23.6989
 11
57.4665
 21
-23.2746
  0
LINE
  8
0
 10
57.4665
 20
-23.2746
 11
58.3495
 21
-22.8161
  0
LINE
  8
0
 10
58.3495
 20
-22.8161
 11
59.2143
 21
-22.3241
  0
LINE
  8
0
 10
59.2143
 20
-22.3241
 11
60.0597
 21
-21.7994
  0
LINE
  8
0
 10
60.0597
 20
-21.7994
 11
60.8843
 21
-21.2427
  0
LINE
  8
0
 10
60.8843
 20
-21.2427
 11
61.687
 21
-20.6548
  0
LINE
  8
0
 10
61.687
 20
-20.6548
 11
62.4666
 21
-20.0365
  0
LINE
  8
0
 10
62.4666
 20
-20.0365
 11
63.2219
 21
-19.3889
  0
LINE
  8
0
 10
63.2219
 20
-19.3889
 11
63.9518
 21
-18.7129
  0
LINE
  8
0
 10
63.9518
 20
-18.7129
 11
64.6554
 21
-18.0093
  0
LINE
  8
0
 10
64.6554
 20
-18.0093
 11
65.3315
 21
-17.2793
  0
LINE
  8
0
 10
65.3315
 20
-17.2793
 11
65.9791
 21
-16.524
  0
LINE
  8
0
 10
65.9791
 20
-16.524
 11
66.5973
 21
-15.7444
  0
LINE
  8
0
 10
66.5973
 20
-15.7444
 11
67.1852
 21
-14.9417
  0
LINE
  8
0
 10
67.1852
 20
-14.9417
 11
67.7419
 21
-14.1171
  0
LINE
  8
0
 10
67.7419
 20
-14.1171
 11
68.2666
 21
-13.2718
  0
LINE
  8
0
 10
68.2666
 20
-13.2718
 11
68.7586
 21
-12.407
  0
LINE
  8
0
 10
68.7586
 20
-12.407
 11
69.2171
 21
-11.524
  0
LINE
  8
0
 10
69.2171
 20
-11.524
 11
69.6414
 21
-10.624
  0
LINE
  8
0
 10
69.6414
 20
-10.624
 11
70.0309
 21
-9.7085
  0
LINE
  8
0
 10
70.0309
 20
-9.7085
 11
70.3851
 21
-8.77872
  0
LINE
  8
0
 10
70.3851
 20
-8.77872
 11
70.7034
 21
-7.83606
  0
LINE
  8
0
 10
70.7034
 20
-7.83606
 11
70.9854
 21
-6.8819
  0
LINE
  8
0
 10
70.9854
 20
-6.8819
 11
71.2306
 21
-5.91763
  0
LINE
  8
0
 10
71.2306
 20
-5.91763
 11
71.4387
 21
-4.94469
  0
LINE
  8
0
 10
71.4387
 20
-4.94469
 11
71.6094
 21
-3.96449
  0
LINE
  8
0
 10
71.6094
 20
-3.96449
 11
71.7424
 21
-2.97847
  0
LINE
  8
0
 10
71.7424
 20
-2.97847
 11
71.8376
 21
-1.98807
  0
LINE
  8
0
 10
71.8376
 20
-1.98807
 11
71.8947
 21
-0.994766
  0
LINE
  8
0
 10
71.8947
 20
-0.994766
 11
71.9138
 21
0
  0
LINE
  8
0
 10
71.9138
 20
0
 11
71.8947
 21
0.994766
  0
LINE
  8
0
 10
71.8947
 20
0.994766
 11
71.8376
 21
1.98807
  0
LINE
  8
0
 10
71.8376
 20
1.98807
 11
71.7424
 21
2.97847
  0
LINE
  8
0
 10
71.7424
 20
2.97847
 11
71.6094
 21
3.96449
  0
LINE
  8
0
 10
71.6094
 20
3.96449
 11
71.4387
 21
4.94469
  0
LINE
  8
0
 10
71.4387
 20
4.94469
 11
71.2306
 21
5.91763
  0
LINE
  8
0
 10
71.2306
 20
5.91763
 11
70.9854
 21
6.8819
  0
LINE
  8
0
 10
70.9854
 20
6.8819
 11
70.7034
 21
7.83606
  0
LINE
  8
0
 10
70.7034
 20
7.83606
 11
70.3851
 21
8.77872
  0
LINE
  8
0
 10
70.3851
 20
8.77872
 11
70.0309
 21
9.7085
  0
LINE
  8
0
 10
70.0309
 20
9.7085
 11
69.6414
 21
10.624
  0
LINE
  8
0
 10
69.6414
 20
10.624
 11
69.2171
 21
11.524
  0
LINE
  8
0
 10
69.2171
 20
11.524
 11
68.7586
 21
12.407
  0
LINE
  8
0
 10
68.7586
 20
12.407
 11
68.2666
 21
13.2718
  0
LINE
  8
0
 10
68.2666
 20
13.2718
 11
67.7419
 21
14.1171
  0
LINE
  8
0
 10
67.7419
 20
14.1171
 11
67.1852
 21
14.9417
  0
LINE
  8
0
 10
67.1852
 20
14.9417
 11
66.5973
 21
15.7444
  0
LINE
  8
0
 10
66.5973
 20
15.7444
 11
65.9791
 21
16.524
  0
LINE
  8
0
 10
65.9791
 20
16.524
 11
65.3315
 21
17.2793
  0
LINE
  8
0
 10
65.3315
 20
17.2793
 11
64.6554
 21
18.0093
  0
LINE
  8
0
 10
64.6554
 20
18.0093
 11
63.9518
 21
18.7129
  0
LINE
  8
0
 10
63.9518
 20
18.7129
 11
63.2219
 21
19.3889
  0
LINE
  8
0
 10
63.2219
 20
19.3889
 11
62.4666
 21
20.0365
  0
LINE
  8
0
 10
62.4666
 20
20.0365
 11
61.687
 21
20.6548
  0
LINE
  8
0
 10
61.687
 20
20.6548
 11
60.8843
 21
21.2427
  0
LINE
  8
0
 10
60.8843
 20
21.2427
 11
60.0597
 21
21.7994
  0
LINE
  8
0
 10
60.0597
 20
21.7994
 11
59.2143
 21
22.3241
  0
LINE
  8
0
 10
59.2143
 20
22.3241
 11
58.3495
 21
22.8161
  0
LINE
  8
0
 10
58.3495
 20
22.8161
 11
57.4665
 21
23.2746
  0
LINE
  8
0
 10
57.4665
 20
23.2746
 11
56.5666
 21
23.6989
  0
LINE
  8
0
 10
56.5666
 20
23.6989
 11
55.651
 21
24.0884
  0
LINE
  8
0
 10
55.651
 20
24.0884
 11
54.7213
 21
24.4426
  0
LINE
  8
0
 10
54.7213
 20
24.4426
 11
53.7786
 21
24.7609
  0
LINE
  8
0
 10
53.7786
 20
24.7609
 11
52.8244
 21
25.0429
  0
LINE
  8
0
 10
52.8244
 20
25.0429
 11
51.8602
 21
25.2881
  0
LINE
  8
0
 10
51.8602
 20
25.2881
 11
50.8872
 21
25.4962
  0
LINE
  8
0
 10
50.8872
 20
25.4962
 11
49.907
 21
25.6669
  0
LINE
  8
0
 10
49.907
 20
25.6669
 11
48.921
 21
25.7999
  0
LINE
  8
0
 10
48.921
 20
25.7999
 11
47.9306
 21
25.8951
  0
LINE
  8
0
 10
47.9306
 20
25.8951
 11
46.9373
 21
25.9522
  0
LINE
  8
0
 10
46.9373
 20
25.9522
 11
45.9425
 21
25.9713
  0
LINE
  8
0
 10
45.9425
 20
25.9713
 11
44.9478
 21
25.9522
  0
LINE
  8
0
 10
44.9478
 20
25.9522
 11
43.9545
 21
25.8951
  0
LINE
  8
0
 10
43.9545
 20
25.8951
 11
42.9641
 21
25.7999
  0
LINE
  8
0
 10
42.9641
 20
25.7999
 11
41.978
 21
25.6669
  0
LINE
  8
0
 10
41.978
 20
25.6669
 11
40.9978
 21
25.4962
  0
LINE
  8
0
 10
40.9978
 20
25.4962
 11
40.0249
 21
25.2881
  0
LINE
  8
0
 10
40.0249
 20
25.2881
 11
39.0606
 21
25.0429
  0
LINE
  8
0
 10
39.0606
 20
25.0429
 11
38.1065
 21
24.7609
  0
LINE
  8
0
 10
38.1065
 20
24.7609
 11
37.1638
 21
24.4426
  0
LINE
  8
0
 10
37.1638
 20
24.4426
 11
36.234
 21
24.0884
  0
LINE
  8
0
 10
36.234
 20
24.0884
 11
35.3185
 21
23.6989
  0
LINE
  8
0
 10
35.3185
 20
23.6989
 11
34.4186
 21
23.2746
  0
LINE
  8
0
 10
34.4186
 20
23.2746
 11
33.5356
 21
22.8161
  0
LINE
  8
0
 10
33.5356
 20
22.8161
 11
32.6707
 21
22.3241
  0
LINE
  8
0
 10
32.6707
 20
22.3241
 11
31.8254
 21
21.7994
  0
LINE
  8
0
 10
31.8254
 20
21.7994
 11
31.0008
 21
21.2427
  0
LINE
  8
0
 10
31.0008
 20
21.2427
 11
30.1981
 21
20.6548
  0
LINE
  8
0
 10
30.1981
 20
20.6548
 11
29.4185
 21
20.0365
  0
LINE
  8
0
 10
29.4185
 20
20.0365
 11
28.6632
 21
19.3889
  0
LINE
  8
0
 10
28.6632
 20
19.3889
 11
27.9332
 21
18.7129
  0
LINE
  8
0
 10
27.9332
 20
18.7129
 11
27.2297
 21
18.0093
  0
LINE
  8
0
 10
27.2297
 20
18.0093
 11
26.5536
 21
17.2793
  0
LINE
  8
0
 10
26.5536
 20
17.2793
 11
25.906
 21
16.524
  0
LINE
  8
0
 10
25.906
 20
16.524
 11
25.2878
 21
15.7444
  0
LINE
  8
0
 10
25.2878
 20
15.7444
 11
24.6999
 21
14.9417
  0
LINE
  8
0
 10
24.6999
 20
14.9417
 11
24.1432
 21
14.1171
  0
LINE
  8
0
 10
24.1432
 20
14.1171
 11
23.6184
 21
13.2718
  0
LINE
  8
0
 10
23.6184
 20
13.2718
 11
23.1265
 21
12.407
  0
LINE
  8
0
 10
23.1265
 20
12.407
 11
22.668
 21
11.524
  0
LINE
  8
0
 10
22.668
 20
11.524
 11
22.2437
 21
10.624
  0
LINE
  8
0
 10
22.2437
 20
10.624
 11
21.8541
 21
9.7085
  0
LINE
  8
0
 10
21.8541
 20
9.7085
 11
21.4999
 21
8.77872
  0
LINE
  8
0
 10
21.4999
 20
8.77872
 11
21.1816
 21
7.83606
  0
LINE
  8
0
 10
21.1816
 20
7.83606
 11
20.8997
 21
6.8819
  0
LINE
  8
0
 10
20.8997
 20
6.8819
 11
20.6544
 21
5.91763
  0
LINE
  8
0
 10
20.6544
 20
5.91763
 11
20.4463
 21
4.94469
  0
LINE
  8
0
 10
20.4463
 20
4.94469
 11
20.2757
 21
3.96449
  0
LINE
  8
0
 10
20.2757
 20
3.96449
 11
20.1426
 21
2.97847
  0
LINE
  8
0
 10
20.1426
 20
2.97847
 11
20.0475
 21
1.98807
  0
LINE
  8
0
 10
20.0475
 20
1.98807
 11
19.9903
 21
0.994766
  0
LINE
  8
0
 10
19.9903
 20
0.994766
 11
19.9713
 21
0
  0
LINE
  8
0
 10
19.9713
 20
0
 11
19.9903
 21
-0.994766
  0
LINE
  8
0
 10
19.9903
 20
-0.994766
 11
20.0475
 21
-1.98807
  0
LINE
  8
0
 10
20.0475
 20
-1.98807
 11
20.1426
 21
-2.97847
  0
LINE
  8
0
 10
20.1426
 20
-2.97847
 11
20.2757
 21
-3.96449
  0
LINE
  8
0
 10
20.2757
 20
-3.96449
 11
20.4463
 21
-4.94469
  0
LINE
  8
0
 10
20.4463
 20
-4.94469
 11
20.6544
 21
-5.91763
  0
LINE
  8
0
 10
20.6544
 20
-5.91763
 11
20.8997
 21
-6.8819
  0
LINE
  8
0
 10
20.8997
 20
-6.8819
 11
21.1816
 21
-7.83606
  0
LINE
  8
0
 10
21.1816
 20
-7.83606
 11
21.4999
 21
-8.77872
  0
LINE
  8
0
 10
21.4999
 20
-8.77872
 11
21.8541
 21
-9.7085
  0
LINE
  8
0
 10
21.8541
 20
-9.7085
 11
22.2437
 21
-10.624
  0
LINE
  8
0
 10
22.2437
 20
-10.624
 11
22.668
 21
-11.524
  0
LINE
  8
0
 10
22.668
 20
-11.524
 11
23.1265
 21
-12.407
  0
LINE
  8
0
 10
23.1265
 20
-12.407
 11
23.6184
 21
-13.2718
  0
LINE
  8
0
 10
23.6184
 20
-13.2718
 11
24.1432
 21
-14.1171
  0
LINE
  8
0
 10
24.1432
 20
-14.1171
 11
24.6999
 21
-14.9417
  0
LINE
  8
0
 10
24.6999
 20
-14.9417
 11
25.2878
 21
-15.7444
  0
LINE
  8
0
 10
25.2878
 20
-15.7444
 11
25.906
 21
-16.524
  0
LINE
  8
0
 10
25.906
 20
-16.524
 11
26.5536
 21
-17.2793
  0
LINE
  8
0
 10
26.5536
 20
-17.2793
 11
27.2297
 21
-18.0093
  0
LINE
  8
0
 10
27.2297
 20
-18.0093
 11
27.9332
 21
-18.7129
  0
LINE
  8
0
 10
27.9332
 20
-18.7129
 11
28.6632
 21
-19.3889
  0
LINE
  8
0
 10
28.6632
 20
-19.3889
 11
29.4185
 21
-20.0365
  0
LINE
  8
0
 10
29.4185
 20
-20.0365
 11
30.1981
 21
-20.6548
  0
LINE
  8
0
 10
30.1981
 20
-20.6548
 11
31.0008
 21
-21.2427
  0
LINE
  8
0
 10
31.0008
 20
-21.2427
 11
31.8254
 21
-21.7994
  0
LINE
  8
0
 10
31.8254
 20
-21.7994
 11
32.6707
 21
-22.3241
  0
LINE
  8
0
 10
32.6707
 20
-22.3241
 11
33.5356
 21
-22.8161
  0
LINE
  8
0
 10
33.5356
 20
-22.8161
 11
34.4186
 21
-23.2746
  0
LINE
  8
0
 10
34.4186
 20
-23.2746
 11
35.3185
 21
-23.6989
  0
LINE
  8
0
 10
35.3185
 20
-23.6989
 11
36.234
 21
-24.0884
  0
LINE
  8
0
 10
36.234
 20
-24.0884
 11
37.1638
 21
-24.4426
  0
LINE
  8
0
 10
37.1638
 20
-24.4426
 11
38.1065
 21
-24.7609
  0
LINE
  8
0
 10
38.1065
 20
-24.7609
 11
39.0606
 21
-25.0429
  0
LINE
  8
0
 10
39.0606
 20
-25.0429
 11
40.0249
 21
-25.2881
  0
LINE
  8
0
 10
40.0249
 20
-25.2881
 11
40.9978
 21
-25.4962
  0
LINE
  8
0
 10
40.9978
 20
-25.4962
 11
41.978
 21
-25.6669
  0
LINE
  8
0
 10
41.978
 20
-25.6669
 11
42.9641
 21
-25.7999
  0
LINE
  8
0
 10
42.9641
 20
-25.7999
 11
43.9545
 21
-25.8951
  0
LINE
  8
0
 10
43.9545
 20
-25.8951
 11
44.9478
 21
-25.9522
  0
LINE
  8
0
 10
44.9478
 20
-25.9522
 11
45.9425
 21
-25.9713
  0
LINE
  8
0
 10
45.9425
 20
-25.9713
 11
46.9373
 21
-25.9522
  0
LINE
  8
0
 10
45.4447
 20
-4.7364
 11
44.4709
 21
-4.5294
  0
LINE
  8
0
 10
44.4709
 20
-4.5294
 11
43.5613
 21
-4.12444
  0
LINE
  8
0
 10
43.5613
 20
-4.12444
 11
42.7558
 21
-3.53922
  0
LINE
  8
0
 10
42.7558
 20
-3.53922
 11
42.0896
 21
-2.79932
  0
LINE
  8
0
 10
42.0896
 20
-2.79932
 11
41.5918
 21
-1.93707
  0
LINE
  8
0
 10
41.5918
 20
-1.93707
 11
41.2841
 21
-0.990173
  0
LINE
  8
0
 10
41.2841
 20
-0.990173
 11
41.18
 21
0
  0
LINE
  8
0
 10
41.18
 20
0
 11
41.2841
 21
0.990173
  0
LINE
  8
0
 10
41.2841
 20
0.990173
 11
41.5918
 21
1.93707
  0
LINE
  8
0
 10
41.5918
 20
1.93707
 11
42.0896
 21
2.79932
  0
LINE
  8
0
 10
42.0896
 20
2.79932
 11
42.7558
 21
3.53922
  0
LINE
  8
0
 10
42.7558
 20
3.53922
 11
43.5613
 21
4.12444
  0
LINE
  8
0
 10
43.5613
 20
4.12444
 11
44.4709
 21
4.5294
  0
LINE
  8
0
 10
44.4709
 20
4.5294
 11
45.4447
 21
4.7364
  0
LINE
  8
0
 10
45.4447
 20
4.7364
 11
46.4403
 21
4.7364
  0
LINE
  8
0
 10
46.4403
 20
4.7364
 11
47.4142
 21
4.5294
  0
LINE
  8
0
 10
47.4142
 20
4.5294
 11
48.3238
 21
4.12444
  0
LINE
  8
0
 10
48.3238
 20
4.12444
 11
49.1293
 21
3.53922
  0
LINE
  8
0
 10
49.1293
 20
3.53922
 11
49.7955
 21
2.79932
  0
LINE
  8
0
 10
49.7955
 20
2.79932
 11
50.2933
 21
1.93707
  0
LINE
  8
0
 10
50.2933
 20
1.93707
 11
50.601
 21
0.990173
  0
LINE
  8
0
 10
50.601
 20
0.990173
 11
50.705
 21
0
  0
LINE
  8
0
 10
50.705
 20
0
 11
50.601
 21
-0.990173
  0
LINE
  8
0
 10
50.601
 20
-0.990173
 11
50.2933
 21
-1.93707
  0
LINE
  8
0
 10
50.2933
 20
-1.93707
 11
49.7955
 21
-2.79932
  0
LINE
  8
0
 10
49.7955
 20
-2.79932
 11
49.1293
 21
-3.53922
  0
LINE
  8
0
 10
49.1293
 20
-3.53922
 11
48.3238
 21
-4.12444
  0
LINE
  8
0
 10
48.3238
 20
-4.12444
 11
47.4142
 21
-4.5294
  0
LINE
  8
0
 10
47.4142
 20
-4.5294
 11
46.4403
 21
-4.7364
  0
LINE
  8
0
 10
46.4403
 20
-4.7364
 11
45.4447
 21
-4.7364
  0
LINE
  8
0
 10
-2.32799
 20
-18.4764
 11
-1.92545
 21
-17.5723
  0
LINE
  8
0
 10
-1.92545
 20
-17.5723
 11
-1.18999
 21
-16.9101
  0
LINE
  8
0
 10
-1.18999
 20
-16.9101
 11
-0.248764
 21
-16.6043
  0
LINE
  8
0
 10
-0.248764
 20
-16.6043
 11
0.735458
 21
-16.7077
  0
LINE
  8
0
 10
0.735458
 20
-16.7077
 11
1.59253
 21
-17.2026
  0
LINE
  8
0
 10
1.59253
 20
-17.2026
 11
2.17422
 21
-18.0032
  0
LINE
  8
0
 10
2.17422
 20
-18.0032
 11
2.34769
 21
-18.8193
  0
LINE
  8
0
 10
2.34769
 20
-18.8193
 11
2.96776
 21
-18.7377
  0
LINE
  8
0
 10
2.96776
 20
-18.7377
 11
3.57355
 21
-18.6254
  0
LINE
  8
0
 10
3.57355
 20
-18.6254
 11
3.53444
 21
-18.5376
  0
LINE
  8
0
 10
3.53444
 20
-18.5376
 11
3.53444
 21
-17.5479
  0
LINE
  8
0
 10
3.53444
 20
-17.5479
 11
3.93698
 21
-16.6438
  0
LINE
  8
0
 10
3.93698
 20
-16.6438
 11
4.67244
 21
-15.9816
  0
LINE
  8
0
 10
4.67244
 20
-15.9816
 11
5.61366
 21
-15.6758
  0
LINE
  8
0
 10
5.61366
 20
-15.6758
 11
6.5979
 21
-15.7792
  0
LINE
  8
0
 10
6.5979
 20
-15.7792
 11
7.45497
 21
-16.2741
  0
LINE
  8
0
 10
7.45497
 20
-16.2741
 11
8.03668
 21
-17.0747
  0
LINE
  8
0
 10
8.03668
 20
-17.0747
 11
8.05667
 21
-17.1688
  0
LINE
  8
0
 10
8.05667
 20
-17.1688
 11
8.61276
 21
-16.9035
  0
LINE
  8
0
 10
8.61276
 20
-16.9035
 11
9.1624
 21
-16.6051
  0
LINE
  8
0
 10
9.1624
 20
-16.6051
 11
8.82303
 21
-15.8429
  0
LINE
  8
0
 10
8.82303
 20
-15.8429
 11
8.82303
 21
-14.8532
  0
LINE
  8
0
 10
8.82303
 20
-14.8532
 11
9.22557
 21
-13.9491
  0
LINE
  8
0
 10
9.22557
 20
-13.9491
 11
9.96103
 21
-13.2869
  0
LINE
  8
0
 10
9.96103
 20
-13.2869
 11
10.9023
 21
-12.9811
  0
LINE
  8
0
 10
10.9023
 20
-12.9811
 11
11.8865
 21
-13.0846
  0
LINE
  8
0
 10
11.8865
 20
-13.0846
 11
12.7436
 21
-13.5794
  0
LINE
  8
0
 10
12.7436
 20
-13.5794
 11
12.9466
 21
-13.8589
  0
LINE
  8
0
 10
12.9466
 20
-13.8589
 11
13.4147
 21
-13.4147
  0
LINE
  8
0
 10
13.4147
 20
-13.4147
 11
13.8609
 21
-12.9445
  0
LINE
  8
0
 10
13.8609
 20
-12.9445
 11
13.4226
 21
-12.55
  0
LINE
  8
0
 10
13.4226
 20
-12.55
 11
13.0201
 21
-11.6459
  0
LINE
  8
0
 10
13.0201
 20
-11.6459
 11
13.0201
 21
-10.6562
  0
LINE
  8
0
 10
13.0201
 20
-10.6562
 11
13.4226
 21
-9.75209
  0
LINE
  8
0
 10
13.4226
 20
-9.75209
 11
14.1581
 21
-9.08989
  0
LINE
  8
0
 10
14.1581
 20
-9.08989
 11
15.0993
 21
-8.78406
  0
LINE
  8
0
 10
15.0993
 20
-8.78406
 11
16.0835
 21
-8.88751
  0
LINE
  8
0
 10
16.0835
 20
-8.88751
 11
16.5943
 21
-9.18237
  0
LINE
  8
0
 10
16.5943
 20
-9.18237
 11
16.9035
 21
-8.61276
  0
LINE
  8
0
 10
16.9035
 20
-8.61276
 11
17.1813
 21
-8.03035
  0
LINE
  8
0
 10
17.1813
 20
-8.03035
 11
16.8527
 21
-7.92358
  0
LINE
  8
0
 10
16.8527
 20
-7.92358
 11
16.1173
 21
-7.26137
  0
LINE
  8
0
 10
16.1173
 20
-7.26137
 11
15.7148
 21
-6.35727
  0
LINE
  8
0
 10
15.7148
 20
-6.35727
 11
15.7148
 21
-5.36761
  0
LINE
  8
0
 10
15.7148
 20
-5.36761
 11
16.1173
 21
-4.4635
  0
LINE
  8
0
 10
16.1173
 20
-4.4635
 11
16.8527
 21
-3.8013
  0
LINE
  8
0
 10
16.8527
 20
-3.8013
 11
17.794
 21
-3.49547
  0
LINE
  8
0
 10
17.794
 20
-3.49547
 11
18.6237
 21
-3.58269
  0
LINE
  8
0
 10
18.6237
 20
-3.58269
 11
18.7377
 21
-2.96776
  0
LINE
  8
0
 10
18.7377
 20
-2.96776
 11
18.8181
 21
-2.3569
  0
LINE
  8
0
 10
18.8181
 20
-2.3569
 11
18.7225
 21
-2.36696
  0
LINE
  8
0
 10
18.7225
 20
-2.36696
 11
17.7813
 21
-2.06113
  0
LINE
  8
0
 10
17.7813
 20
-2.06113
 11
17.0458
 21
-1.39893
  0
LINE
  8
0
 10
17.0458
 20
-1.39893
 11
16.6433
 21
-0.494827
  0
LINE
  8
0
 10
16.6433
 20
-0.494827
 11
16.6433
 21
0.494827
  0
LINE
  8
0
 10
16.6433
 20
0.494827
 11
17.0458
 21
1.39893
  0
LINE
  8
0
 10
17.0458
 20
1.39893
 11
17.7813
 21
2.06113
  0
LINE
  8
0
 10
17.7813
 20
2.06113
 11
18.7225
 21
2.36696
  0
LINE
  8
0
 10
18.7225
 20
2.36696
 11
18.8181
 21
2.3569
  0
LINE
  8
0
 10
18.8181
 20
2.3569
 11
18.7377
 21
2.96776
  0
LINE
  8
0
 10
18.7377
 20
2.96776
 11
18.6237
 21
3.58269
  0
LINE
  8
0
 10
18.6237
 20
3.58269
 11
17.794
 21
3.49547
  0
LINE
  8
0
 10
17.794
 20
3.49547
 11
16.8527
 21
3.8013
  0
LINE
  8
0
 10
16.8527
 20
3.8013
 11
16.1173
 21
4.4635
  0
LINE
  8
0
 10
16.1173
 20
4.4635
 11
15.7148
 21
5.36761
  0
LINE
  8
0
 10
15.7148
 20
5.36761
 11
15.7148
 21
6.35727
  0
LINE
  8
0
 10
15.7148
 20
6.35727
 11
16.1173
 21
7.26137
  0
LINE
  8
0
 10
16.1173
 20
7.26137
 11
16.8527
 21
7.92358
  0
LINE
  8
0
 10
16.8527
 20
7.92358
 11
17.1813
 21
8.03035
  0
LINE
  8
0
 10
17.1813
 20
8.03035
 11
16.9035
 21
8.61276
  0
LINE
  8
0
 10
16.9035
 20
8.61276
 11
16.5943
 21
9.18237
  0
LINE
  8
0
 10
16.5943
 20
9.18237
 11
16.0835
 21
8.88751
  0
LINE
  8
0
 10
16.0835
 20
8.88751
 11
15.0993
 21
8.78406
  0
LINE
  8
0
 10
15.0993
 20
8.78406
 11
14.1581
 21
9.08989
  0
LINE
  8
0
 10
14.1581
 20
9.08989
 11
13.4226
 21
9.75209
  0
LINE
  8
0
 10
13.4226
 20
9.75209
 11
13.0201
 21
10.6562
  0
LINE
  8
0
 10
13.0201
 20
10.6562
 11
13.0201
 21
11.6459
  0
LINE
  8
0
 10
13.0201
 20
11.6459
 11
13.4226
 21
12.55
  0
LINE
  8
0
 10
13.4226
 20
12.55
 11
13.8609
 21
12.9445
  0
LINE
  8
0
 10
13.8609
 20
12.9445
 11
13.4147
 21
13.4147
  0
LINE
  8
0
 10
13.4147
 20
13.4147
 11
12.9466
 21
13.8589
  0
LINE
  8
0
 10
12.9466
 20
13.8589
 11
12.7436
 21
13.5794
  0
LINE
  8
0
 10
12.7436
 20
13.5794
 11
11.8865
 21
13.0846
  0
LINE
  8
0
 10
11.8865
 20
13.0846
 11
10.9023
 21
12.9811
  0
LINE
  8
0
 10
10.9023
 20
12.9811
 11
9.96103
 21
13.2869
  0
LINE
  8
0
 10
9.96103
 20
13.2869
 11
9.22557
 21
13.9491
  0
LINE
  8
0
 10
9.22557
 20
13.9491
 11
8.82303
 21
14.8532
  0
LINE
  8
0
 10
8.82303
 20
14.8532
 11
8.82303
 21
15.8429
  0
LINE
  8
0
 10
8.82303
 20
15.8429
 11
9.1624
 21
16.6051
  0
LINE
  8
0
 10
9.1624
 20
16.6051
 11
8.61276
 21
16.9035
  0
LINE
  8
0
 10
8.61276
 20
16.9035
 11
8.05667
 21
17.1688
  0
LINE
  8
0
 10
8.05667
 20
17.1688
 11
8.03668
 21
17.0747
  0
LINE
  8
0
 10
8.03668
 20
17.0747
 11
7.45497
 21
16.2741
  0
LINE
  8
0
 10
7.45497
 20
16.2741
 11
6.5979
 21
15.7792
  0
LINE
  8
0
 10
6.5979
 20
15.7792
 11
5.61366
 21
15.6758
  0
LINE
  8
0
 10
5.61366
 20
15.6758
 11
4.67244
 21
15.9816
  0
LINE
  8
0
 10
4.67244
 20
15.9816
 11
3.93698
 21
16.6438
  0
LINE
  8
0
 10
3.93698
 20
16.6438
 11
3.53444
 21
17.5479
  0
LINE
  8
0
 10
3.53444
 20
17.5479
 11
3.53444
 21
18.5376
  0
LINE
  8
0
 10
3.53444
 20
18.5376
 11
3.57355
 21
18.6254
  0
LINE
  8
0
 10
3.57355
 20
18.6254
 11
2.96776
 21
18.7377
  0
LINE
  8
0
 10
2.96776
 20
18.7377
 11
2.34769
 21
18.8193
  0
LINE
  8
0
 10
2.34769
 20
18.8193
 11
2.17422
 21
18.0032
  0
LINE
  8
0
 10
2.17422
 20
18.0032
 11
1.59253
 21
17.2026
  0
LINE
  8
0
 10
1.59253
 20
17.2026
 11
0.735458
 21
16.7077
  0
LINE
  8
0
 10
0.735458
 20
16.7077
 11
-0.248764
 21
16.6043
  0
LINE
  8
0
 10
-0.248764
 20
16.6043
 11
-1.18999
 21
16.9101
  0
LINE
  8
0
 10
-1.18999
 20
16.9101
 11
-1.92545
 21
17.5723
  0
LINE
  8
0
 10
-1.92545
 20
17.5723
 11
-2.32799
 21
18.4764
  0
LINE
  8
0
 10
-2.32799
 20
18.4764
 11
-2.32799
 21
18.8219
  0
LINE
  8
0
 10
-2.32799
 20
18.8219
 11
-2.96776
 21
18.7377
  0
LINE
  8
0
 10
-2.96776
 20
18.7377
 11
-3.60504
 21
18.6196
  0
LINE
  8
0
 10
-3.60504
 20
18.6196
 11
-3.48244
 21
18.0427
  0
LINE
  8
0
 10
-3.48244
 20
18.0427
 11
-3.6882
 21
17.0747
  0
LINE
  8
0
 10
-3.6882
 20
17.0747
 11
-4.26991
 21
16.2741
  0
LINE
  8
0
 10
-4.26991
 20
16.2741
 11
-5.12698
 21
15.7792
  0
LINE
  8
0
 10
-5.12698
 20
15.7792
 11
-6.11122
 21
15.6758
  0
LINE
  8
0
 10
-6.11122
 20
15.6758
 11
-7.05244
 21
15.9816
  0
LINE
  8
0
 10
-7.05244
 20
15.9816
 11
-7.7879
 21
16.6438
  0
LINE
  8
0
 10
-7.7879
 20
16.6438
 11
-8.02777
 21
17.1826
  0
LINE
  8
0
 10
-8.02777
 20
17.1826
 11
-8.61276
 21
16.9035
  0
LINE
  8
0
 10
-8.61276
 20
16.9035
 11
-9.17986
 21
16.5956
  0
LINE
  8
0
 10
-9.17986
 20
16.5956
 11
-8.97679
 21
16.3161
  0
LINE
  8
0
 10
-8.97679
 20
16.3161
 11
-8.77103
 21
15.3481
  0
LINE
  8
0
 10
-8.77103
 20
15.3481
 11
-8.97679
 21
14.38
  0
LINE
  8
0
 10
-8.97679
 20
14.38
 11
-9.55849
 21
13.5794
  0
LINE
  8
0
 10
-9.55849
 20
13.5794
 11
-10.4156
 21
13.0846
  0
LINE
  8
0
 10
-10.4156
 20
13.0846
 11
-11.3998
 21
12.9811
  0
LINE
  8
0
 10
-11.3998
 20
12.9811
 11
-12.341
 21
13.2869
  0
LINE
  8
0
 10
-12.341
 20
13.2869
 11
-12.961
 21
13.8452
  0
LINE
  8
0
 10
-12.961
 20
13.8452
 11
-13.4147
 21
13.4147
  0
LINE
  8
0
 10
-13.4147
 20
13.4147
 11
-13.8388
 21
12.9678
  0
LINE
  8
0
 10
-13.8388
 20
12.9678
 11
-13.7555
 21
12.9197
  0
LINE
  8
0
 10
-13.7555
 20
12.9197
 11
-13.1738
 21
12.1191
  0
LINE
  8
0
 10
-13.1738
 20
12.1191
 11
-12.9681
 21
11.151
  0
LINE
  8
0
 10
-12.9681
 20
11.151
 11
-13.1738
 21
10.183
  0
LINE
  8
0
 10
-13.1738
 20
10.183
 11
-13.7555
 21
9.38234
  0
LINE
  8
0
 10
-13.7555
 20
9.38234
 11
-14.6126
 21
8.88751
  0
LINE
  8
0
 10
-14.6126
 20
8.88751
 11
-15.5968
 21
8.78406
  0
LINE
  8
0
 10
-15.5968
 20
8.78406
 11
-16.5381
 21
9.08989
  0
LINE
  8
0
 10
-16.5381
 20
9.08989
 11
-16.6095
 21
9.15424
  0
LINE
  8
0
 10
-16.6095
 20
9.15424
 11
-16.9035
 21
8.61276
  0
LINE
  8
0
 10
-16.9035
 20
8.61276
 11
-17.1728
 21
8.04828
  0
LINE
  8
0
 10
-17.1728
 20
8.04828
 11
-16.4502
 21
7.63112
  0
LINE
  8
0
 10
-16.4502
 20
7.63112
 11
-15.8685
 21
6.83047
  0
LINE
  8
0
 10
-15.8685
 20
6.83047
 11
-15.6627
 21
5.86244
  0
LINE
  8
0
 10
-15.6627
 20
5.86244
 11
-15.8685
 21
4.89441
  0
LINE
  8
0
 10
-15.8685
 20
4.89441
 11
-16.4502
 21
4.09375
  0
LINE
  8
0
 10
-16.4502
 20
4.09375
 11
-17.3073
 21
3.59892
  0
LINE
  8
0
 10
-17.3073
 20
3.59892
 11
-18.2915
 21
3.49547
  0
LINE
  8
0
 10
-18.2915
 20
3.49547
 11
-18.6201
 21
3.60223
  0
LINE
  8
0
 10
-18.6201
 20
3.60223
 11
-18.7377
 21
2.96776
  0
LINE
  8
0
 10
-18.7377
 20
2.96776
 11
-18.8223
 21
2.32515
  0
LINE
  8
0
 10
-18.8223
 20
2.32515
 11
-18.2358
 21
2.2635
  0
LINE
  8
0
 10
-18.2358
 20
2.2635
 11
-17.3787
 21
1.76868
  0
LINE
  8
0
 10
-17.3787
 20
1.76868
 11
-16.797
 21
0.968033
  0
LINE
  8
0
 10
-16.797
 20
0.968033
 11
-16.5913
 21
0
  0
LINE
  8
0
 10
-16.5913
 20
0
 11
-16.797
 21
-0.968033
  0
LINE
  8
0
 10
-16.797
 20
-0.968033
 11
-17.3787
 21
-1.76868
  0
LINE
  8
0
 10
-17.3787
 20
-1.76868
 11
-18.2358
 21
-2.2635
  0
LINE
  8
0
 10
-18.2358
 20
-2.2635
 11
-18.8223
 21
-2.32515
  0
LINE
  8
0
 10
-18.8223
 20
-2.32515
 11
-18.7377
 21
-2.96776
  0
LINE
  8
0
 10
-18.7377
 20
-2.96776
 11
-18.6201
 21
-3.60223
  0
LINE
  8
0
 10
-18.6201
 20
-3.60223
 11
-18.2915
 21
-3.49547
  0
LINE
  8
0
 10
-18.2915
 20
-3.49547
 11
-17.3073
 21
-3.59892
  0
LINE
  8
0
 10
-17.3073
 20
-3.59892
 11
-16.4502
 21
-4.09375
  0
LINE
  8
0
 10
-16.4502
 20
-4.09375
 11
-15.8685
 21
-4.89441
  0
LINE
  8
0
 10
-15.8685
 20
-4.89441
 11
-15.6627
 21
-5.86244
  0
LINE
  8
0
 10
-15.6627
 20
-5.86244
 11
-15.8685
 21
-6.83047
  0
LINE
  8
0
 10
-15.8685
 20
-6.83047
 11
-16.4502
 21
-7.63112
  0
LINE
  8
0
 10
-16.4502
 20
-7.63112
 11
-17.1728
 21
-8.04828
  0
LINE
  8
0
 10
-17.1728
 20
-8.04828
 11
-16.9035
 21
-8.61276
  0
LINE
  8
0
 10
-16.9035
 20
-8.61276
 11
-16.6095
 21
-9.15424
  0
LINE
  8
0
 10
-16.6095
 20
-9.15424
 11
-16.5381
 21
-9.08989
  0
LINE
  8
0
 10
-16.5381
 20
-9.08989
 11
-15.5968
 21
-8.78406
  0
LINE
  8
0
 10
-15.5968
 20
-8.78406
 11
-14.6126
 21
-8.88751
  0
LINE
  8
0
 10
-14.6126
 20
-8.88751
 11
-13.7555
 21
-9.38234
  0
LINE
  8
0
 10
-13.7555
 20
-9.38234
 11
-13.1738
 21
-10.183
  0
LINE
  8
0
 10
-13.1738
 20
-10.183
 11
-12.9681
 21
-11.151
  0
LINE
  8
0
 10
-12.9681
 20
-11.151
 11
-13.1738
 21
-12.1191
  0
LINE
  8
0
 10
-13.1738
 20
-12.1191
 11
-13.7555
 21
-12.9197
  0
LINE
  8
0
 10
-13.7555
 20
-12.9197
 11
-13.8388
 21
-12.9678
  0
LINE
  8
0
 10
-13.8388
 20
-12.9678
 11
-13.4147
 21
-13.4147
  0
LINE
  8
0
 10
-13.4147
 20
-13.4147
 11
-12.961
 21
-13.8452
  0
LINE
  8
0
 10
-12.961
 20
-13.8452
 11
-12.341
 21
-13.2869
  0
LINE
  8
0
 10
-12.341
 20
-13.2869
 11
-11.3998
 21
-12.9811
  0
LINE
  8
0
 10
-11.3998
 20
-12.9811
 11
-10.4156
 21
-13.0846
  0
LINE
  8
0
 10
-10.4156
 20
-13.0846
 11
-9.55849
 21
-13.5794
  0
LINE
  8
0
 10
-9.55849
 20
-13.5794
 11
-8.97679
 21
-14.38
  0
LINE
  8
0
 10
-8.97679
 20
-14.38
 11
-8.77103
 21
-15.3481
  0
LINE
  8
0
 10
-8.77103
 20
-15.3481
 11
-8.97679
 21
-16.3161
  0
LINE
  8
0
 10
-8.97679
 20
-16.3161
 11
-9.17986
 21
-16.5956
  0
LINE
  8
0
 10
-9.17986
 20
-16.5956
 11
-8.61276
 21
-16.9035
  0
LINE
  8
0
 10
-8.61276
 20
-16.9035
 11
-8.02777
 21
-17.1826
  0
LINE
  8
0
 10
-8.02777
 20
-17.1826
 11
-7.7879
 21
-16.6438
  0
LINE
  8
0
 10
-7.7879
 20
-16.6438
 11
-7.05244
 21
-15.9816
  0
LINE
  8
0
 10
-7.05244
 20
-15.9816
 11
-6.11122
 21
-15.6758
  0
LINE
  8
0
 10
-6.11122
 20
-15.6758
 11
-5.12698
 21
-15.7792
  0
LINE
  8
0
 10
-5.12698
 20
-15.7792
 11
-4.26991
 21
-16.2741
  0
LINE
  8
0
 10
-4.26991
 20
-16.2741
 11
-3.6882
 21
-17.0747
  0
LINE
  8
0
 10
-3.6882
 20
-17.0747
 11
-3.48244
 21
-18.0427
  0
LINE
  8
0
 10
-3.48244
 20
-18.0427
 11
-3.60504
 21
-18.6196
  0
LINE
  8
0
 10
-3.60504
 20
-18.6196
 11
-2.96776
 21
-18.7377
  0
LINE
  8
0
 10
-2.96776
 20
-18.7377
 11
-2.32799
 21
-18.8219
  0
LINE
  8
0
 10
-2.32799
 20
-18.8219
 11
-2.32799
 21
-18.4764
  0
LINE
  8
0
 10
-0.497803
 20
-4.7364
 11
-1.47168
 21
-4.5294
  0
LINE
  8
0
 10
-1.47168
 20
-4.5294
 11
-2.38124
 21
-4.12444
  0
LINE
  8
0
 10
-2.38124
 20
-4.12444
 11
-3.18672
 21
-3.53922
  0
LINE
  8
0
 10
-3.18672
 20
-3.53922
 11
-3.85294
 21
-2.79932
  0
LINE
  8
0
 10
-3.85294
 20
-2.79932
 11
-4.35075
 21
-1.93707
  0
LINE
  8
0
 10
-4.35075
 20
-1.93707
 11
-4.65842
 21
-0.990173
  0
LINE
  8
0
 10
-4.65842
 20
-0.990173
 11
-4.7625
 21
0
  0
LINE
  8
0
 10
-4.7625
 20
0
 11
-4.65842
 21
0.990173
  0
LINE
  8
0
 10
-4.65842
 20
0.990173
 11
-4.35075
 21
1.93707
  0
LINE
  8
0
 10
-4.35075
 20
1.93707
 11
-3.85294
 21
2.79932
  0
LINE
  8
0
 10
-3.85294
 20
2.79932
 11
-3.18672
 21
3.53922
  0
LINE
  8
0
 10
-3.18672
 20
3.53922
 11
-2.38124
 21
4.12444
  0
LINE
  8
0
 10
-2.38124
 20
4.12444
 11
-1.47168
 21
4.5294
  0
LINE
  8
0
 10
-1.47168
 20
4.5294
 11
-0.497803
 21
4.7364
  0
LINE
  8
0
 10
-0.497803
 20
4.7364
 11
0.497803
 21
4.7364
  0
LINE
  8
0
 10
0.497803
 20
4.7364
 11
1.47168
 21
4.5294
  0
LINE
  8
0
 10
1.47168
 20
4.5294
 11
2.38124
 21
4.12444
  0
LINE
  8
0
 10
2.38124
 20
4.12444
 11
3.18672
 21
3.53922
  0
LINE
  8
0
 10
3.18672
 20
3.53922
 11
3.85294
 21
2.79932
  0
LINE
  8
0
 10
3.85294
 20
2.79932
 11
4.35075
 21
1.93707
  0
LINE
  8
0
 10
4.35075
 20
1.93707
 11
4.65842
 21
0.990173
  0
LINE
  8
0
 10
4.65842
 20
0.990173
 11
4.7625
 21
0
  0
LINE
  8
0
 10
4.7625
 20
0
 11
4.65842
 21
-0.990173
  0
LINE
  8
0
 10
4.65842
 20
-0.990173
 11
4.35075
 21
-1.93707
  0
LINE
  8
0
 10
4.35075
 20
-1.93707
 11
3.85294
 21
-2.79932
  0
LINE
  8
0
 10
3.85294
 20
-2.79932
 11
3.18672
 21
-3.53922
  0
LINE
  8
0
 10
3.18672
 20
-3.53922
 11
2.38124
 21
-4.12444
  0
LINE
  8
0
 10
2.38124
 20
-4.12444
 11
1.47168
 21
-4.5294
  0
LINE
  8
0
 10
1.47168
 20
-4.5294
 11
0.497803
 21
-4.7364
  0
LINE
  8
0
 10
0.497803
 20
-4.7364
 11
-0.497803
 21
-4.7364
  0
ENDSEC
  0
SECTION
  2
OBJECTS
  0
DICTIONARY
  0
ENDSEC
  0
EOF
