  0
SECTION
  2
BLOCKS
  0
ENDSEC
  0
SECTION
  2
ENTITIES
  0
LINE
  8
0
 10
107.52
 20
-27.8634
 11
108.514
 21
-27.8101
  0
LINE
  8
0
 10
108.514
 20
-27.8101
 11
109.505
 21
-27.7214
  0
LINE
  8
0
 10
109.505
 20
-27.7214
 11
110.492
 21
-27.5973
  0
LINE
  8
0
 10
110.492
 20
-27.5973
 11
111.475
 21
-27.4381
  0
LINE
  8
0
 10
111.475
 20
-27.4381
 11
112.451
 21
-27.2439
  0
LINE
  8
0
 10
112.451
 20
-27.2439
 11
113.42
 21
-27.0151
  0
LINE
  8
0
 10
113.42
 20
-27.0151
 11
114.38
 21
-26.7517
  0
LINE
  8
0
 10
114.38
 20
-26.7517
 11
115.329
 21
-26.4543
  0
LINE
  8
0
 10
115.329
 20
-26.4543
 11
116.268
 21
-26.1232
  0
LINE
  8
0
 10
116.268
 20
-26.1232
 11
117.194
 21
-25.7588
  0
LINE
  8
0
 10
117.194
 20
-25.7588
 11
118.107
 21
-25.3616
  0
LINE
  8
0
 10
118.107
 20
-25.3616
 11
119.005
 21
-24.932
  0
LINE
  8
0
 10
119.005
 20
-24.932
 11
119.887
 21
-24.4707
  0
LINE
  8
0
 10
119.887
 20
-24.4707
 11
120.751
 21
-23.9782
  0
LINE
  8
0
 10
120.751
 20
-23.9782
 11
121.598
 21
-23.4551
  0
LINE
  8
0
 10
121.598
 20
-23.4551
 11
122.426
 21
-22.9021
  0
LINE
  8
0
 10
122.426
 20
-22.9021
 11
123.233
 21
-22.32
  0
LINE
  8
0
 10
123.233
 20
-22.32
 11
124.019
 21
-21.7094
  0
LINE
  8
0
 10
124.019
 20
-21.7094
 11
124.783
 21
-21.0711
  0
LINE
  8
0
 10
124.783
 20
-21.0711
 11
125.523
 21
-20.406
  0
LINE
  8
0
 10
125.523
 20
-20.406
 11
126.239
 21
-19.7149
  0
LINE
  8
0
 10
126.239
 20
-19.7149
 11
126.931
 21
-18.9987
  0
LINE
  8
0
 10
126.931
 20
-18.9987
 11
127.596
 21
-18.2583
  0
LINE
  8
0
 10
127.596
 20
-18.2583
 11
128.234
 21
-17.4945
  0
LINE
  8
0
 10
128.234
 20
-17.4945
 11
128.844
 21
-16.7085
  0
LINE
  8
0
 10
128.844
 20
-16.7085
 11
129.427
 21
-15.9012
  0
LINE
  8
0
 10
129.427
 20
-15.9012
 11
129.98
 21
-15.0737
  0
LINE
  8
0
 10
129.98
 20
-15.0737
 11
130.503
 21
-14.2269
  0
LINE
  8
0
 10
130.503
 20
-14.2269
 11
130.995
 21
-13.362
  0
LINE
  8
0
 10
130.995
 20
-13.362
 11
131.457
 21
-12.4801
  0
LINE
  8
0
 10
131.457
 20
-12.4801
 11
131.886
 21
-11.5822
  0
LINE
  8
0
 10
131.886
 20
-11.5822
 11
132.283
 21
-10.6696
  0
LINE
  8
0
 10
132.283
 20
-10.6696
 11
132.648
 21
-9.74345
  0
LINE
  8
0
 10
132.648
 20
-9.74345
 11
132.979
 21
-8.80484
  0
LINE
  8
0
 10
132.979
 20
-8.80484
 11
133.276
 21
-7.85501
  0
LINE
  8
0
 10
133.276
 20
-7.85501
 11
133.54
 21
-6.89517
  0
LINE
  8
0
 10
133.54
 20
-6.89517
 11
133.768
 21
-5.92656
  0
LINE
  8
0
 10
133.768
 20
-5.92656
 11
133.963
 21
-4.95038
  0
LINE
  8
0
 10
133.963
 20
-4.95038
 11
134.122
 21
-3.9679
  0
LINE
  8
0
 10
134.122
 20
-3.9679
 11
134.246
 21
-2.98035
  0
LINE
  8
0
 10
134.246
 20
-2.98035
 11
134.335
 21
-1.98901
  0
LINE
  8
0
 10
134.335
 20
-1.98901
 11
134.388
 21
-0.995132
  0
LINE
  8
0
 10
134.388
 20
-0.995132
 11
134.406
 21
0
  0
LINE
  8
0
 10
134.406
 20
0
 11
134.388
 21
0.995132
  0
LINE
  8
0
 10
134.388
 20
0.995132
 11
134.335
 21
1.98901
  0
LINE
  8
0
 10
134.335
 20
1.98901
 11
134.246
 21
2.98035
  0
LINE
  8
0
 10
134.246
 20
2.98035
 11
134.122
 21
3.9679
  0
LINE
  8
0
 10
134.122
 20
3.9679
 11
133.963
 21
4.95038
  0
LINE
  8
0
 10
133.963
 20
4.95038
 11
133.768
 21
5.92656
  0
LINE
  8
0
 10
133.768
 20
5.92656
 11
133.54
 21
6.89517
  0
LINE
  8
0
 10
133.54
 20
6.89517
 11
133.276
 21
7.85501
  0
LINE
  8
0
 10
133.276
 20
7.85501
 11
132.979
 21
8.80484
  0
LINE
  8
0
 10
132.979
 20
8.80484
 11
132.648
 21
9.74345
  0
LINE
  8
0
 10
132.648
 20
9.74345
 11
132.283
 21
10.6696
  0
LINE
  8
0
 10
132.283
 20
10.6696
 11
131.886
 21
11.5822
  0
LINE
  8
0
 10
131.886
 20
11.5822
 11
131.457
 21
12.4801
  0
LINE
  8
0
 10
131.457
 20
12.4801
 11
130.995
 21
13.362
  0
LINE
  8
0
 10
130.995
 20
13.362
 11
130.503
 21
14.2269
  0
LINE
  8
0
 10
130.503
 20
14.2269
 11
129.98
 21
15.0737
  0
LINE
  8
0
 10
129.98
 20
15.0737
 11
129.427
 21
15.9012
  0
LINE
  8
0
 10
129.427
 20
15.9012
 11
128.844
 21
16.7085
  0
LINE
  8
0
 10
128.844
 20
16.7085
 11
128.234
 21
17.4945
  0
LINE
  8
0
 10
128.234
 20
17.4945
 11
127.596
 21
18.2583
  0
LINE
  8
0
 10
127.596
 20
18.2583
 11
126.931
 21
18.9987
  0
LINE
  8
0
 10
126.931
 20
18.9987
 11
126.239
 21
19.7149
  0
LINE
  8
0
 10
126.239
 20
19.7149
 11
125.523
 21
20.406
  0
LINE
  8
0
 10
125.523
 20
20.406
 11
124.783
 21
21.0711
  0
LINE
  8
0
 10
124.783
 20
21.0711
 11
124.019
 21
21.7094
  0
LINE
  8
0
 10
124.019
 20
21.7094
 11
123.233
 21
22.32
  0
LINE
  8
0
 10
123.233
 20
22.32
 11
122.426
 21
22.9021
  0
LINE
  8
0
 10
122.426
 20
22.9021
 11
121.598
 21
23.4551
  0
LINE
  8
0
 10
121.598
 20
23.4551
 11
120.751
 21
23.9782
  0
LINE
  8
0
 10
120.751
 20
23.9782
 11
119.887
 21
24.4707
  0
LINE
  8
0
 10
119.887
 20
24.4707
 11
119.005
 21
24.932
  0
LINE
  8
0
 10
119.005
 20
24.932
 11
118.107
 21
25.3616
  0
LINE
  8
0
 10
118.107
 20
25.3616
 11
117.194
 21
25.7588
  0
LINE
  8
0
 10
117.194
 20
25.7588
 11
116.268
 21
26.1232
  0
LINE
  8
0
 10
116.268
 20
26.1232
 11
115.329
 21
26.4543
  0
LINE
  8
0
 10
115.329
 20
26.4543
 11
114.38
 21
26.7517
  0
LINE
  8
0
 10
114.38
 20
26.7517
 11
113.42
 21
27.0151
  0
LINE
  8
0
 10
113.42
 20
27.0151
 11
112.451
 21
27.2439
  0
LINE
  8
0
 10
112.451
 20
27.2439
 11
111.475
 21
27.4381
  0
LINE
  8
0
 10
111.475
 20
27.4381
 11
110.492
 21
27.5973
  0
LINE
  8
0
 10
110.492
 20
27.5973
 11
109.505
 21
27.7214
  0
LINE
  8
0
 10
109.505
 20
27.7214
 11
108.514
 21
27.8101
  0
LINE
  8
0
 10
108.514
 20
27.8101
 11
107.52
 21
27.8634
  0
LINE
  8
0
 10
107.52
 20
27.8634
 11
106.525
 21
27.8811
  0
LINE
  8
0
 10
106.525
 20
27.8811
 11
105.529
 21
27.8634
  0
LINE
  8
0
 10
105.529
 20
27.8634
 11
104.535
 21
27.8101
  0
LINE
  8
0
 10
104.535
 20
27.8101
 11
103.544
 21
27.7214
  0
LINE
  8
0
 10
103.544
 20
27.7214
 11
102.557
 21
27.5973
  0
LINE
  8
0
 10
102.557
 20
27.5973
 11
101.574
 21
27.4381
  0
LINE
  8
0
 10
101.574
 20
27.4381
 11
100.598
 21
27.2439
  0
LINE
  8
0
 10
100.598
 20
27.2439
 11
99.6293
 21
27.0151
  0
LINE
  8
0
 10
99.6293
 20
27.0151
 11
98.6695
 21
26.7517
  0
LINE
  8
0
 10
98.6695
 20
26.7517
 11
97.7197
 21
26.4543
  0
LINE
  8
0
 10
97.7197
 20
26.4543
 11
96.7811
 21
26.1232
  0
LINE
  8
0
 10
96.7811
 20
26.1232
 11
95.8549
 21
25.7588
  0
LINE
  8
0
 10
95.8549
 20
25.7588
 11
94.9423
 21
25.3616
  0
LINE
  8
0
 10
94.9423
 20
25.3616
 11
94.0444
 21
24.932
  0
LINE
  8
0
 10
94.0444
 20
24.932
 11
93.1625
 21
24.4707
  0
LINE
  8
0
 10
93.1625
 20
24.4707
 11
92.2976
 21
23.9782
  0
LINE
  8
0
 10
92.2976
 20
23.9782
 11
91.4508
 21
23.4551
  0
LINE
  8
0
 10
91.4508
 20
23.4551
 11
90.6233
 21
22.9021
  0
LINE
  8
0
 10
90.6233
 20
22.9021
 11
89.816
 21
22.32
  0
LINE
  8
0
 10
89.816
 20
22.32
 11
89.03
 21
21.7094
  0
LINE
  8
0
 10
89.03
 20
21.7094
 11
88.2663
 21
21.0711
  0
LINE
  8
0
 10
88.2663
 20
21.0711
 11
87.5258
 21
20.406
  0
LINE
  8
0
 10
87.5258
 20
20.406
 11
86.8096
 21
19.7149
  0
LINE
  8
0
 10
86.8096
 20
19.7149
 11
86.1185
 21
18.9987
  0
LINE
  8
0
 10
86.1185
 20
18.9987
 11
85.4534
 21
18.2583
  0
LINE
  8
0
 10
85.4534
 20
18.2583
 11
84.8151
 21
17.4945
  0
LINE
  8
0
 10
84.8151
 20
17.4945
 11
84.2045
 21
16.7085
  0
LINE
  8
0
 10
84.2045
 20
16.7085
 11
83.6224
 21
15.9012
  0
LINE
  8
0
 10
83.6224
 20
15.9012
 11
83.0694
 21
15.0737
  0
LINE
  8
0
 10
83.0694
 20
15.0737
 11
82.5463
 21
14.2269
  0
LINE
  8
0
 10
82.5463
 20
14.2269
 11
82.0538
 21
13.362
  0
LINE
  8
0
 10
82.0538
 20
13.362
 11
81.5925
 21
12.4801
  0
LINE
  8
0
 10
81.5925
 20
12.4801
 11
81.1629
 21
11.5822
  0
LINE
  8
0
 10
81.1629
 20
11.5822
 11
80.7657
 21
10.6696
  0
LINE
  8
0
 10
80.7657
 20
10.6696
 11
80.4013
 21
9.74345
  0
LINE
  8
0
 10
80.4013
 20
9.74345
 11
80.0702
 21
8.80484
  0
LINE
  8
0
 10
80.0702
 20
8.80484
 11
79.7728
 21
7.85501
  0
LINE
  8
0
 10
79.7728
 20
7.85501
 11
79.5094
 21
6.89517
  0
LINE
  8
0
 10
79.5094
 20
6.89517
 11
79.2806
 21
5.92656
  0
LINE
  8
0
 10
79.2806
 20
5.92656
 11
79.0864
 21
4.95038
  0
LINE
  8
0
 10
79.0864
 20
4.95038
 11
78.9272
 21
3.9679
  0
LINE
  8
0
 10
78.9272
 20
3.9679
 11
78.8031
 21
2.98035
  0
LINE
  8
0
 10
78.8031
 20
2.98035
 11
78.7144
 21
1.98901
  0
LINE
  8
0
 10
78.7144
 20
1.98901
 11
78.6611
 21
0.995132
  0
LINE
  8
0
 10
78.6611
 20
0.995132
 11
78.6434
 21
0
  0
LINE
  8
0
 10
78.6434
 20
0
 11
78.6611
 21
-0.995132
  0
LINE
  8
0
 10
78.6611
 20
-0.995132
 11
78.7144
 21
-1.98901
  0
LINE
  8
0
 10
78.7144
 20
-1.98901
 11
78.8031
 21
-2.98035
  0
LINE
  8
0
 10
78.8031
 20
-2.98035
 11
78.9272
 21
-3.9679
  0
LINE
  8
0
 10
78.9272
 20
-3.9679
 11
79.0864
 21
-4.95038
  0
LINE
  8
0
 10
79.0864
 20
-4.95038
 11
79.2806
 21
-5.92656
  0
LINE
  8
0
 10
79.2806
 20
-5.92656
 11
79.5094
 21
-6.89517
  0
LINE
  8
0
 10
79.5094
 20
-6.89517
 11
79.7728
 21
-7.85501
  0
LINE
  8
0
 10
79.7728
 20
-7.85501
 11
80.0702
 21
-8.80484
  0
LINE
  8
0
 10
80.0702
 20
-8.80484
 11
80.4013
 21
-9.74345
  0
LINE
  8
0
 10
80.4013
 20
-9.74345
 11
80.7657
 21
-10.6696
  0
LINE
  8
0
 10
80.7657
 20
-10.6696
 11
81.1629
 21
-11.5822
  0
LINE
  8
0
 10
81.1629
 20
-11.5822
 11
81.5925
 21
-12.4801
  0
LINE
  8
0
 10
81.5925
 20
-12.4801
 11
82.0538
 21
-13.362
  0
LINE
  8
0
 10
82.0538
 20
-13.362
 11
82.5463
 21
-14.2269
  0
LINE
  8
0
 10
82.5463
 20
-14.2269
 11
83.0694
 21
-15.0737
  0
LINE
  8
0
 10
83.0694
 20
-15.0737
 11
83.6224
 21
-15.9012
  0
LINE
  8
0
 10
83.6224
 20
-15.9012
 11
84.2045
 21
-16.7085
  0
LINE
  8
0
 10
84.2045
 20
-16.7085
 11
84.8151
 21
-17.4945
  0
LINE
  8
0
 10
84.8151
 20
-17.4945
 11
85.4534
 21
-18.2583
  0
LINE
  8
0
 10
85.4534
 20
-18.2583
 11
86.1185
 21
-18.9987
  0
LINE
  8
0
 10
86.1185
 20
-18.9987
 11
86.8096
 21
-19.7149
  0
LINE
  8
0
 10
86.8096
 20
-19.7149
 11
87.5258
 21
-20.406
  0
LINE
  8
0
 10
87.5258
 20
-20.406
 11
88.2663
 21
-21.0711
  0
LINE
  8
0
 10
88.2663
 20
-21.0711
 11
89.03
 21
-21.7094
  0
LINE
  8
0
 10
89.03
 20
-21.7094
 11
89.816
 21
-22.32
  0
LINE
  8
0
 10
89.816
 20
-22.32
 11
90.6233
 21
-22.9021
  0
LINE
  8
0
 10
90.6233
 20
-22.9021
 11
91.4508
 21
-23.4551
  0
LINE
  8
0
 10
91.4508
 20
-23.4551
 11
92.2976
 21
-23.9782
  0
LINE
  8
0
 10
92.2976
 20
-23.9782
 11
93.1625
 21
-24.4707
  0
LINE
  8
0
 10
93.1625
 20
-24.4707
 11
94.0444
 21
-24.932
  0
LINE
  8
0
 10
94.0444
 20
-24.932
 11
94.9423
 21
-25.3616
  0
LINE
  8
0
 10
94.9423
 20
-25.3616
 11
95.8549
 21
-25.7588
  0
LINE
  8
0
 10
95.8549
 20
-25.7588
 11
96.7811
 21
-26.1232
  0
LINE
  8
0
 10
96.7811
 20
-26.1232
 11
97.7197
 21
-26.4543
  0
LINE
  8
0
 10
97.7197
 20
-26.4543
 11
98.6695
 21
-26.7517
  0
LINE
  8
0
 10
98.6695
 20
-26.7517
 11
99.6293
 21
-27.0151
  0
LINE
  8
0
 10
99.6293
 20
-27.0151
 11
100.598
 21
-27.2439
  0
LINE
  8
0
 10
100.598
 20
-27.2439
 11
101.574
 21
-27.4381
  0
LINE
  8
0
 10
101.574
 20
-27.4381
 11
102.557
 21
-27.5973
  0
LINE
  8
0
 10
102.557
 20
-27.5973
 11
103.544
 21
-27.7214
  0
LINE
  8
0
 10
103.544
 20
-27.7214
 11
104.535
 21
-27.8101
  0
LINE
  8
0
 10
104.535
 20
-27.8101
 11
105.529
 21
-27.8634
  0
LINE
  8
0
 10
105.529
 20
-27.8634
 11
106.525
 21
-27.8811
  0
LINE
  8
0
 10
106.525
 20
-27.8811
 11
107.52
 21
-27.8634
  0
LINE
  8
0
 10
105.529
 20
-9.47281
 11
104.544
 21
-9.31685
  0
LINE
  8
0
 10
104.544
 20
-9.31685
 11
103.581
 21
-9.05881
  0
LINE
  8
0
 10
103.581
 20
-9.05881
 11
102.65
 21
-8.70151
  0
LINE
  8
0
 10
102.65
 20
-8.70151
 11
101.762
 21
-8.24889
  0
LINE
  8
0
 10
101.762
 20
-8.24889
 11
100.926
 21
-7.70589
  0
LINE
  8
0
 10
100.926
 20
-7.70589
 11
100.151
 21
-7.07845
  0
LINE
  8
0
 10
100.151
 20
-7.07845
 11
99.4461
 21
-6.37346
  0
LINE
  8
0
 10
99.4461
 20
-6.37346
 11
98.8186
 21
-5.59865
  0
LINE
  8
0
 10
98.8186
 20
-5.59865
 11
98.2756
 21
-4.7625
  0
LINE
  8
0
 10
98.2756
 20
-4.7625
 11
97.823
 21
-3.87416
  0
LINE
  8
0
 10
97.823
 20
-3.87416
 11
97.4657
 21
-2.94337
  0
LINE
  8
0
 10
97.4657
 20
-2.94337
 11
97.2077
 21
-1.98035
  0
LINE
  8
0
 10
97.2077
 20
-1.98035
 11
97.0517
 21
-0.995621
  0
LINE
  8
0
 10
97.0517
 20
-0.995621
 11
96.9995
 21
0
  0
LINE
  8
0
 10
96.9995
 20
0
 11
97.0517
 21
0.995621
  0
LINE
  8
0
 10
97.0517
 20
0.995621
 11
97.2077
 21
1.98035
  0
LINE
  8
0
 10
97.2077
 20
1.98035
 11
97.4657
 21
2.94337
  0
LINE
  8
0
 10
97.4657
 20
2.94337
 11
97.823
 21
3.87416
  0
LINE
  8
0
 10
97.823
 20
3.87416
 11
98.2756
 21
4.7625
  0
LINE
  8
0
 10
98.2756
 20
4.7625
 11
98.8186
 21
5.59865
  0
LINE
  8
0
 10
98.8186
 20
5.59865
 11
99.4461
 21
6.37346
  0
LINE
  8
0
 10
99.4461
 20
6.37346
 11
100.151
 21
7.07845
  0
LINE
  8
0
 10
100.151
 20
7.07845
 11
100.926
 21
7.70589
  0
LINE
  8
0
 10
100.926
 20
7.70589
 11
101.762
 21
8.24889
  0
LINE
  8
0
 10
101.762
 20
8.24889
 11
102.65
 21
8.70151
  0
LINE
  8
0
 10
102.65
 20
8.70151
 11
103.581
 21
9.05881
  0
LINE
  8
0
 10
103.581
 20
9.05881
 11
104.544
 21
9.31685
  0
LINE
  8
0
 10
104.544
 20
9.31685
 11
105.529
 21
9.47281
  0
LINE
  8
0
 10
105.529
 20
9.47281
 11
106.525
 21
9.52499
  0
LINE
  8
0
 10
106.525
 20
9.52499
 11
107.52
 21
9.47281
  0
LINE
  8
0
 10
107.52
 20
9.47281
 11
108.505
 21
9.31685
  0
LINE
  8
0
 10
108.505
 20
9.31685
 11
109.468
 21
9.05881
  0
LINE
  8
0
 10
109.468
 20
9.05881
 11
110.399
 21
8.70151
  0
LINE
  8
0
 10
110.399
 20
8.70151
 11
111.287
 21
8.24889
  0
LINE
  8
0
 10
111.287
 20
8.24889
 11
112.123
 21
7.70589
  0
LINE
  8
0
 10
112.123
 20
7.70589
 11
112.898
 21
7.07845
  0
LINE
  8
0
 10
112.898
 20
7.07845
 11
113.603
 21
6.37346
  0
LINE
  8
0
 10
113.603
 20
6.37346
 11
114.23
 21
5.59865
  0
LINE
  8
0
 10
114.23
 20
5.59865
 11
114.773
 21
4.7625
  0
LINE
  8
0
 10
114.773
 20
4.7625
 11
115.226
 21
3.87416
  0
LINE
  8
0
 10
115.226
 20
3.87416
 11
115.583
 21
2.94337
  0
LINE
  8
0
 10
115.583
 20
2.94337
 11
115.841
 21
1.98035
  0
LINE
  8
0
 10
115.841
 20
1.98035
 11
115.997
 21
0.995621
  0
LINE
  8
0
 10
115.997
 20
0.995621
 11
116.049
 21
0
  0
LINE
  8
0
 10
116.049
 20
0
 11
115.997
 21
-0.995621
  0
LINE
  8
0
 10
115.997
 20
-0.995621
 11
115.841
 21
-1.98035
  0
LINE
  8
0
 10
115.841
 20
-1.98035
 11
115.583
 21
-2.94337
  0
LINE
  8
0
 10
115.583
 20
-2.94337
 11
115.226
 21
-3.87416
  0
LINE
  8
0
 10
115.226
 20
-3.87416
 11
114.773
 21
-4.7625
  0
LINE
  8
0
 10
114.773
 20
-4.7625
 11
114.23
 21
-5.59865
  0
LINE
  8
0
 10
114.23
 20
-5.59865
 11
113.603
 21
-6.37346
  0
LINE
  8
0
 10
113.603
 20
-6.37346
 11
112.898
 21
-7.07845
  0
LINE
  8
0
 10
112.898
 20
-7.07845
 11
112.123
 21
-7.70589
  0
LINE
  8
0
 10
112.123
 20
-7.70589
 11
111.287
 21
-8.24889
  0
LINE
  8
0
 10
111.287
 20
-8.24889
 11
110.399
 21
-8.70151
  0
LINE
  8
0
 10
110.399
 20
-8.70151
 11
109.468
 21
-9.05881
  0
LINE
  8
0
 10
109.468
 20
-9.05881
 11
108.505
 21
-9.31685
  0
LINE
  8
0
 10
108.505
 20
-9.31685
 11
107.52
 21
-9.47281
  0
LINE
  8
0
 10
107.52
 20
-9.47281
 11
106.525
 21
-9.52499
  0
LINE
  8
0
 10
106.525
 20
-9.52499
 11
105.529
 21
-9.47281
  0
LINE
  8
0
 10
50.7574
 20
-27.8634
 11
51.7513
 21
-27.8101
  0
LINE
  8
0
 10
51.7513
 20
-27.8101
 11
52.7426
 21
-27.7214
  0
LINE
  8
0
 10
52.7426
 20
-27.7214
 11
53.7301
 21
-27.5973
  0
LINE
  8
0
 10
53.7301
 20
-27.5973
 11
54.7126
 21
-27.4381
  0
LINE
  8
0
 10
54.7126
 20
-27.4381
 11
55.6888
 21
-27.2439
  0
LINE
  8
0
 10
55.6888
 20
-27.2439
 11
56.6574
 21
-27.0151
  0
LINE
  8
0
 10
56.6574
 20
-27.0151
 11
57.6173
 21
-26.7517
  0
LINE
  8
0
 10
57.6173
 20
-26.7517
 11
58.5671
 21
-26.4543
  0
LINE
  8
0
 10
58.5671
 20
-26.4543
 11
59.5057
 21
-26.1232
  0
LINE
  8
0
 10
59.5057
 20
-26.1232
 11
60.4319
 21
-25.7588
  0
LINE
  8
0
 10
60.4319
 20
-25.7588
 11
61.3445
 21
-25.3616
  0
LINE
  8
0
 10
61.3445
 20
-25.3616
 11
62.2423
 21
-24.932
  0
LINE
  8
0
 10
62.2423
 20
-24.932
 11
63.1243
 21
-24.4707
  0
LINE
  8
0
 10
63.1243
 20
-24.4707
 11
63.9892
 21
-23.9782
  0
LINE
  8
0
 10
63.9892
 20
-23.9782
 11
64.8359
 21
-23.4551
  0
LINE
  8
0
 10
64.8359
 20
-23.4551
 11
65.6635
 21
-22.9021
  0
LINE
  8
0
 10
65.6635
 20
-22.9021
 11
66.4708
 21
-22.32
  0
LINE
  8
0
 10
66.4708
 20
-22.32
 11
67.2568
 21
-21.7094
  0
LINE
  8
0
 10
67.2568
 20
-21.7094
 11
68.0205
 21
-21.0711
  0
LINE
  8
0
 10
68.0205
 20
-21.0711
 11
68.7609
 21
-20.406
  0
LINE
  8
0
 10
68.7609
 20
-20.406
 11
69.4772
 21
-19.7149
  0
LINE
  8
0
 10
69.4772
 20
-19.7149
 11
70.1683
 21
-18.9987
  0
LINE
  8
0
 10
70.1683
 20
-18.9987
 11
70.8334
 21
-18.2583
  0
LINE
  8
0
 10
70.8334
 20
-18.2583
 11
71.4716
 21
-17.4945
  0
LINE
  8
0
 10
71.4716
 20
-17.4945
 11
72.0822
 21
-16.7085
  0
LINE
  8
0
 10
72.0822
 20
-16.7085
 11
72.6644
 21
-15.9012
  0
LINE
  8
0
 10
72.6644
 20
-15.9012
 11
73.2173
 21
-15.0737
  0
LINE
  8
0
 10
73.2173
 20
-15.0737
 11
73.7404
 21
-14.2269
  0
LINE
  8
0
 10
73.7404
 20
-14.2269
 11
74.2329
 21
-13.362
  0
LINE
  8
0
 10
74.2329
 20
-13.362
 11
74.6943
 21
-12.4801
  0
LINE
  8
0
 10
74.6943
 20
-12.4801
 11
75.1238
 21
-11.5822
  0
LINE
  8
0
 10
75.1238
 20
-11.5822
 11
75.521
 21
-10.6696
  0
LINE
  8
0
 10
75.521
 20
-10.6696
 11
75.8855
 21
-9.74345
  0
LINE
  8
0
 10
75.8855
 20
-9.74345
 11
76.2166
 21
-8.80484
  0
LINE
  8
0
 10
76.2166
 20
-8.80484
 11
76.514
 21
-7.85501
  0
LINE
  8
0
 10
76.514
 20
-7.85501
 11
76.7773
 21
-6.89517
  0
LINE
  8
0
 10
76.7773
 20
-6.89517
 11
77.0062
 21
-5.92656
  0
LINE
  8
0
 10
77.0062
 20
-5.92656
 11
77.2004
 21
-4.95038
  0
LINE
  8
0
 10
77.2004
 20
-4.95038
 11
77.3596
 21
-3.9679
  0
LINE
  8
0
 10
77.3596
 20
-3.9679
 11
77.4836
 21
-2.98035
  0
LINE
  8
0
 10
77.4836
 20
-2.98035
 11
77.5723
 21
-1.98901
  0
LINE
  8
0
 10
77.5723
 20
-1.98901
 11
77.6256
 21
-0.995132
  0
LINE
  8
0
 10
77.6256
 20
-0.995132
 11
77.6434
 21
0
  0
LINE
  8
0
 10
77.6434
 20
0
 11
77.6256
 21
0.995132
  0
LINE
  8
0
 10
77.6256
 20
0.995132
 11
77.5723
 21
1.98901
  0
LINE
  8
0
 10
77.5723
 20
1.98901
 11
77.4836
 21
2.98035
  0
LINE
  8
0
 10
77.4836
 20
2.98035
 11
77.3596
 21
3.9679
  0
LINE
  8
0
 10
77.3596
 20
3.9679
 11
77.2004
 21
4.95038
  0
LINE
  8
0
 10
77.2004
 20
4.95038
 11
77.0062
 21
5.92656
  0
LINE
  8
0
 10
77.0062
 20
5.92656
 11
76.7773
 21
6.89517
  0
LINE
  8
0
 10
76.7773
 20
6.89517
 11
76.514
 21
7.85501
  0
LINE
  8
0
 10
76.514
 20
7.85501
 11
76.2166
 21
8.80484
  0
LINE
  8
0
 10
76.2166
 20
8.80484
 11
75.8855
 21
9.74345
  0
LINE
  8
0
 10
75.8855
 20
9.74345
 11
75.521
 21
10.6696
  0
LINE
  8
0
 10
75.521
 20
10.6696
 11
75.1238
 21
11.5822
  0
LINE
  8
0
 10
75.1238
 20
11.5822
 11
74.6943
 21
12.4801
  0
LINE
  8
0
 10
74.6943
 20
12.4801
 11
74.2329
 21
13.362
  0
LINE
  8
0
 10
74.2329
 20
13.362
 11
73.7404
 21
14.2269
  0
LINE
  8
0
 10
73.7404
 20
14.2269
 11
73.2173
 21
15.0737
  0
LINE
  8
0
 10
73.2173
 20
15.0737
 11
72.6644
 21
15.9012
  0
LINE
  8
0
 10
72.6644
 20
15.9012
 11
72.0822
 21
16.7085
  0
LINE
  8
0
 10
72.0822
 20
16.7085
 11
71.4716
 21
17.4945
  0
LINE
  8
0
 10
71.4716
 20
17.4945
 11
70.8334
 21
18.2583
  0
LINE
  8
0
 10
70.8334
 20
18.2583
 11
70.1683
 21
18.9987
  0
LINE
  8
0
 10
70.1683
 20
18.9987
 11
69.4772
 21
19.7149
  0
LINE
  8
0
 10
69.4772
 20
19.7149
 11
68.7609
 21
20.406
  0
LINE
  8
0
 10
68.7609
 20
20.406
 11
68.0205
 21
21.0711
  0
LINE
  8
0
 10
68.0205
 20
21.0711
 11
67.2568
 21
21.7094
  0
LINE
  8
0
 10
67.2568
 20
21.7094
 11
66.4708
 21
22.32
  0
LINE
  8
0
 10
66.4708
 20
22.32
 11
65.6635
 21
22.9021
  0
LINE
  8
0
 10
65.6635
 20
22.9021
 11
64.8359
 21
23.4551
  0
LINE
  8
0
 10
64.8359
 20
23.4551
 11
63.9892
 21
23.9782
  0
LINE
  8
0
 10
63.9892
 20
23.9782
 11
63.1243
 21
24.4707
  0
LINE
  8
0
 10
63.1243
 20
24.4707
 11
62.2423
 21
24.932
  0
LINE
  8
0
 10
62.2423
 20
24.932
 11
61.3445
 21
25.3616
  0
LINE
  8
0
 10
61.3445
 20
25.3616
 11
60.4319
 21
25.7588
  0
LINE
  8
0
 10
60.4319
 20
25.7588
 11
59.5057
 21
26.1232
  0
LINE
  8
0
 10
59.5057
 20
26.1232
 11
58.5671
 21
26.4543
  0
LINE
  8
0
 10
58.5671
 20
26.4543
 11
57.6173
 21
26.7517
  0
LINE
  8
0
 10
57.6173
 20
26.7517
 11
56.6574
 21
27.0151
  0
LINE
  8
0
 10
56.6574
 20
27.0151
 11
55.6888
 21
27.2439
  0
LINE
  8
0
 10
55.6888
 20
27.2439
 11
54.7126
 21
27.4381
  0
LINE
  8
0
 10
54.7126
 20
27.4381
 11
53.7301
 21
27.5973
  0
LINE
  8
0
 10
53.7301
 20
27.5973
 11
52.7426
 21
27.7214
  0
LINE
  8
0
 10
52.7426
 20
27.7214
 11
51.7513
 21
27.8101
  0
LINE
  8
0
 10
51.7513
 20
27.8101
 11
50.7574
 21
27.8634
  0
LINE
  8
0
 10
50.7574
 20
27.8634
 11
49.7623
 21
27.8811
  0
LINE
  8
0
 10
49.7623
 20
27.8811
 11
48.7671
 21
27.8634
  0
LINE
  8
0
 10
48.7671
 20
27.8634
 11
47.7732
 21
27.8101
  0
LINE
  8
0
 10
47.7732
 20
27.8101
 11
46.7819
 21
27.7214
  0
LINE
  8
0
 10
46.7819
 20
27.7214
 11
45.7944
 21
27.5973
  0
LINE
  8
0
 10
45.7944
 20
27.5973
 11
44.8119
 21
27.4381
  0
LINE
  8
0
 10
44.8119
 20
27.4381
 11
43.8357
 21
27.2439
  0
LINE
  8
0
 10
43.8357
 20
27.2439
 11
42.8671
 21
27.0151
  0
LINE
  8
0
 10
42.8671
 20
27.0151
 11
41.9072
 21
26.7517
  0
LINE
  8
0
 10
41.9072
 20
26.7517
 11
40.9574
 21
26.4543
  0
LINE
  8
0
 10
40.9574
 20
26.4543
 11
40.0188
 21
26.1232
  0
LINE
  8
0
 10
40.0188
 20
26.1232
 11
39.0926
 21
25.7588
  0
LINE
  8
0
 10
39.0926
 20
25.7588
 11
38.18
 21
25.3616
  0
LINE
  8
0
 10
38.18
 20
25.3616
 11
37.2822
 21
24.932
  0
LINE
  8
0
 10
37.2822
 20
24.932
 11
36.4003
 21
24.4707
  0
LINE
  8
0
 10
36.4003
 20
24.4707
 11
35.5354
 21
23.9782
  0
LINE
  8
0
 10
35.5354
 20
23.9782
 11
34.6886
 21
23.4551
  0
LINE
  8
0
 10
34.6886
 20
23.4551
 11
33.861
 21
22.9021
  0
LINE
  8
0
 10
33.861
 20
22.9021
 11
33.0537
 21
22.32
  0
LINE
  8
0
 10
33.0537
 20
22.32
 11
32.2677
 21
21.7094
  0
LINE
  8
0
 10
32.2677
 20
21.7094
 11
31.504
 21
21.0711
  0
LINE
  8
0
 10
31.504
 20
21.0711
 11
30.7636
 21
20.406
  0
LINE
  8
0
 10
30.7636
 20
20.406
 11
30.0473
 21
19.7149
  0
LINE
  8
0
 10
30.0473
 20
19.7149
 11
29.3562
 21
18.9987
  0
LINE
  8
0
 10
29.3562
 20
18.9987
 11
28.6911
 21
18.2583
  0
LINE
  8
0
 10
28.6911
 20
18.2583
 11
28.0529
 21
17.4945
  0
LINE
  8
0
 10
28.0529
 20
17.4945
 11
27.4423
 21
16.7085
  0
LINE
  8
0
 10
27.4423
 20
16.7085
 11
26.8601
 21
15.9012
  0
LINE
  8
0
 10
26.8601
 20
15.9012
 11
26.3072
 21
15.0737
  0
LINE
  8
0
 10
26.3072
 20
15.0737
 11
25.7841
 21
14.2269
  0
LINE
  8
0
 10
25.7841
 20
14.2269
 11
25.2916
 21
13.362
  0
LINE
  8
0
 10
25.2916
 20
13.362
 11
24.8302
 21
12.4801
  0
LINE
  8
0
 10
24.8302
 20
12.4801
 11
24.4007
 21
11.5822
  0
LINE
  8
0
 10
24.4007
 20
11.5822
 11
24.0035
 21
10.6696
  0
LINE
  8
0
 10
24.0035
 20
10.6696
 11
23.639
 21
9.74345
  0
LINE
  8
0
 10
23.639
 20
9.74345
 11
23.3079
 21
8.80484
  0
LINE
  8
0
 10
23.3079
 20
8.80484
 11
23.0105
 21
7.85501
  0
LINE
  8
0
 10
23.0105
 20
7.85501
 11
22.7472
 21
6.89517
  0
LINE
  8
0
 10
22.7472
 20
6.89517
 11
22.5183
 21
5.92656
  0
LINE
  8
0
 10
22.5183
 20
5.92656
 11
22.3241
 21
4.95038
  0
LINE
  8
0
 10
22.3241
 20
4.95038
 11
22.1649
 21
3.9679
  0
LINE
  8
0
 10
22.1649
 20
3.9679
 11
22.0409
 21
2.98035
  0
LINE
  8
0
 10
22.0409
 20
2.98035
 11
21.9522
 21
1.98901
  0
LINE
  8
0
 10
21.9522
 20
1.98901
 11
21.8989
 21
0.995132
  0
LINE
  8
0
 10
21.8989
 20
0.995132
 11
21.8811
 21
0
  0
LINE
  8
0
 10
21.8811
 20
0
 11
21.8989
 21
-0.995132
  0
LINE
  8
0
 10
21.8989
 20
-0.995132
 11
21.9522
 21
-1.98901
  0
LINE
  8
0
 10
21.9522
 20
-1.98901
 11
22.0409
 21
-2.98035
  0
LINE
  8
0
 10
22.0409
 20
-2.98035
 11
22.1649
 21
-3.9679
  0
LINE
  8
0
 10
22.1649
 20
-3.9679
 11
22.3241
 21
-4.95038
  0
LINE
  8
0
 10
22.3241
 20
-4.95038
 11
22.5183
 21
-5.92656
  0
LINE
  8
0
 10
22.5183
 20
-5.92656
 11
22.7472
 21
-6.89517
  0
LINE
  8
0
 10
22.7472
 20
-6.89517
 11
23.0105
 21
-7.85501
  0
LINE
  8
0
 10
23.0105
 20
-7.85501
 11
23.3079
 21
-8.80484
  0
LINE
  8
0
 10
23.3079
 20
-8.80484
 11
23.639
 21
-9.74345
  0
LINE
  8
0
 10
23.639
 20
-9.74345
 11
24.0035
 21
-10.6696
  0
LINE
  8
0
 10
24.0035
 20
-10.6696
 11
24.4007
 21
-11.5822
  0
LINE
  8
0
 10
24.4007
 20
-11.5822
 11
24.8302
 21
-12.4801
  0
LINE
  8
0
 10
24.8302
 20
-12.4801
 11
25.2916
 21
-13.362
  0
LINE
  8
0
 10
25.2916
 20
-13.362
 11
25.7841
 21
-14.2269
  0
LINE
  8
0
 10
25.7841
 20
-14.2269
 11
26.3072
 21
-15.0737
  0
LINE
  8
0
 10
26.3072
 20
-15.0737
 11
26.8601
 21
-15.9012
  0
LINE
  8
0
 10
26.8601
 20
-15.9012
 11
27.4423
 21
-16.7085
  0
LINE
  8
0
 10
27.4423
 20
-16.7085
 11
28.0529
 21
-17.4945
  0
LINE
  8
0
 10
28.0529
 20
-17.4945
 11
28.6911
 21
-18.2583
  0
LINE
  8
0
 10
28.6911
 20
-18.2583
 11
29.3562
 21
-18.9987
  0
LINE
  8
0
 10
29.3562
 20
-18.9987
 11
30.0473
 21
-19.7149
  0
LINE
  8
0
 10
30.0473
 20
-19.7149
 11
30.7636
 21
-20.406
  0
LINE
  8
0
 10
30.7636
 20
-20.406
 11
31.504
 21
-21.0711
  0
LINE
  8
0
 10
31.504
 20
-21.0711
 11
32.2677
 21
-21.7094
  0
LINE
  8
0
 10
32.2677
 20
-21.7094
 11
33.0537
 21
-22.32
  0
LINE
  8
0
 10
33.0537
 20
-22.32
 11
33.861
 21
-22.9021
  0
LINE
  8
0
 10
33.861
 20
-22.9021
 11
34.6886
 21
-23.4551
  0
LINE
  8
0
 10
34.6886
 20
-23.4551
 11
35.5354
 21
-23.9782
  0
LINE
  8
0
 10
35.5354
 20
-23.9782
 11
36.4003
 21
-24.4707
  0
LINE
  8
0
 10
36.4003
 20
-24.4707
 11
37.2822
 21
-24.932
  0
LINE
  8
0
 10
37.2822
 20
-24.932
 11
38.18
 21
-25.3616
  0
LINE
  8
0
 10
38.18
 20
-25.3616
 11
39.0926
 21
-25.7588
  0
LINE
  8
0
 10
39.0926
 20
-25.7588
 11
40.0188
 21
-26.1232
  0
LINE
  8
0
 10
40.0188
 20
-26.1232
 11
40.9574
 21
-26.4543
  0
LINE
  8
0
 10
40.9574
 20
-26.4543
 11
41.9072
 21
-26.7517
  0
LINE
  8
0
 10
41.9072
 20
-26.7517
 11
42.8671
 21
-27.0151
  0
LINE
  8
0
 10
42.8671
 20
-27.0151
 11
43.8357
 21
-27.2439
  0
LINE
  8
0
 10
43.8357
 20
-27.2439
 11
44.8119
 21
-27.4381
  0
LINE
  8
0
 10
44.8119
 20
-27.4381
 11
45.7944
 21
-27.5973
  0
LINE
  8
0
 10
45.7944
 20
-27.5973
 11
46.7819
 21
-27.7214
  0
LINE
  8
0
 10
46.7819
 20
-27.7214
 11
47.7732
 21
-27.8101
  0
LINE
  8
0
 10
47.7732
 20
-27.8101
 11
48.7671
 21
-27.8634
  0
LINE
  8
0
 10
48.7671
 20
-27.8634
 11
49.7623
 21
-27.8811
  0
LINE
  8
0
 10
49.7623
 20
-27.8811
 11
50.7574
 21
-27.8634
  0
LINE
  8
0
 10
48.7666
 20
-9.47281
 11
47.7819
 21
-9.31685
  0
LINE
  8
0
 10
47.7819
 20
-9.31685
 11
46.8189
 21
-9.05881
  0
LINE
  8
0
 10
46.8189
 20
-9.05881
 11
45.8881
 21
-8.70151
  0
LINE
  8
0
 10
45.8881
 20
-8.70151
 11
44.9998
 21
-8.24889
  0
LINE
  8
0
 10
44.9998
 20
-8.24889
 11
44.1636
 21
-7.70589
  0
LINE
  8
0
 10
44.1636
 20
-7.70589
 11
43.3888
 21
-7.07845
  0
LINE
  8
0
 10
43.3888
 20
-7.07845
 11
42.6838
 21
-6.37346
  0
LINE
  8
0
 10
42.6838
 20
-6.37346
 11
42.0564
 21
-5.59865
  0
LINE
  8
0
 10
42.0564
 20
-5.59865
 11
41.5134
 21
-4.7625
  0
LINE
  8
0
 10
41.5134
 20
-4.7625
 11
41.0607
 21
-3.87416
  0
LINE
  8
0
 10
41.0607
 20
-3.87416
 11
40.7034
 21
-2.94337
  0
LINE
  8
0
 10
40.7034
 20
-2.94337
 11
40.4454
 21
-1.98035
  0
LINE
  8
0
 10
40.4454
 20
-1.98035
 11
40.2894
 21
-0.995621
  0
LINE
  8
0
 10
40.2894
 20
-0.995621
 11
40.2373
 21
0
  0
LINE
  8
0
 10
40.2373
 20
0
 11
40.2894
 21
0.995621
  0
LINE
  8
0
 10
40.2894
 20
0.995621
 11
40.4454
 21
1.98035
  0
LINE
  8
0
 10
40.4454
 20
1.98035
 11
40.7034
 21
2.94337
  0
LINE
  8
0
 10
40.7034
 20
2.94337
 11
41.0607
 21
3.87416
  0
LINE
  8
0
 10
41.0607
 20
3.87416
 11
41.5134
 21
4.7625
  0
LINE
  8
0
 10
41.5134
 20
4.7625
 11
42.0564
 21
5.59865
  0
LINE
  8
0
 10
42.0564
 20
5.59865
 11
42.6838
 21
6.37346
  0
LINE
  8
0
 10
42.6838
 20
6.37346
 11
43.3888
 21
7.07845
  0
LINE
  8
0
 10
43.3888
 20
7.07845
 11
44.1636
 21
7.70589
  0
LINE
  8
0
 10
44.1636
 20
7.70589
 11
44.9998
 21
8.24889
  0
LINE
  8
0
 10
44.9998
 20
8.24889
 11
45.8881
 21
8.70151
  0
LINE
  8
0
 10
45.8881
 20
8.70151
 11
46.8189
 21
9.05881
  0
LINE
  8
0
 10
46.8189
 20
9.05881
 11
47.7819
 21
9.31685
  0
LINE
  8
0
 10
47.7819
 20
9.31685
 11
48.7666
 21
9.47281
  0
LINE
  8
0
 10
48.7666
 20
9.47281
 11
49.7623
 21
9.52499
  0
LINE
  8
0
 10
49.7623
 20
9.52499
 11
50.7579
 21
9.47281
  0
LINE
  8
0
 10
50.7579
 20
9.47281
 11
51.7426
 21
9.31685
  0
LINE
  8
0
 10
51.7426
 20
9.31685
 11
52.7056
 21
9.05881
  0
LINE
  8
0
 10
52.7056
 20
9.05881
 11
53.6364
 21
8.70151
  0
LINE
  8
0
 10
53.6364
 20
8.70151
 11
54.5247
 21
8.24889
  0
LINE
  8
0
 10
54.5247
 20
8.24889
 11
55.3609
 21
7.70589
  0
LINE
  8
0
 10
55.3609
 20
7.70589
 11
56.1357
 21
7.07845
  0
LINE
  8
0
 10
56.1357
 20
7.07845
 11
56.8407
 21
6.37346
  0
LINE
  8
0
 10
56.8407
 20
6.37346
 11
57.4681
 21
5.59865
  0
LINE
  8
0
 10
57.4681
 20
5.59865
 11
58.0111
 21
4.7625
  0
LINE
  8
0
 10
58.0111
 20
4.7625
 11
58.4638
 21
3.87416
  0
LINE
  8
0
 10
58.4638
 20
3.87416
 11
58.8211
 21
2.94337
  0
LINE
  8
0
 10
58.8211
 20
2.94337
 11
59.0791
 21
1.98035
  0
LINE
  8
0
 10
59.0791
 20
1.98035
 11
59.2351
 21
0.995621
  0
LINE
  8
0
 10
59.2351
 20
0.995621
 11
59.2872
 21
0
  0
LINE
  8
0
 10
59.2872
 20
0
 11
59.2351
 21
-0.995621
  0
LINE
  8
0
 10
59.2351
 20
-0.995621
 11
59.0791
 21
-1.98035
  0
LINE
  8
0
 10
59.0791
 20
-1.98035
 11
58.8211
 21
-2.94337
  0
LINE
  8
0
 10
58.8211
 20
-2.94337
 11
58.4638
 21
-3.87416
  0
LINE
  8
0
 10
58.4638
 20
-3.87416
 11
58.0111
 21
-4.7625
  0
LINE
  8
0
 10
58.0111
 20
-4.7625
 11
57.4681
 21
-5.59865
  0
LINE
  8
0
 10
57.4681
 20
-5.59865
 11
56.8407
 21
-6.37346
  0
LINE
  8
0
 10
56.8407
 20
-6.37346
 11
56.1357
 21
-7.07845
  0
LINE
  8
0
 10
56.1357
 20
-7.07845
 11
55.3609
 21
-7.70589
  0
LINE
  8
0
 10
55.3609
 20
-7.70589
 11
54.5247
 21
-8.24889
  0
LINE
  8
0
 10
54.5247
 20
-8.24889
 11
53.6364
 21
-8.70151
  0
LINE
  8
0
 10
53.6364
 20
-8.70151
 11
52.7056
 21
-9.05881
  0
LINE
  8
0
 10
52.7056
 20
-9.05881
 11
51.7426
 21
-9.31685
  0
LINE
  8
0
 10
51.7426
 20
-9.31685
 11
50.7579
 21
-9.47281
  0
LINE
  8
0
 10
50.7579
 20
-9.47281
 11
49.7623
 21
-9.52499
  0
LINE
  8
0
 10
49.7623
 20
-9.52499
 11
48.7666
 21
-9.47281
  0
LINE
  8
0
 10
-2.32799
 20
-20.3863
 11
-1.92545
 21
-19.4822
  0
LINE
  8
0
 10
-1.92545
 20
-19.4822
 11
-1.18999
 21
-18.82
  0
LINE
  8
0
 10
-1.18999
 20
-18.82
 11
-0.248764
 21
-18.5142
  0
LINE
  8
0
 10
-0.248764
 20
-18.5142
 11
0.735458
 21
-18.6176
  0
LINE
  8
0
 10
0.735458
 20
-18.6176
 11
1.59253
 21
-19.1124
  0
LINE
  8
0
 10
1.59253
 20
-19.1124
 11
2.17422
 21
-19.9131
  0
LINE
  8
0
 10
2.17422
 20
-19.9131
 11
2.3506
 21
-20.7428
  0
LINE
  8
0
 10
2.3506
 20
-20.7428
 11
2.97168
 21
-20.6686
  0
LINE
  8
0
 10
2.97168
 20
-20.6686
 11
3.95177
 21
-20.5038
  0
LINE
  8
0
 10
3.95177
 20
-20.5038
 11
4.17017
 21
-20.4563
  0
LINE
  8
0
 10
4.17017
 20
-20.4563
 11
4.12462
 21
-20.354
  0
LINE
  8
0
 10
4.12462
 20
-20.354
 11
4.12462
 21
-19.3643
  0
LINE
  8
0
 10
4.12462
 20
-19.3643
 11
4.52716
 21
-18.4602
  0
LINE
  8
0
 10
4.52716
 20
-18.4602
 11
5.26262
 21
-17.798
  0
LINE
  8
0
 10
5.26262
 20
-17.798
 11
6.20384
 21
-17.4922
  0
LINE
  8
0
 10
6.20384
 20
-17.4922
 11
7.18808
 21
-17.5956
  0
LINE
  8
0
 10
7.18808
 20
-17.5956
 11
8.04515
 21
-18.0904
  0
LINE
  8
0
 10
8.04515
 20
-18.0904
 11
8.62686
 21
-18.8911
  0
LINE
  8
0
 10
8.62686
 20
-18.8911
 11
8.65089
 21
-19.0042
  0
LINE
  8
0
 10
8.65089
 20
-19.0042
 11
8.67433
 21
-18.9941
  0
LINE
  8
0
 10
8.67433
 20
-18.9941
 11
9.56828
 21
-18.5599
  0
LINE
  8
0
 10
9.56828
 20
-18.5599
 11
10.2915
 21
-18.165
  0
LINE
  8
0
 10
10.2915
 20
-18.165
 11
9.94562
 21
-17.388
  0
LINE
  8
0
 10
9.94562
 20
-17.388
 11
9.94562
 21
-16.3983
  0
LINE
  8
0
 10
9.94562
 20
-16.3983
 11
10.3481
 21
-15.4942
  0
LINE
  8
0
 10
10.3481
 20
-15.4942
 11
11.0836
 21
-14.832
  0
LINE
  8
0
 10
11.0836
 20
-14.832
 11
12.0248
 21
-14.5262
  0
LINE
  8
0
 10
12.0248
 20
-14.5262
 11
13.0091
 21
-14.6297
  0
LINE
  8
0
 10
13.0091
 20
-14.6297
 11
13.8661
 21
-15.1245
  0
LINE
  8
0
 10
13.8661
 20
-15.1245
 11
14.077
 21
-15.4147
  0
LINE
  8
0
 10
14.077
 20
-15.4147
 11
14.4096
 21
-15.1124
  0
LINE
  8
0
 10
14.4096
 20
-15.1124
 11
15.1124
 21
-14.4096
  0
LINE
  8
0
 10
15.1124
 20
-14.4096
 11
15.4157
 21
-14.0759
  0
LINE
  8
0
 10
15.4157
 20
-14.0759
 11
14.9677
 21
-13.6725
  0
LINE
  8
0
 10
14.9677
 20
-13.6725
 11
14.5652
 21
-12.7684
  0
LINE
  8
0
 10
14.5652
 20
-12.7684
 11
14.5652
 21
-11.7788
  0
LINE
  8
0
 10
14.5652
 20
-11.7788
 11
14.9677
 21
-10.8747
  0
LINE
  8
0
 10
14.9677
 20
-10.8747
 11
15.7032
 21
-10.2125
  0
LINE
  8
0
 10
15.7032
 20
-10.2125
 11
16.6444
 21
-9.90665
  0
LINE
  8
0
 10
16.6444
 20
-9.90665
 11
17.6286
 21
-10.0101
  0
LINE
  8
0
 10
17.6286
 20
-10.0101
 11
18.1532
 21
-10.313
  0
LINE
  8
0
 10
18.1532
 20
-10.313
 11
18.5599
 21
-9.56828
  0
LINE
  8
0
 10
18.5599
 20
-9.56828
 11
18.9941
 21
-8.67433
  0
LINE
  8
0
 10
18.9941
 20
-8.67433
 11
19.0148
 21
-8.62608
  0
LINE
  8
0
 10
19.0148
 20
-8.62608
 11
18.6691
 21
-8.51376
  0
LINE
  8
0
 10
18.6691
 20
-8.51376
 11
17.9337
 21
-7.85155
  0
LINE
  8
0
 10
17.9337
 20
-7.85155
 11
17.5311
 21
-6.94745
  0
LINE
  8
0
 10
17.5311
 20
-6.94745
 11
17.5311
 21
-5.95778
  0
LINE
  8
0
 10
17.5311
 20
-5.95778
 11
17.9337
 21
-5.05368
  0
LINE
  8
0
 10
17.9337
 20
-5.05368
 11
18.6691
 21
-4.39148
  0
LINE
  8
0
 10
18.6691
 20
-4.39148
 11
19.6104
 21
-4.08565
  0
LINE
  8
0
 10
19.6104
 20
-4.08565
 11
20.4553
 21
-4.17447
  0
LINE
  8
0
 10
20.4553
 20
-4.17447
 11
20.5038
 21
-3.95177
  0
LINE
  8
0
 10
20.5038
 20
-3.95177
 11
20.6686
 21
-2.97168
  0
LINE
  8
0
 10
20.6686
 20
-2.97168
 11
20.7423
 21
-2.35541
  0
LINE
  8
0
 10
20.7423
 20
-2.35541
 11
20.6323
 21
-2.36696
  0
LINE
  8
0
 10
20.6323
 20
-2.36696
 11
19.6911
 21
-2.06113
  0
LINE
  8
0
 10
19.6911
 20
-2.06113
 11
18.9557
 21
-1.39893
  0
LINE
  8
0
 10
18.9557
 20
-1.39893
 11
18.5531
 21
-0.494827
  0
LINE
  8
0
 10
18.5531
 20
-0.494827
 11
18.5531
 21
0.494827
  0
LINE
  8
0
 10
18.5531
 20
0.494827
 11
18.9557
 21
1.39893
  0
LINE
  8
0
 10
18.9557
 20
1.39893
 11
19.6911
 21
2.06113
  0
LINE
  8
0
 10
19.6911
 20
2.06113
 11
20.6323
 21
2.36696
  0
LINE
  8
0
 10
20.6323
 20
2.36696
 11
20.7423
 21
2.35541
  0
LINE
  8
0
 10
20.7423
 20
2.35541
 11
20.6686
 21
2.97168
  0
LINE
  8
0
 10
20.6686
 20
2.97168
 11
20.5038
 21
3.95177
  0
LINE
  8
0
 10
20.5038
 20
3.95177
 11
20.4553
 21
4.17447
  0
LINE
  8
0
 10
20.4553
 20
4.17447
 11
19.6104
 21
4.08565
  0
LINE
  8
0
 10
19.6104
 20
4.08565
 11
18.6691
 21
4.39148
  0
LINE
  8
0
 10
18.6691
 20
4.39148
 11
17.9337
 21
5.05368
  0
LINE
  8
0
 10
17.9337
 20
5.05368
 11
17.5311
 21
5.95778
  0
LINE
  8
0
 10
17.5311
 20
5.95778
 11
17.5311
 21
6.94745
  0
LINE
  8
0
 10
17.5311
 20
6.94745
 11
17.9337
 21
7.85155
  0
LINE
  8
0
 10
17.9337
 20
7.85155
 11
18.6691
 21
8.51376
  0
LINE
  8
0
 10
18.6691
 20
8.51376
 11
19.0148
 21
8.62608
  0
LINE
  8
0
 10
19.0148
 20
8.62608
 11
18.9941
 21
8.67433
  0
LINE
  8
0
 10
18.9941
 20
8.67433
 11
18.5599
 21
9.56828
  0
LINE
  8
0
 10
18.5599
 20
9.56828
 11
18.1532
 21
10.313
  0
LINE
  8
0
 10
18.1532
 20
10.313
 11
17.6286
 21
10.0101
  0
LINE
  8
0
 10
17.6286
 20
10.0101
 11
16.6444
 21
9.90665
  0
LINE
  8
0
 10
16.6444
 20
9.90665
 11
15.7032
 21
10.2125
  0
LINE
  8
0
 10
15.7032
 20
10.2125
 11
14.9677
 21
10.8747
  0
LINE
  8
0
 10
14.9677
 20
10.8747
 11
14.5652
 21
11.7788
  0
LINE
  8
0
 10
14.5652
 20
11.7788
 11
14.5652
 21
12.7684
  0
LINE
  8
0
 10
14.5652
 20
12.7684
 11
14.9677
 21
13.6725
  0
LINE
  8
0
 10
14.9677
 20
13.6725
 11
15.4157
 21
14.0759
  0
LINE
  8
0
 10
15.4157
 20
14.0759
 11
15.1124
 21
14.4096
  0
LINE
  8
0
 10
15.1124
 20
14.4096
 11
14.4096
 21
15.1124
  0
LINE
  8
0
 10
14.4096
 20
15.1124
 11
14.077
 21
15.4147
  0
LINE
  8
0
 10
14.077
 20
15.4147
 11
13.8661
 21
15.1245
  0
LINE
  8
0
 10
13.8661
 20
15.1245
 11
13.0091
 21
14.6297
  0
LINE
  8
0
 10
13.0091
 20
14.6297
 11
12.0248
 21
14.5262
  0
LINE
  8
0
 10
12.0248
 20
14.5262
 11
11.0836
 21
14.832
  0
LINE
  8
0
 10
11.0836
 20
14.832
 11
10.3481
 21
15.4942
  0
LINE
  8
0
 10
10.3481
 20
15.4942
 11
9.94562
 21
16.3983
  0
LINE
  8
0
 10
9.94562
 20
16.3983
 11
9.94562
 21
17.388
  0
LINE
  8
0
 10
9.94562
 20
17.388
 11
10.2915
 21
18.165
  0
LINE
  8
0
 10
10.2915
 20
18.165
 11
9.56828
 21
18.5599
  0
LINE
  8
0
 10
9.56828
 20
18.5599
 11
8.67433
 21
18.9941
  0
LINE
  8
0
 10
8.67433
 20
18.9941
 11
8.65089
 21
19.0042
  0
LINE
  8
0
 10
8.65089
 20
19.0042
 11
8.62686
 21
18.8911
  0
LINE
  8
0
 10
8.62686
 20
18.8911
 11
8.04515
 21
18.0904
  0
LINE
  8
0
 10
8.04515
 20
18.0904
 11
7.18808
 21
17.5956
  0
LINE
  8
0
 10
7.18808
 20
17.5956
 11
6.20384
 21
17.4922
  0
LINE
  8
0
 10
6.20384
 20
17.4922
 11
5.26262
 21
17.798
  0
LINE
  8
0
 10
5.26262
 20
17.798
 11
4.52716
 21
18.4602
  0
LINE
  8
0
 10
4.52716
 20
18.4602
 11
4.12462
 21
19.3643
  0
LINE
  8
0
 10
4.12462
 20
19.3643
 11
4.12462
 21
20.354
  0
LINE
  8
0
 10
4.12462
 20
20.354
 11
4.17017
 21
20.4563
  0
LINE
  8
0
 10
4.17017
 20
20.4563
 11
3.95177
 21
20.5038
  0
LINE
  8
0
 10
3.95177
 20
20.5038
 11
2.97168
 21
20.6686
  0
LINE
  8
0
 10
2.97168
 20
20.6686
 11
2.3506
 21
20.7428
  0
LINE
  8
0
 10
2.3506
 20
20.7428
 11
2.17422
 21
19.9131
  0
LINE
  8
0
 10
2.17422
 20
19.9131
 11
1.59253
 21
19.1124
  0
LINE
  8
0
 10
1.59253
 20
19.1124
 11
0.735458
 21
18.6176
  0
LINE
  8
0
 10
0.735458
 20
18.6176
 11
-0.248764
 21
18.5142
  0
LINE
  8
0
 10
-0.248764
 20
18.5142
 11
-1.18999
 21
18.82
  0
LINE
  8
0
 10
-1.18999
 20
18.82
 11
-1.92545
 21
19.4822
  0
LINE
  8
0
 10
-1.92545
 20
19.4822
 11
-2.32799
 21
20.3863
  0
LINE
  8
0
 10
-2.32799
 20
20.3863
 11
-2.32799
 21
20.7455
  0
LINE
  8
0
 10
-2.32799
 20
20.7455
 11
-2.97168
 21
20.6686
  0
LINE
  8
0
 10
-2.97168
 20
20.6686
 11
-3.95177
 21
20.5038
  0
LINE
  8
0
 10
-3.95177
 20
20.5038
 11
-4.19824
 21
20.4501
  0
LINE
  8
0
 10
-4.19824
 20
20.4501
 11
-4.07262
 21
19.8591
  0
LINE
  8
0
 10
-4.07262
 20
19.8591
 11
-4.27838
 21
18.8911
  0
LINE
  8
0
 10
-4.27838
 20
18.8911
 11
-4.86009
 21
18.0904
  0
LINE
  8
0
 10
-4.86009
 20
18.0904
 11
-5.71716
 21
17.5956
  0
LINE
  8
0
 10
-5.71716
 20
17.5956
 11
-6.7014
 21
17.4922
  0
LINE
  8
0
 10
-6.7014
 20
17.4922
 11
-7.64261
 21
17.798
  0
LINE
  8
0
 10
-7.64261
 20
17.798
 11
-8.37808
 21
18.4602
  0
LINE
  8
0
 10
-8.37808
 20
18.4602
 11
-8.62518
 21
19.0152
  0
LINE
  8
0
 10
-8.62518
 20
19.0152
 11
-8.67433
 21
18.9941
  0
LINE
  8
0
 10
-8.67433
 20
18.9941
 11
-9.56828
 21
18.5599
  0
LINE
  8
0
 10
-9.56828
 20
18.5599
 11
-10.312
 21
18.1538
  0
LINE
  8
0
 10
-10.312
 20
18.1538
 11
-10.0994
 21
17.8612
  0
LINE
  8
0
 10
-10.0994
 20
17.8612
 11
-9.89362
 21
16.8932
  0
LINE
  8
0
 10
-9.89362
 20
16.8932
 11
-10.0994
 21
15.9251
  0
LINE
  8
0
 10
-10.0994
 20
15.9251
 11
-10.6811
 21
15.1245
  0
LINE
  8
0
 10
-10.6811
 20
15.1245
 11
-11.5381
 21
14.6297
  0
LINE
  8
0
 10
-11.5381
 20
14.6297
 11
-12.5224
 21
14.5262
  0
LINE
  8
0
 10
-12.5224
 20
14.5262
 11
-13.4636
 21
14.832
  0
LINE
  8
0
 10
-13.4636
 20
14.832
 11
-14.0938
 21
15.3995
  0
LINE
  8
0
 10
-14.0938
 20
15.3995
 11
-14.4096
 21
15.1124
  0
LINE
  8
0
 10
-14.4096
 20
15.1124
 11
-15.1124
 21
14.4096
  0
LINE
  8
0
 10
-15.1124
 20
14.4096
 11
-15.3962
 21
14.0974
  0
LINE
  8
0
 10
-15.3962
 20
14.0974
 11
-15.3006
 21
14.0423
  0
LINE
  8
0
 10
-15.3006
 20
14.0423
 11
-14.7189
 21
13.2416
  0
LINE
  8
0
 10
-14.7189
 20
13.2416
 11
-14.5132
 21
12.2736
  0
LINE
  8
0
 10
-14.5132
 20
12.2736
 11
-14.7189
 21
11.3056
  0
LINE
  8
0
 10
-14.7189
 20
11.3056
 11
-15.3006
 21
10.5049
  0
LINE
  8
0
 10
-15.3006
 20
10.5049
 11
-16.1577
 21
10.0101
  0
LINE
  8
0
 10
-16.1577
 20
10.0101
 11
-17.142
 21
9.90665
  0
LINE
  8
0
 10
-17.142
 20
9.90665
 11
-18.0832
 21
10.2125
  0
LINE
  8
0
 10
-18.0832
 20
10.2125
 11
-18.1669
 21
10.2879
  0
LINE
  8
0
 10
-18.1669
 20
10.2879
 11
-18.5599
 21
9.56828
  0
LINE
  8
0
 10
-18.5599
 20
9.56828
 11
-18.9941
 21
8.67433
  0
LINE
  8
0
 10
-18.9941
 20
8.67433
 11
-19.0055
 21
8.64787
  0
LINE
  8
0
 10
-19.0055
 20
8.64787
 11
-18.2666
 21
8.2213
  0
LINE
  8
0
 10
-18.2666
 20
8.2213
 11
-17.6849
 21
7.42065
  0
LINE
  8
0
 10
-17.6849
 20
7.42065
 11
-17.4791
 21
6.45262
  0
LINE
  8
0
 10
-17.4791
 20
6.45262
 11
-17.6849
 21
5.48459
  0
LINE
  8
0
 10
-17.6849
 20
5.48459
 11
-18.2666
 21
4.68393
  0
LINE
  8
0
 10
-18.2666
 20
4.68393
 11
-19.1237
 21
4.1891
  0
LINE
  8
0
 10
-19.1237
 20
4.1891
 11
-20.1079
 21
4.08565
  0
LINE
  8
0
 10
-20.1079
 20
4.08565
 11
-20.4504
 21
4.19695
  0
LINE
  8
0
 10
-20.4504
 20
4.19695
 11
-20.5038
 21
3.95177
  0
LINE
  8
0
 10
-20.5038
 20
3.95177
 11
-20.6686
 21
2.97168
  0
LINE
  8
0
 10
-20.6686
 20
2.97168
 11
-20.7457
 21
2.32658
  0
LINE
  8
0
 10
-20.7457
 20
2.32658
 11
-20.1457
 21
2.2635
  0
LINE
  8
0
 10
-20.1457
 20
2.2635
 11
-19.2886
 21
1.76868
  0
LINE
  8
0
 10
-19.2886
 20
1.76868
 11
-18.7069
 21
0.968033
  0
LINE
  8
0
 10
-18.7069
 20
0.968033
 11
-18.5011
 21
0
  0
LINE
  8
0
 10
-18.5011
 20
0
 11
-18.7069
 21
-0.968033
  0
LINE
  8
0
 10
-18.7069
 20
-0.968033
 11
-19.2886
 21
-1.76868
  0
LINE
  8
0
 10
-19.2886
 20
-1.76868
 11
-20.1457
 21
-2.2635
  0
LINE
  8
0
 10
-20.1457
 20
-2.2635
 11
-20.7457
 21
-2.32658
  0
LINE
  8
0
 10
-20.7457
 20
-2.32658
 11
-20.6686
 21
-2.97168
  0
LINE
  8
0
 10
-20.6686
 20
-2.97168
 11
-20.5038
 21
-3.95177
  0
LINE
  8
0
 10
-20.5038
 20
-3.95177
 11
-20.4504
 21
-4.19695
  0
LINE
  8
0
 10
-20.4504
 20
-4.19695
 11
-20.1079
 21
-4.08565
  0
LINE
  8
0
 10
-20.1079
 20
-4.08565
 11
-19.1237
 21
-4.1891
  0
LINE
  8
0
 10
-19.1237
 20
-4.1891
 11
-18.2666
 21
-4.68393
  0
LINE
  8
0
 10
-18.2666
 20
-4.68393
 11
-17.6849
 21
-5.48459
  0
LINE
  8
0
 10
-17.6849
 20
-5.48459
 11
-17.4791
 21
-6.45262
  0
LINE
  8
0
 10
-17.4791
 20
-6.45262
 11
-17.6849
 21
-7.42065
  0
LINE
  8
0
 10
-17.6849
 20
-7.42065
 11
-18.2666
 21
-8.2213
  0
LINE
  8
0
 10
-18.2666
 20
-8.2213
 11
-19.0055
 21
-8.64787
  0
LINE
  8
0
 10
-19.0055
 20
-8.64787
 11
-18.9941
 21
-8.67433
  0
LINE
  8
0
 10
-18.9941
 20
-8.67433
 11
-18.5599
 21
-9.56828
  0
LINE
  8
0
 10
-18.5599
 20
-9.56828
 11
-18.1669
 21
-10.2879
  0
LINE
  8
0
 10
-18.1669
 20
-10.2879
 11
-18.0832
 21
-10.2125
  0
LINE
  8
0
 10
-18.0832
 20
-10.2125
 11
-17.142
 21
-9.90665
  0
LINE
  8
0
 10
-17.142
 20
-9.90665
 11
-16.1577
 21
-10.0101
  0
LINE
  8
0
 10
-16.1577
 20
-10.0101
 11
-15.3006
 21
-10.5049
  0
LINE
  8
0
 10
-15.3006
 20
-10.5049
 11
-14.7189
 21
-11.3056
  0
LINE
  8
0
 10
-14.7189
 20
-11.3056
 11
-14.5132
 21
-12.2736
  0
LINE
  8
0
 10
-14.5132
 20
-12.2736
 11
-14.7189
 21
-13.2416
  0
LINE
  8
0
 10
-14.7189
 20
-13.2416
 11
-15.3006
 21
-14.0423
  0
LINE
  8
0
 10
-15.3006
 20
-14.0423
 11
-15.3962
 21
-14.0974
  0
LINE
  8
0
 10
-15.3962
 20
-14.0974
 11
-15.1124
 21
-14.4096
  0
LINE
  8
0
 10
-15.1124
 20
-14.4096
 11
-14.4096
 21
-15.1124
  0
LINE
  8
0
 10
-14.4096
 20
-15.1124
 11
-14.0938
 21
-15.3995
  0
LINE
  8
0
 10
-14.0938
 20
-15.3995
 11
-13.4636
 21
-14.832
  0
LINE
  8
0
 10
-13.4636
 20
-14.832
 11
-12.5224
 21
-14.5262
  0
LINE
  8
0
 10
-12.5224
 20
-14.5262
 11
-11.5381
 21
-14.6297
  0
LINE
  8
0
 10
-11.5381
 20
-14.6297
 11
-10.6811
 21
-15.1245
  0
LINE
  8
0
 10
-10.6811
 20
-15.1245
 11
-10.0994
 21
-15.9251
  0
LINE
  8
0
 10
-10.0994
 20
-15.9251
 11
-9.89362
 21
-16.8932
  0
LINE
  8
0
 10
-9.89362
 20
-16.8932
 11
-10.0994
 21
-17.8612
  0
LINE
  8
0
 10
-10.0994
 20
-17.8612
 11
-10.312
 21
-18.1538
  0
LINE
  8
0
 10
-10.312
 20
-18.1538
 11
-9.56828
 21
-18.5599
  0
LINE
  8
0
 10
-9.56828
 20
-18.5599
 11
-8.67433
 21
-18.9941
  0
LINE
  8
0
 10
-8.67433
 20
-18.9941
 11
-8.62518
 21
-19.0152
  0
LINE
  8
0
 10
-8.62518
 20
-19.0152
 11
-8.37808
 21
-18.4602
  0
LINE
  8
0
 10
-8.37808
 20
-18.4602
 11
-7.64261
 21
-17.798
  0
LINE
  8
0
 10
-7.64261
 20
-17.798
 11
-6.7014
 21
-17.4922
  0
LINE
  8
0
 10
-6.7014
 20
-17.4922
 11
-5.71716
 21
-17.5956
  0
LINE
  8
0
 10
-5.71716
 20
-17.5956
 11
-4.86009
 21
-18.0904
  0
LINE
  8
0
 10
-4.86009
 20
-18.0904
 11
-4.27838
 21
-18.8911
  0
LINE
  8
0
 10
-4.27838
 20
-18.8911
 11
-4.07262
 21
-19.8591
  0
LINE
  8
0
 10
-4.07262
 20
-19.8591
 11
-4.19824
 21
-20.4501
  0
LINE
  8
0
 10
-4.19824
 20
-20.4501
 11
-3.95177
 21
-20.5038
  0
LINE
  8
0
 10
-3.95177
 20
-20.5038
 11
-2.97168
 21
-20.6686
  0
LINE
  8
0
 10
-2.97168
 20
-20.6686
 11
-2.32799
 21
-20.7455
  0
LINE
  8
0
 10
-2.32799
 20
-20.7455
 11
-2.32799
 21
-20.3863
  0
LINE
  8
0
 10
-0.995621
 20
-9.47281
 11
-1.98035
 21
-9.31685
  0
LINE
  8
0
 10
-1.98035
 20
-9.31685
 11
-2.94337
 21
-9.05881
  0
LINE
  8
0
 10
-2.94337
 20
-9.05881
 11
-3.87416
 21
-8.70151
  0
LINE
  8
0
 10
-3.87416
 20
-8.70151
 11
-4.7625
 21
-8.24889
  0
LINE
  8
0
 10
-4.7625
 20
-8.24889
 11
-5.59865
 21
-7.70589
  0
LINE
  8
0
 10
-5.59865
 20
-7.70589
 11
-6.37346
 21
-7.07845
  0
LINE
  8
0
 10
-6.37346
 20
-7.07845
 11
-7.07845
 21
-6.37346
  0
LINE
  8
0
 10
-7.07845
 20
-6.37346
 11
-7.70589
 21
-5.59865
  0
LINE
  8
0
 10
-7.70589
 20
-5.59865
 11
-8.24889
 21
-4.7625
  0
LINE
  8
0
 10
-8.24889
 20
-4.7625
 11
-8.70151
 21
-3.87416
  0
LINE
  8
0
 10
-8.70151
 20
-3.87416
 11
-9.05881
 21
-2.94337
  0
LINE
  8
0
 10
-9.05881
 20
-2.94337
 11
-9.31685
 21
-1.98035
  0
LINE
  8
0
 10
-9.31685
 20
-1.98035
 11
-9.47281
 21
-0.995621
  0
LINE
  8
0
 10
-9.47281
 20
-0.995621
 11
-9.52499
 21
0
  0
LINE
  8
0
 10
-9.52499
 20
0
 11
-9.47281
 21
0.995621
  0
LINE
  8
0
 10
-9.47281
 20
0.995621
 11
-9.31685
 21
1.98035
  0
LINE
  8
0
 10
-9.31685
 20
1.98035
 11
-9.05881
 21
2.94337
  0
LINE
  8
0
 10
-9.05881
 20
2.94337
 11
-8.70151
 21
3.87416
  0
LINE
  8
0
 10
-8.70151
 20
3.87416
 11
-8.24889
 21
4.7625
  0
LINE
  8
0
 10
-8.24889
 20
4.7625
 11
-7.70589
 21
5.59865
  0
LINE
  8
0
 10
-7.70589
 20
5.59865
 11
-7.07845
 21
6.37346
  0
LINE
  8
0
 10
-7.07845
 20
6.37346
 11
-6.37346
 21
7.07845
  0
LINE
  8
0
 10
-6.37346
 20
7.07845
 11
-5.59865
 21
7.70589
  0
LINE
  8
0
 10
-5.59865
 20
7.70589
 11
-4.7625
 21
8.24889
  0
LINE
  8
0
 10
-4.7625
 20
8.24889
 11
-3.87416
 21
8.70151
  0
LINE
  8
0
 10
-3.87416
 20
8.70151
 11
-2.94337
 21
9.05881
  0
LINE
  8
0
 10
-2.94337
 20
9.05881
 11
-1.98035
 21
9.31685
  0
LINE
  8
0
 10
-1.98035
 20
9.31685
 11
-0.995621
 21
9.47281
  0
LINE
  8
0
 10
-0.995621
 20
9.47281
 11
0
 21
9.52499
  0
LINE
  8
0
 10
0
 20
9.52499
 11
0.995621
 21
9.47281
  0
LINE
  8
0
 10
0.995621
 20
9.47281
 11
1.98035
 21
9.31685
  0
LINE
  8
0
 10
1.98035
 20
9.31685
 11
2.94337
 21
9.05881
  0
LINE
  8
0
 10
2.94337
 20
9.05881
 11
3.87416
 21
8.70151
  0
LINE
  8
0
 10
3.87416
 20
8.70151
 11
4.7625
 21
8.24889
  0
LINE
  8
0
 10
4.7625
 20
8.24889
 11
5.59865
 21
7.70589
  0
LINE
  8
0
 10
5.59865
 20
7.70589
 11
6.37346
 21
7.07845
  0
LINE
  8
0
 10
6.37346
 20
7.07845
 11
7.07845
 21
6.37346
  0
LINE
  8
0
 10
7.07845
 20
6.37346
 11
7.70589
 21
5.59865
  0
LINE
  8
0
 10
7.70589
 20
5.59865
 11
8.24889
 21
4.7625
  0
LINE
  8
0
 10
8.24889
 20
4.7625
 11
8.70151
 21
3.87416
  0
LINE
  8
0
 10
8.70151
 20
3.87416
 11
9.05881
 21
2.94337
  0
LINE
  8
0
 10
9.05881
 20
2.94337
 11
9.31685
 21
1.98035
  0
LINE
  8
0
 10
9.31685
 20
1.98035
 11
9.47281
 21
0.995621
  0
LINE
  8
0
 10
9.47281
 20
0.995621
 11
9.52499
 21
0
  0
LINE
  8
0
 10
9.52499
 20
0
 11
9.47281
 21
-0.995621
  0
LINE
  8
0
 10
9.47281
 20
-0.995621
 11
9.31685
 21
-1.98035
  0
LINE
  8
0
 10
9.31685
 20
-1.98035
 11
9.05881
 21
-2.94337
  0
LINE
  8
0
 10
9.05881
 20
-2.94337
 11
8.70151
 21
-3.87416
  0
LINE
  8
0
 10
8.70151
 20
-3.87416
 11
8.24889
 21
-4.7625
  0
LINE
  8
0
 10
8.24889
 20
-4.7625
 11
7.70589
 21
-5.59865
  0
LINE
  8
0
 10
7.70589
 20
-5.59865
 11
7.07845
 21
-6.37346
  0
LINE
  8
0
 10
7.07845
 20
-6.37346
 11
6.37346
 21
-7.07845
  0
LINE
  8
0
 10
6.37346
 20
-7.07845
 11
5.59865
 21
-7.70589
  0
LINE
  8
0
 10
5.59865
 20
-7.70589
 11
4.7625
 21
-8.24889
  0
LINE
  8
0
 10
4.7625
 20
-8.24889
 11
3.87416
 21
-8.70151
  0
LINE
  8
0
 10
3.87416
 20
-8.70151
 11
2.94337
 21
-9.05881
  0
LINE
  8
0
 10
2.94337
 20
-9.05881
 11
1.98035
 21
-9.31685
  0
LINE
  8
0
 10
1.98035
 20
-9.31685
 11
0.995621
 21
-9.47281
  0
LINE
  8
0
 10
0.995621
 20
-9.47281
 11
0
 21
-9.52499
  0
LINE
  8
0
 10
0
 20
-9.52499
 11
-0.995621
 21
-9.47281
  0
ENDSEC
  0
SECTION
  2
OBJECTS
  0
DICTIONARY
  0
ENDSEC
  0
EOF
