  0
SECTION
  2
BLOCKS
  0
ENDSEC
  0
SECTION
  2
ENTITIES
  0
LINE
  8
0
 10
63.45
 20
21.15
 11
-21.15
 21
21.15
  0
LINE
  8
0
 10
-21.15
 20
21.15
 11
-21.15
 21
-21.15
  0
LINE
  8
0
 10
-21.15
 20
-21.15
 11
63.45
 21
-21.15
  0
LINE
  8
0
 10
63.45
 20
-21.15
 11
63.45
 21
21.15
  0
LINE
  8
0
 10
-16.6133
 20
14.2152
 11
-17.1311
 21
15.021
  0
LINE
  8
0
 10
-17.1311
 20
15.021
 11
-17.1311
 21
15.9789
  0
LINE
  8
0
 10
-17.1311
 20
15.9789
 11
-16.6133
 21
16.7848
  0
LINE
  8
0
 10
-16.6133
 20
16.7848
 11
-15.7419
 21
17.1827
  0
LINE
  8
0
 10
-15.7419
 20
17.1827
 11
-14.7938
 21
17.0464
  0
LINE
  8
0
 10
-14.7938
 20
17.0464
 11
-14.0699
 21
16.4191
  0
LINE
  8
0
 10
-14.0699
 20
16.4191
 11
-13.8
 21
15.5
  0
LINE
  8
0
 10
-13.8
 20
15.5
 11
-14.0699
 21
14.5809
  0
LINE
  8
0
 10
-14.0699
 20
14.5809
 11
-14.7938
 21
13.9536
  0
LINE
  8
0
 10
-14.7938
 20
13.9536
 11
-15.7419
 21
13.8173
  0
LINE
  8
0
 10
-15.7419
 20
13.8173
 11
-16.6133
 21
14.2152
  0
LINE
  8
0
 10
14.3867
 20
14.2152
 11
13.8689
 21
15.021
  0
LINE
  8
0
 10
13.8689
 20
15.021
 11
13.8689
 21
15.9789
  0
LINE
  8
0
 10
13.8689
 20
15.9789
 11
14.3867
 21
16.7848
  0
LINE
  8
0
 10
14.3867
 20
16.7848
 11
15.2581
 21
17.1827
  0
LINE
  8
0
 10
15.2581
 20
17.1827
 11
16.2062
 21
17.0464
  0
LINE
  8
0
 10
16.2062
 20
17.0464
 11
16.9301
 21
16.4191
  0
LINE
  8
0
 10
16.9301
 20
16.4191
 11
17.2
 21
15.5
  0
LINE
  8
0
 10
17.2
 20
15.5
 11
16.9301
 21
14.5809
  0
LINE
  8
0
 10
16.9301
 20
14.5809
 11
16.2062
 21
13.9536
  0
LINE
  8
0
 10
16.2062
 20
13.9536
 11
15.2581
 21
13.8173
  0
LINE
  8
0
 10
15.2581
 20
13.8173
 11
14.3867
 21
14.2152
  0
LINE
  8
0
 10
-0.4935
 20
-10.9889
 11
-1.47656
 21
-10.9004
  0
LINE
  8
0
 10
-1.47656
 20
-10.9004
 11
-2.44772
 21
-10.7242
  0
LINE
  8
0
 10
-2.44772
 20
-10.7242
 11
-3.39919
 21
-10.4616
  0
LINE
  8
0
 10
-3.39919
 20
-10.4616
 11
-4.32327
 21
-10.1148
  0
LINE
  8
0
 10
-4.32327
 20
-10.1148
 11
-5.21255
 21
-9.68654
  0
LINE
  8
0
 10
-5.21255
 20
-9.68654
 11
-6.05986
 21
-9.1803
  0
LINE
  8
0
 10
-6.05986
 20
-9.1803
 11
-6.85838
 21
-8.60014
  0
LINE
  8
0
 10
-6.85838
 20
-8.60014
 11
-7.60168
 21
-7.95073
  0
LINE
  8
0
 10
-7.60168
 20
-7.95073
 11
-8.28378
 21
-7.23732
  0
LINE
  8
0
 10
-8.28378
 20
-7.23732
 11
-8.89919
 21
-6.46564
  0
LINE
  8
0
 10
-8.89919
 20
-6.46564
 11
-9.44293
 21
-5.64189
  0
LINE
  8
0
 10
-9.44293
 20
-5.64189
 11
-9.91064
 21
-4.77272
  0
LINE
  8
0
 10
-9.91064
 20
-4.77272
 11
-10.2986
 21
-3.86511
  0
LINE
  8
0
 10
-10.2986
 20
-3.86511
 11
-10.6036
 21
-2.92639
  0
LINE
  8
0
 10
-10.6036
 20
-2.92639
 11
-10.8232
 21
-1.96411
  0
LINE
  8
0
 10
-10.8232
 20
-1.96411
 11
-10.9557
 21
-0.986023
  0
LINE
  8
0
 10
-10.9557
 20
-0.986023
 11
-11
 21
0
  0
LINE
  8
0
 10
-11
 20
0
 11
-10.9557
 21
0.986023
  0
LINE
  8
0
 10
-10.9557
 20
0.986023
 11
-10.8232
 21
1.96411
  0
LINE
  8
0
 10
-10.8232
 20
1.96411
 11
-10.6036
 21
2.92639
  0
LINE
  8
0
 10
-10.6036
 20
2.92639
 11
-10.2986
 21
3.86511
  0
LINE
  8
0
 10
-10.2986
 20
3.86511
 11
-9.91064
 21
4.77272
  0
LINE
  8
0
 10
-9.91064
 20
4.77272
 11
-9.44293
 21
5.64189
  0
LINE
  8
0
 10
-9.44293
 20
5.64189
 11
-8.89919
 21
6.46564
  0
LINE
  8
0
 10
-8.89919
 20
6.46564
 11
-8.28378
 21
7.23732
  0
LINE
  8
0
 10
-8.28378
 20
7.23732
 11
-7.60168
 21
7.95073
  0
LINE
  8
0
 10
-7.60168
 20
7.95073
 11
-6.85838
 21
8.60014
  0
LINE
  8
0
 10
-6.85838
 20
8.60014
 11
-6.05986
 21
9.1803
  0
LINE
  8
0
 10
-6.05986
 20
9.1803
 11
-5.21255
 21
9.68654
  0
LINE
  8
0
 10
-5.21255
 20
9.68654
 11
-4.32327
 21
10.1148
  0
LINE
  8
0
 10
-4.32327
 20
10.1148
 11
-3.39919
 21
10.4616
  0
LINE
  8
0
 10
-3.39919
 20
10.4616
 11
-2.44772
 21
10.7242
  0
LINE
  8
0
 10
-2.44772
 20
10.7242
 11
-1.47656
 21
10.9004
  0
LINE
  8
0
 10
-1.47656
 20
10.9004
 11
-0.4935
 21
10.9889
  0
LINE
  8
0
 10
-0.4935
 20
10.9889
 11
0.4935
 21
10.9889
  0
LINE
  8
0
 10
0.4935
 20
10.9889
 11
1.47656
 21
10.9004
  0
LINE
  8
0
 10
1.47656
 20
10.9004
 11
2.44772
 21
10.7242
  0
LINE
  8
0
 10
2.44772
 20
10.7242
 11
3.39919
 21
10.4616
  0
LINE
  8
0
 10
3.39919
 20
10.4616
 11
4.32327
 21
10.1148
  0
LINE
  8
0
 10
4.32327
 20
10.1148
 11
5.21255
 21
9.68654
  0
LINE
  8
0
 10
5.21255
 20
9.68654
 11
6.05986
 21
9.1803
  0
LINE
  8
0
 10
6.05986
 20
9.1803
 11
6.85838
 21
8.60014
  0
LINE
  8
0
 10
6.85838
 20
8.60014
 11
7.60168
 21
7.95073
  0
LINE
  8
0
 10
7.60168
 20
7.95073
 11
8.28378
 21
7.23732
  0
LINE
  8
0
 10
8.28378
 20
7.23732
 11
8.89919
 21
6.46564
  0
LINE
  8
0
 10
8.89919
 20
6.46564
 11
9.44293
 21
5.64189
  0
LINE
  8
0
 10
9.44293
 20
5.64189
 11
9.91064
 21
4.77272
  0
LINE
  8
0
 10
9.91064
 20
4.77272
 11
10.2986
 21
3.86511
  0
LINE
  8
0
 10
10.2986
 20
3.86511
 11
10.6036
 21
2.92639
  0
LINE
  8
0
 10
10.6036
 20
2.92639
 11
10.8232
 21
1.96411
  0
LINE
  8
0
 10
10.8232
 20
1.96411
 11
10.9557
 21
0.986023
  0
LINE
  8
0
 10
10.9557
 20
0.986023
 11
11
 21
0
  0
LINE
  8
0
 10
11
 20
0
 11
10.9557
 21
-0.986023
  0
LINE
  8
0
 10
10.9557
 20
-0.986023
 11
10.8232
 21
-1.96411
  0
LINE
  8
0
 10
10.8232
 20
-1.96411
 11
10.6036
 21
-2.92639
  0
LINE
  8
0
 10
10.6036
 20
-2.92639
 11
10.2986
 21
-3.86511
  0
LINE
  8
0
 10
10.2986
 20
-3.86511
 11
9.91064
 21
-4.77272
  0
LINE
  8
0
 10
9.91064
 20
-4.77272
 11
9.44293
 21
-5.64189
  0
LINE
  8
0
 10
9.44293
 20
-5.64189
 11
8.89919
 21
-6.46564
  0
LINE
  8
0
 10
8.89919
 20
-6.46564
 11
8.28378
 21
-7.23732
  0
LINE
  8
0
 10
8.28378
 20
-7.23732
 11
7.60168
 21
-7.95073
  0
LINE
  8
0
 10
7.60168
 20
-7.95073
 11
6.85838
 21
-8.60014
  0
LINE
  8
0
 10
6.85838
 20
-8.60014
 11
6.05986
 21
-9.1803
  0
LINE
  8
0
 10
6.05986
 20
-9.1803
 11
5.21255
 21
-9.68654
  0
LINE
  8
0
 10
5.21255
 20
-9.68654
 11
4.32327
 21
-10.1148
  0
LINE
  8
0
 10
4.32327
 20
-10.1148
 11
3.39919
 21
-10.4616
  0
LINE
  8
0
 10
3.39919
 20
-10.4616
 11
2.44772
 21
-10.7242
  0
LINE
  8
0
 10
2.44772
 20
-10.7242
 11
1.47656
 21
-10.9004
  0
LINE
  8
0
 10
1.47656
 20
-10.9004
 11
0.4935
 21
-10.9889
  0
LINE
  8
0
 10
0.4935
 20
-10.9889
 11
-0.4935
 21
-10.9889
  0
LINE
  8
0
 10
-16.6133
 20
-16.7848
 11
-17.1311
 21
-15.9789
  0
LINE
  8
0
 10
-17.1311
 20
-15.9789
 11
-17.1311
 21
-15.021
  0
LINE
  8
0
 10
-17.1311
 20
-15.021
 11
-16.6133
 21
-14.2152
  0
LINE
  8
0
 10
-16.6133
 20
-14.2152
 11
-15.7419
 21
-13.8173
  0
LINE
  8
0
 10
-15.7419
 20
-13.8173
 11
-14.7938
 21
-13.9536
  0
LINE
  8
0
 10
-14.7938
 20
-13.9536
 11
-14.0699
 21
-14.5809
  0
LINE
  8
0
 10
-14.0699
 20
-14.5809
 11
-13.8
 21
-15.5
  0
LINE
  8
0
 10
-13.8
 20
-15.5
 11
-14.0699
 21
-16.4191
  0
LINE
  8
0
 10
-14.0699
 20
-16.4191
 11
-14.7938
 21
-17.0464
  0
LINE
  8
0
 10
-14.7938
 20
-17.0464
 11
-15.7419
 21
-17.1827
  0
LINE
  8
0
 10
-15.7419
 20
-17.1827
 11
-16.6133
 21
-16.7848
  0
LINE
  8
0
 10
14.3867
 20
-16.7848
 11
13.8689
 21
-15.9789
  0
LINE
  8
0
 10
13.8689
 20
-15.9789
 11
13.8689
 21
-15.021
  0
LINE
  8
0
 10
13.8689
 20
-15.021
 11
14.3867
 21
-14.2152
  0
LINE
  8
0
 10
14.3867
 20
-14.2152
 11
15.2581
 21
-13.8173
  0
LINE
  8
0
 10
15.2581
 20
-13.8173
 11
16.2062
 21
-13.9536
  0
LINE
  8
0
 10
16.2062
 20
-13.9536
 11
16.9301
 21
-14.5809
  0
LINE
  8
0
 10
16.9301
 20
-14.5809
 11
17.2
 21
-15.5
  0
LINE
  8
0
 10
17.2
 20
-15.5
 11
16.9301
 21
-16.4191
  0
LINE
  8
0
 10
16.9301
 20
-16.4191
 11
16.2062
 21
-17.0464
  0
LINE
  8
0
 10
16.2062
 20
-17.0464
 11
15.2581
 21
-17.1827
  0
LINE
  8
0
 10
15.2581
 20
-17.1827
 11
14.3867
 21
-16.7848
  0
ENDSEC
  0
SECTION
  2
OBJECTS
  0
DICTIONARY
  0
ENDSEC
  0
EOF
