  0
SECTION
  2
BLOCKS
  0
ENDSEC
  0
SECTION
  2
ENTITIES
  0
LINE
  8
0
 10
150
 20
100
 11
0
 21
100
  0
LINE
  8
0
 10
0
 20
100
 11
0
 21
57.9375
  0
LINE
  8
0
 10
0
 20
57.9375
 11
73.6149
 21
67.2847
  0
LINE
  8
0
 10
73.6149
 20
67.2847
 11
74.1132
 21
67.8883
  0
LINE
  8
0
 10
74.1132
 20
67.8883
 11
74.7765
 21
68.6349
  0
LINE
  8
0
 10
74.7765
 20
68.6349
 11
75.4665
 21
69.3569
  0
LINE
  8
0
 10
75.4665
 20
69.3569
 11
76.1822
 21
70.0535
  0
LINE
  8
0
 10
76.1822
 20
70.0535
 11
76.9228
 21
70.7235
  0
LINE
  8
0
 10
76.9228
 20
70.7235
 11
77.6872
 21
71.3663
  0
LINE
  8
0
 10
77.6872
 20
71.3663
 11
78.4745
 21
71.9808
  0
LINE
  8
0
 10
78.4745
 20
71.9808
 11
79.2835
 21
72.5664
  0
LINE
  8
0
 10
79.2835
 20
72.5664
 11
80.1133
 21
73.1222
  0
LINE
  8
0
 10
80.1133
 20
73.1222
 11
80.9627
 21
73.6475
  0
LINE
  8
0
 10
80.9627
 20
73.6475
 11
81.8306
 21
74.1416
  0
LINE
  8
0
 10
81.8306
 20
74.1416
 11
82.7159
 21
74.6039
  0
LINE
  8
0
 10
82.7159
 20
74.6039
 11
83.6174
 21
75.0337
  0
LINE
  8
0
 10
83.6174
 20
75.0337
 11
84.5339
 21
75.4305
  0
LINE
  8
0
 10
84.5339
 20
75.4305
 11
85.4642
 21
75.7938
  0
LINE
  8
0
 10
85.4642
 20
75.7938
 11
86.4071
 21
76.123
  0
LINE
  8
0
 10
86.4071
 20
76.123
 11
87.3613
 21
76.4178
  0
LINE
  8
0
 10
87.3613
 20
76.4178
 11
88.3256
 21
76.6777
  0
LINE
  8
0
 10
88.3256
 20
76.6777
 11
89.2987
 21
76.9025
  0
LINE
  8
0
 10
89.2987
 20
76.9025
 11
90.2793
 21
77.0918
  0
LINE
  8
0
 10
90.2793
 20
77.0918
 11
91.2662
 21
77.2453
  0
LINE
  8
0
 10
91.2662
 20
77.2453
 11
92.2579
 21
77.3629
  0
LINE
  8
0
 10
92.2579
 20
77.3629
 11
93.2533
 21
77.4445
  0
LINE
  8
0
 10
93.2533
 20
77.4445
 11
94.251
 21
77.4898
  0
LINE
  8
0
 10
94.251
 20
77.4898
 11
95.2497
 21
77.4989
  0
LINE
  8
0
 10
95.2497
 20
77.4989
 11
96.248
 21
77.4717
  0
LINE
  8
0
 10
96.248
 20
77.4717
 11
97.2447
 21
77.4082
  0
LINE
  8
0
 10
97.2447
 20
77.4082
 11
98.2385
 21
77.3086
  0
LINE
  8
0
 10
98.2385
 20
77.3086
 11
99.2279
 21
77.173
  0
LINE
  8
0
 10
99.2279
 20
77.173
 11
100.212
 21
77.0016
  0
LINE
  8
0
 10
100.212
 20
77.0016
 11
101.189
 21
76.7945
  0
LINE
  8
0
 10
101.189
 20
76.7945
 11
102.158
 21
76.5522
  0
LINE
  8
0
 10
102.158
 20
76.5522
 11
103.117
 21
76.2747
  0
LINE
  8
0
 10
103.117
 20
76.2747
 11
104.066
 21
75.9627
  0
LINE
  8
0
 10
104.066
 20
75.9627
 11
105.003
 21
75.6164
  0
LINE
  8
0
 10
105.003
 20
75.6164
 11
105.926
 21
75.2363
  0
LINE
  8
0
 10
105.926
 20
75.2363
 11
106.835
 21
74.8229
  0
LINE
  8
0
 10
106.835
 20
74.8229
 11
107.729
 21
74.3768
  0
LINE
  8
0
 10
107.729
 20
74.3768
 11
108.606
 21
73.8985
  0
LINE
  8
0
 10
108.606
 20
73.8985
 11
109.464
 21
73.3887
  0
LINE
  8
0
 10
109.464
 20
73.3887
 11
110.304
 21
72.8481
  0
LINE
  8
0
 10
110.304
 20
72.8481
 11
111.124
 21
72.2773
  0
LINE
  8
0
 10
111.124
 20
72.2773
 11
111.922
 21
71.6771
  0
LINE
  8
0
 10
111.922
 20
71.6771
 11
112.698
 21
71.0484
  0
LINE
  8
0
 10
112.698
 20
71.0484
 11
113.451
 21
70.3919
  0
LINE
  8
0
 10
113.451
 20
70.3919
 11
114.179
 21
69.7085
  0
LINE
  8
0
 10
114.179
 20
69.7085
 11
114.882
 21
68.9991
  0
LINE
  8
0
 10
114.882
 20
68.9991
 11
115.559
 21
68.2646
  0
LINE
  8
0
 10
115.559
 20
68.2646
 11
116.208
 21
67.5061
  0
LINE
  8
0
 10
116.208
 20
67.5061
 11
116.83
 21
66.7244
  0
LINE
  8
0
 10
116.83
 20
66.7244
 11
117.423
 21
65.9207
  0
LINE
  8
0
 10
117.423
 20
65.9207
 11
117.986
 21
65.096
  0
LINE
  8
0
 10
117.986
 20
65.096
 11
118.519
 21
64.2514
  0
LINE
  8
0
 10
118.519
 20
64.2514
 11
119.021
 21
63.388
  0
LINE
  8
0
 10
119.021
 20
63.388
 11
119.491
 21
62.507
  0
LINE
  8
0
 10
119.491
 20
62.507
 11
119.929
 21
61.6094
  0
LINE
  8
0
 10
119.929
 20
61.6094
 11
120.334
 21
60.6966
  0
LINE
  8
0
 10
120.334
 20
60.6966
 11
120.706
 21
59.7696
  0
LINE
  8
0
 10
120.706
 20
59.7696
 11
121.044
 21
58.8297
  0
LINE
  8
0
 10
121.044
 20
58.8297
 11
121.347
 21
57.8782
  0
LINE
  8
0
 10
121.347
 20
57.8782
 11
121.616
 21
56.9163
  0
LINE
  8
0
 10
121.616
 20
56.9163
 11
121.85
 21
55.9453
  0
LINE
  8
0
 10
121.85
 20
55.9453
 11
122.048
 21
54.9664
  0
LINE
  8
0
 10
122.048
 20
54.9664
 11
122.21
 21
53.981
  0
LINE
  8
0
 10
122.21
 20
53.981
 11
122.337
 21
52.9904
  0
LINE
  8
0
 10
122.337
 20
52.9904
 11
122.427
 21
51.9958
  0
LINE
  8
0
 10
122.427
 20
51.9958
 11
122.482
 21
50.9986
  0
LINE
  8
0
 10
122.482
 20
50.9986
 11
122.5
 21
50
  0
LINE
  8
0
 10
122.5
 20
50
 11
122.482
 21
49.0014
  0
LINE
  8
0
 10
122.482
 20
49.0014
 11
122.427
 21
48.0042
  0
LINE
  8
0
 10
122.427
 20
48.0042
 11
122.337
 21
47.0096
  0
LINE
  8
0
 10
122.337
 20
47.0096
 11
122.21
 21
46.0189
  0
LINE
  8
0
 10
122.21
 20
46.0189
 11
122.048
 21
45.0335
  0
LINE
  8
0
 10
122.048
 20
45.0335
 11
121.85
 21
44.0547
  0
LINE
  8
0
 10
121.85
 20
44.0547
 11
121.616
 21
43.0837
  0
LINE
  8
0
 10
121.616
 20
43.0837
 11
121.347
 21
42.1218
  0
LINE
  8
0
 10
121.347
 20
42.1218
 11
121.044
 21
41.1703
  0
LINE
  8
0
 10
121.044
 20
41.1703
 11
120.706
 21
40.2304
  0
LINE
  8
0
 10
120.706
 20
40.2304
 11
120.334
 21
39.3034
  0
LINE
  8
0
 10
120.334
 20
39.3034
 11
119.929
 21
38.3906
  0
LINE
  8
0
 10
119.929
 20
38.3906
 11
119.491
 21
37.493
  0
LINE
  8
0
 10
119.491
 20
37.493
 11
119.021
 21
36.612
  0
LINE
  8
0
 10
119.021
 20
36.612
 11
118.519
 21
35.7486
  0
LINE
  8
0
 10
118.519
 20
35.7486
 11
117.986
 21
34.9039
  0
LINE
  8
0
 10
117.986
 20
34.9039
 11
117.423
 21
34.0793
  0
LINE
  8
0
 10
117.423
 20
34.0793
 11
116.83
 21
33.2756
  0
LINE
  8
0
 10
116.83
 20
33.2756
 11
116.208
 21
32.4939
  0
LINE
  8
0
 10
116.208
 20
32.4939
 11
115.559
 21
31.7354
  0
LINE
  8
0
 10
115.559
 20
31.7354
 11
114.882
 21
31.0009
  0
LINE
  8
0
 10
114.882
 20
31.0009
 11
114.179
 21
30.2915
  0
LINE
  8
0
 10
114.179
 20
30.2915
 11
113.451
 21
29.6081
  0
LINE
  8
0
 10
113.451
 20
29.6081
 11
112.698
 21
28.9516
  0
LINE
  8
0
 10
112.698
 20
28.9516
 11
111.922
 21
28.3229
  0
LINE
  8
0
 10
111.922
 20
28.3229
 11
111.124
 21
27.7227
  0
LINE
  8
0
 10
111.124
 20
27.7227
 11
110.304
 21
27.1519
  0
LINE
  8
0
 10
110.304
 20
27.1519
 11
109.464
 21
26.6113
  0
LINE
  8
0
 10
109.464
 20
26.6113
 11
108.606
 21
26.1015
  0
LINE
  8
0
 10
108.606
 20
26.1015
 11
107.729
 21
25.6232
  0
LINE
  8
0
 10
107.729
 20
25.6232
 11
106.835
 21
25.1771
  0
LINE
  8
0
 10
106.835
 20
25.1771
 11
105.926
 21
24.7637
  0
LINE
  8
0
 10
105.926
 20
24.7637
 11
105.003
 21
24.3836
  0
LINE
  8
0
 10
105.003
 20
24.3836
 11
104.066
 21
24.0373
  0
LINE
  8
0
 10
104.066
 20
24.0373
 11
103.117
 21
23.7253
  0
LINE
  8
0
 10
103.117
 20
23.7253
 11
102.158
 21
23.4478
  0
LINE
  8
0
 10
102.158
 20
23.4478
 11
101.189
 21
23.2054
  0
LINE
  8
0
 10
101.189
 20
23.2054
 11
100.212
 21
22.9984
  0
LINE
  8
0
 10
100.212
 20
22.9984
 11
99.2279
 21
22.827
  0
LINE
  8
0
 10
99.2279
 20
22.827
 11
98.2385
 21
22.6913
  0
LINE
  8
0
 10
98.2385
 20
22.6913
 11
97.2447
 21
22.5918
  0
LINE
  8
0
 10
97.2447
 20
22.5918
 11
96.248
 21
22.5283
  0
LINE
  8
0
 10
96.248
 20
22.5283
 11
95.2497
 21
22.5011
  0
LINE
  8
0
 10
95.2497
 20
22.5011
 11
94.251
 21
22.5102
  0
LINE
  8
0
 10
94.251
 20
22.5102
 11
93.2533
 21
22.5555
  0
LINE
  8
0
 10
93.2533
 20
22.5555
 11
92.2579
 21
22.637
  0
LINE
  8
0
 10
92.2579
 20
22.637
 11
91.2662
 21
22.7547
  0
LINE
  8
0
 10
91.2662
 20
22.7547
 11
90.2793
 21
22.9082
  0
LINE
  8
0
 10
90.2793
 20
22.9082
 11
89.2987
 21
23.0975
  0
LINE
  8
0
 10
89.2987
 20
23.0975
 11
88.3256
 21
23.3222
  0
LINE
  8
0
 10
88.3256
 20
23.3222
 11
87.3613
 21
23.5822
  0
LINE
  8
0
 10
87.3613
 20
23.5822
 11
86.4071
 21
23.877
  0
LINE
  8
0
 10
86.4071
 20
23.877
 11
85.4642
 21
24.2062
  0
LINE
  8
0
 10
85.4642
 20
24.2062
 11
84.5339
 21
24.5695
  0
LINE
  8
0
 10
84.5339
 20
24.5695
 11
83.6174
 21
24.9663
  0
LINE
  8
0
 10
83.6174
 20
24.9663
 11
82.7159
 21
25.3961
  0
LINE
  8
0
 10
82.7159
 20
25.3961
 11
81.8306
 21
25.8584
  0
LINE
  8
0
 10
81.8306
 20
25.8584
 11
80.9627
 21
26.3525
  0
LINE
  8
0
 10
80.9627
 20
26.3525
 11
80.1133
 21
26.8778
  0
LINE
  8
0
 10
80.1133
 20
26.8778
 11
79.2835
 21
27.4336
  0
LINE
  8
0
 10
79.2835
 20
27.4336
 11
78.4745
 21
28.0192
  0
LINE
  8
0
 10
78.4745
 20
28.0192
 11
77.6872
 21
28.6337
  0
LINE
  8
0
 10
77.6872
 20
28.6337
 11
76.9228
 21
29.2765
  0
LINE
  8
0
 10
76.9228
 20
29.2765
 11
76.1822
 21
29.9465
  0
LINE
  8
0
 10
76.1822
 20
29.9465
 11
75.4665
 21
30.643
  0
LINE
  8
0
 10
75.4665
 20
30.643
 11
74.7765
 21
31.3651
  0
LINE
  8
0
 10
74.7765
 20
31.3651
 11
74.1132
 21
32.1117
  0
LINE
  8
0
 10
74.1132
 20
32.1117
 11
73.6149
 21
32.7153
  0
LINE
  8
0
 10
73.6149
 20
32.7153
 11
0
 21
42.0625
  0
LINE
  8
0
 10
0
 20
42.0625
 11
0
 21
0
  0
LINE
  8
0
 10
0
 20
0
 11
150
 21
0
  0
LINE
  8
0
 10
150
 20
0
 11
150
 21
100
  0
LINE
  8
0
 10
95.9968
 20
34.1563
 11
96.9897
 21
34.2502
  0
LINE
  8
0
 10
96.9897
 20
34.2502
 11
97.9747
 21
34.4062
  0
LINE
  8
0
 10
97.9747
 20
34.4062
 11
98.9479
 21
34.6237
  0
LINE
  8
0
 10
98.9479
 20
34.6237
 11
99.9056
 21
34.902
  0
LINE
  8
0
 10
99.9056
 20
34.902
 11
100.844
 21
35.2398
  0
LINE
  8
0
 10
100.844
 20
35.2398
 11
101.759
 21
35.6359
  0
LINE
  8
0
 10
101.759
 20
35.6359
 11
102.648
 21
36.0886
  0
LINE
  8
0
 10
102.648
 20
36.0886
 11
103.506
 21
36.5963
  0
LINE
  8
0
 10
103.506
 20
36.5963
 11
104.331
 21
37.1569
  0
LINE
  8
0
 10
104.331
 20
37.1569
 11
105.119
 21
37.7681
  0
LINE
  8
0
 10
105.119
 20
37.7681
 11
105.867
 21
38.4276
  0
LINE
  8
0
 10
105.867
 20
38.4276
 11
106.572
 21
39.1328
  0
LINE
  8
0
 10
106.572
 20
39.1328
 11
107.232
 21
39.8809
  0
LINE
  8
0
 10
107.232
 20
39.8809
 11
107.843
 21
40.6689
  0
LINE
  8
0
 10
107.843
 20
40.6689
 11
108.404
 21
41.4938
  0
LINE
  8
0
 10
108.404
 20
41.4938
 11
108.911
 21
42.3522
  0
LINE
  8
0
 10
108.911
 20
42.3522
 11
109.364
 21
43.2408
  0
LINE
  8
0
 10
109.364
 20
43.2408
 11
109.76
 21
44.156
  0
LINE
  8
0
 10
109.76
 20
44.156
 11
110.098
 21
45.0944
  0
LINE
  8
0
 10
110.098
 20
45.0944
 11
110.376
 21
46.0521
  0
LINE
  8
0
 10
110.376
 20
46.0521
 11
110.594
 21
47.0253
  0
LINE
  8
0
 10
110.594
 20
47.0253
 11
110.75
 21
48.0103
  0
LINE
  8
0
 10
110.75
 20
48.0103
 11
110.844
 21
49.0032
  0
LINE
  8
0
 10
110.844
 20
49.0032
 11
110.875
 21
50
  0
LINE
  8
0
 10
110.875
 20
50
 11
110.844
 21
50.9968
  0
LINE
  8
0
 10
110.844
 20
50.9968
 11
110.75
 21
51.9897
  0
LINE
  8
0
 10
110.75
 20
51.9897
 11
110.594
 21
52.9747
  0
LINE
  8
0
 10
110.594
 20
52.9747
 11
110.376
 21
53.9479
  0
LINE
  8
0
 10
110.376
 20
53.9479
 11
110.098
 21
54.9056
  0
LINE
  8
0
 10
110.098
 20
54.9056
 11
109.76
 21
55.844
  0
LINE
  8
0
 10
109.76
 20
55.844
 11
109.364
 21
56.7592
  0
LINE
  8
0
 10
109.364
 20
56.7592
 11
108.911
 21
57.6478
  0
LINE
  8
0
 10
108.911
 20
57.6478
 11
108.404
 21
58.5062
  0
LINE
  8
0
 10
108.404
 20
58.5062
 11
107.843
 21
59.3311
  0
LINE
  8
0
 10
107.843
 20
59.3311
 11
107.232
 21
60.1191
  0
LINE
  8
0
 10
107.232
 20
60.1191
 11
106.572
 21
60.8672
  0
LINE
  8
0
 10
106.572
 20
60.8672
 11
105.867
 21
61.5724
  0
LINE
  8
0
 10
105.867
 20
61.5724
 11
105.119
 21
62.2319
  0
LINE
  8
0
 10
105.119
 20
62.2319
 11
104.331
 21
62.8431
  0
LINE
  8
0
 10
104.331
 20
62.8431
 11
103.506
 21
63.4037
  0
LINE
  8
0
 10
103.506
 20
63.4037
 11
102.648
 21
63.9114
  0
LINE
  8
0
 10
102.648
 20
63.9114
 11
101.759
 21
64.3641
  0
LINE
  8
0
 10
101.759
 20
64.3641
 11
100.844
 21
64.7602
  0
LINE
  8
0
 10
100.844
 20
64.7602
 11
99.9056
 21
65.098
  0
LINE
  8
0
 10
99.9056
 20
65.098
 11
98.9479
 21
65.3763
  0
LINE
  8
0
 10
98.9479
 20
65.3763
 11
97.9747
 21
65.5938
  0
LINE
  8
0
 10
97.9747
 20
65.5938
 11
96.9897
 21
65.7498
  0
LINE
  8
0
 10
96.9897
 20
65.7498
 11
95.9968
 21
65.8437
  0
LINE
  8
0
 10
95.9968
 20
65.8437
 11
95
 21
65.875
  0
LINE
  8
0
 10
95
 20
65.875
 11
94.0032
 21
65.8437
  0
LINE
  8
0
 10
94.0032
 20
65.8437
 11
93.0103
 21
65.7498
  0
LINE
  8
0
 10
93.0103
 20
65.7498
 11
92.0253
 21
65.5938
  0
LINE
  8
0
 10
92.0253
 20
65.5938
 11
91.0521
 21
65.3763
  0
LINE
  8
0
 10
91.0521
 20
65.3763
 11
90.0944
 21
65.098
  0
LINE
  8
0
 10
90.0944
 20
65.098
 11
89.156
 21
64.7602
  0
LINE
  8
0
 10
89.156
 20
64.7602
 11
88.2408
 21
64.3641
  0
LINE
  8
0
 10
88.2408
 20
64.3641
 11
87.3522
 21
63.9114
  0
LINE
  8
0
 10
87.3522
 20
63.9114
 11
86.4938
 21
63.4037
  0
LINE
  8
0
 10
86.4938
 20
63.4037
 11
85.6689
 21
62.8431
  0
LINE
  8
0
 10
85.6689
 20
62.8431
 11
84.8809
 21
62.2319
  0
LINE
  8
0
 10
84.8809
 20
62.2319
 11
84.1328
 21
61.5724
  0
LINE
  8
0
 10
84.1328
 20
61.5724
 11
83.4276
 21
60.8672
  0
LINE
  8
0
 10
83.4276
 20
60.8672
 11
82.7681
 21
60.1191
  0
LINE
  8
0
 10
82.7681
 20
60.1191
 11
82.1569
 21
59.3311
  0
LINE
  8
0
 10
82.1569
 20
59.3311
 11
81.5963
 21
58.5062
  0
LINE
  8
0
 10
81.5963
 20
58.5062
 11
81.0886
 21
57.6478
  0
LINE
  8
0
 10
81.0886
 20
57.6478
 11
80.6359
 21
56.7592
  0
LINE
  8
0
 10
80.6359
 20
56.7592
 11
80.2398
 21
55.844
  0
LINE
  8
0
 10
80.2398
 20
55.844
 11
79.902
 21
54.9056
  0
LINE
  8
0
 10
79.902
 20
54.9056
 11
79.6237
 21
53.9479
  0
LINE
  8
0
 10
79.6237
 20
53.9479
 11
79.4062
 21
52.9747
  0
LINE
  8
0
 10
79.4062
 20
52.9747
 11
79.2502
 21
51.9897
  0
LINE
  8
0
 10
79.2502
 20
51.9897
 11
79.1563
 21
50.9968
  0
LINE
  8
0
 10
79.1563
 20
50.9968
 11
79.125
 21
50
  0
LINE
  8
0
 10
79.125
 20
50
 11
79.1563
 21
49.0032
  0
LINE
  8
0
 10
79.1563
 20
49.0032
 11
79.2502
 21
48.0103
  0
LINE
  8
0
 10
79.2502
 20
48.0103
 11
79.4062
 21
47.0253
  0
LINE
  8
0
 10
79.4062
 20
47.0253
 11
79.6237
 21
46.0521
  0
LINE
  8
0
 10
79.6237
 20
46.0521
 11
79.902
 21
45.0944
  0
LINE
  8
0
 10
79.902
 20
45.0944
 11
80.2398
 21
44.156
  0
LINE
  8
0
 10
80.2398
 20
44.156
 11
80.6359
 21
43.2408
  0
LINE
  8
0
 10
80.6359
 20
43.2408
 11
81.0886
 21
42.3522
  0
LINE
  8
0
 10
81.0886
 20
42.3522
 11
81.5963
 21
41.4938
  0
LINE
  8
0
 10
81.5963
 20
41.4938
 11
82.1569
 21
40.6689
  0
LINE
  8
0
 10
82.1569
 20
40.6689
 11
82.7681
 21
39.8809
  0
LINE
  8
0
 10
82.7681
 20
39.8809
 11
83.4276
 21
39.1328
  0
LINE
  8
0
 10
83.4276
 20
39.1328
 11
84.1328
 21
38.4276
  0
LINE
  8
0
 10
84.1328
 20
38.4276
 11
84.8809
 21
37.7681
  0
LINE
  8
0
 10
84.8809
 20
37.7681
 11
85.6689
 21
37.1569
  0
LINE
  8
0
 10
85.6689
 20
37.1569
 11
86.4938
 21
36.5963
  0
LINE
  8
0
 10
86.4938
 20
36.5963
 11
87.3522
 21
36.0886
  0
LINE
  8
0
 10
87.3522
 20
36.0886
 11
88.2408
 21
35.6359
  0
LINE
  8
0
 10
88.2408
 20
35.6359
 11
89.156
 21
35.2398
  0
LINE
  8
0
 10
89.156
 20
35.2398
 11
90.0944
 21
34.902
  0
LINE
  8
0
 10
90.0944
 20
34.902
 11
91.0521
 21
34.6237
  0
LINE
  8
0
 10
91.0521
 20
34.6237
 11
92.0253
 21
34.4062
  0
LINE
  8
0
 10
92.0253
 20
34.4062
 11
93.0103
 21
34.2502
  0
LINE
  8
0
 10
93.0103
 20
34.2502
 11
94.0032
 21
34.1563
  0
LINE
  8
0
 10
94.0032
 20
34.1563
 11
95
 21
34.125
  0
LINE
  8
0
 10
95
 20
34.125
 11
95.9968
 21
34.1563
  0
LINE
  8
0
 10
94.5014
 20
38.8987
 11
93.5083
 21
38.9881
  0
LINE
  8
0
 10
93.5083
 20
38.9881
 11
92.5272
 21
39.1661
  0
LINE
  8
0
 10
92.5272
 20
39.1661
 11
91.5661
 21
39.4314
  0
LINE
  8
0
 10
91.5661
 20
39.4314
 11
90.6325
 21
39.7818
  0
LINE
  8
0
 10
90.6325
 20
39.7818
 11
89.7341
 21
40.2144
  0
LINE
  8
0
 10
89.7341
 20
40.2144
 11
88.8782
 21
40.7258
  0
LINE
  8
0
 10
88.8782
 20
40.7258
 11
88.0715
 21
41.3119
  0
LINE
  8
0
 10
88.0715
 20
41.3119
 11
87.3206
 21
41.968
  0
LINE
  8
0
 10
87.3206
 20
41.968
 11
86.6315
 21
42.6887
  0
LINE
  8
0
 10
86.6315
 20
42.6887
 11
86.0098
 21
43.4682
  0
LINE
  8
0
 10
86.0098
 20
43.4682
 11
85.4605
 21
44.3004
  0
LINE
  8
0
 10
85.4605
 20
44.3004
 11
84.988
 21
45.1785
  0
LINE
  8
0
 10
84.988
 20
45.1785
 11
84.5961
 21
46.0954
  0
LINE
  8
0
 10
84.5961
 20
46.0954
 11
84.288
 21
47.0437
  0
LINE
  8
0
 10
84.288
 20
47.0437
 11
84.0661
 21
48.0158
  0
LINE
  8
0
 10
84.0661
 20
48.0158
 11
83.9322
 21
49.0039
  0
LINE
  8
0
 10
83.9322
 20
49.0039
 11
83.8875
 21
50
  0
LINE
  8
0
 10
83.8875
 20
50
 11
83.9322
 21
50.9961
  0
LINE
  8
0
 10
83.9322
 20
50.9961
 11
84.0661
 21
51.9842
  0
LINE
  8
0
 10
84.0661
 20
51.9842
 11
84.288
 21
52.9563
  0
LINE
  8
0
 10
84.288
 20
52.9563
 11
84.5961
 21
53.9046
  0
LINE
  8
0
 10
84.5961
 20
53.9046
 11
84.988
 21
54.8215
  0
LINE
  8
0
 10
84.988
 20
54.8215
 11
85.4605
 21
55.6996
  0
LINE
  8
0
 10
85.4605
 20
55.6996
 11
86.0098
 21
56.5318
  0
LINE
  8
0
 10
86.0098
 20
56.5318
 11
86.6315
 21
57.3113
  0
LINE
  8
0
 10
86.6315
 20
57.3113
 11
87.3206
 21
58.032
  0
LINE
  8
0
 10
87.3206
 20
58.032
 11
88.0715
 21
58.6881
  0
LINE
  8
0
 10
88.0715
 20
58.6881
 11
88.8782
 21
59.2742
  0
LINE
  8
0
 10
88.8782
 20
59.2742
 11
89.7341
 21
59.7856
  0
LINE
  8
0
 10
89.7341
 20
59.7856
 11
90.6325
 21
60.2182
  0
LINE
  8
0
 10
90.6325
 20
60.2182
 11
91.5661
 21
60.5686
  0
LINE
  8
0
 10
91.5661
 20
60.5686
 11
92.5272
 21
60.8339
  0
LINE
  8
0
 10
92.5272
 20
60.8339
 11
93.5083
 21
61.0119
  0
LINE
  8
0
 10
93.5083
 20
61.0119
 11
94.5014
 21
61.1013
  0
LINE
  8
0
 10
94.5014
 20
61.1013
 11
95.4986
 21
61.1013
  0
LINE
  8
0
 10
95.4986
 20
61.1013
 11
96.4917
 21
61.0119
  0
LINE
  8
0
 10
96.4917
 20
61.0119
 11
97.4728
 21
60.8339
  0
LINE
  8
0
 10
97.4728
 20
60.8339
 11
98.4339
 21
60.5686
  0
LINE
  8
0
 10
98.4339
 20
60.5686
 11
99.3675
 21
60.2182
  0
LINE
  8
0
 10
99.3675
 20
60.2182
 11
100.266
 21
59.7856
  0
LINE
  8
0
 10
100.266
 20
59.7856
 11
101.122
 21
59.2742
  0
LINE
  8
0
 10
101.122
 20
59.2742
 11
101.929
 21
58.6881
  0
LINE
  8
0
 10
101.929
 20
58.6881
 11
102.679
 21
58.032
  0
LINE
  8
0
 10
102.679
 20
58.032
 11
103.368
 21
57.3113
  0
LINE
  8
0
 10
103.368
 20
57.3113
 11
103.99
 21
56.5318
  0
LINE
  8
0
 10
103.99
 20
56.5318
 11
104.54
 21
55.6996
  0
LINE
  8
0
 10
104.54
 20
55.6996
 11
105.012
 21
54.8215
  0
LINE
  8
0
 10
105.012
 20
54.8215
 11
105.404
 21
53.9046
  0
LINE
  8
0
 10
105.404
 20
53.9046
 11
105.712
 21
52.9563
  0
LINE
  8
0
 10
105.712
 20
52.9563
 11
105.934
 21
51.9842
  0
LINE
  8
0
 10
105.934
 20
51.9842
 11
106.068
 21
50.9961
  0
LINE
  8
0
 10
106.068
 20
50.9961
 11
106.112
 21
50
  0
LINE
  8
0
 10
106.112
 20
50
 11
106.068
 21
49.0039
  0
LINE
  8
0
 10
106.068
 20
49.0039
 11
105.934
 21
48.0158
  0
LINE
  8
0
 10
105.934
 20
48.0158
 11
105.712
 21
47.0437
  0
LINE
  8
0
 10
105.712
 20
47.0437
 11
105.404
 21
46.0954
  0
LINE
  8
0
 10
105.404
 20
46.0954
 11
105.012
 21
45.1785
  0
LINE
  8
0
 10
105.012
 20
45.1785
 11
104.54
 21
44.3004
  0
LINE
  8
0
 10
104.54
 20
44.3004
 11
103.99
 21
43.4682
  0
LINE
  8
0
 10
103.99
 20
43.4682
 11
103.368
 21
42.6887
  0
LINE
  8
0
 10
103.368
 20
42.6887
 11
102.679
 21
41.968
  0
LINE
  8
0
 10
102.679
 20
41.968
 11
101.929
 21
41.3119
  0
LINE
  8
0
 10
101.929
 20
41.3119
 11
101.122
 21
40.7258
  0
LINE
  8
0
 10
101.122
 20
40.7258
 11
100.266
 21
40.2144
  0
LINE
  8
0
 10
100.266
 20
40.2144
 11
99.3675
 21
39.7818
  0
LINE
  8
0
 10
99.3675
 20
39.7818
 11
98.4339
 21
39.4314
  0
LINE
  8
0
 10
98.4339
 20
39.4314
 11
97.4728
 21
39.1661
  0
LINE
  8
0
 10
97.4728
 20
39.1661
 11
96.4917
 21
38.9881
  0
LINE
  8
0
 10
96.4917
 20
38.9881
 11
95.4986
 21
38.8987
  0
LINE
  8
0
 10
95.4986
 20
38.8987
 11
94.5014
 21
38.8987
  0
LINE
  8
0
 10
95
 20
50
 11
100
 21
55
  0
LINE
  8
0
 10
100
 20
55
 11
90
 21
55
  0
LINE
  8
0
 10
90
 20
55
 11
90
 21
45
  0
LINE
  8
0
 10
90
 20
45
 11
100
 21
45
  0
LINE
  8
0
 10
100
 20
45
 11
95
 21
50
  0
ENDSEC
  0
SECTION
  2
OBJECTS
  0
DICTIONARY
  0
ENDSEC
  0
EOF
